<?xml version="1.0" encoding="UTF-8"?>
<svg id="Capa_1" data-name="Capa 1" xmlns="http://www.w3.org/2000/svg" width="2268.107" height="1659.623" viewBox="0 0 2268.107 1659.623">
  <rect x=".366" y="10.489" width="2267.717" height="1649.134" style="fill: #17355c;"/>
  <g>
    <g>
      <path d="M1139.943,1306.125l-12.379,11.766c-3.946-3.752-6.091-7.939-6.436-12.166-.372,4.557,1.352,9.158,5.166,13.306l1.27.876,12.802-11.633-.423-2.149Z" style="fill: #126739;"/>
      <g>
        <path d="M1155.719,1329.869c-.073-.01-.148-.017-.222-.028.073.011.148.017.222.028Z" style="fill: none;"/>
        <path d="M1144.701,1327.324c-.144-.047-.295-.083-.439-.13.143.047.294.084.439.13Z" style="fill: none;"/>
        <path d="M1152.233,1329.257c-.194-.039-.393-.066-.587-.106.193.04.393.067.587.106Z" style="fill: none;"/>
        <path d="M1148.066,1328.309c-.056-.015-.114-.025-.17-.04.056.015.114.025.17.04Z" style="fill: none;"/>
        <path d="M1163.471,1330.646c-.027-.001-.054-.001-.081-.002.027.001.054.001.081.002Z" style="fill: none;"/>
        <path d="M1159.719,1330.362c-.1-.01-.201-.013-.3-.023.1.01.201.013.3.023Z" style="fill: none;"/>
        <path d="M1188.23,1328.046c-.441.122-.87.263-1.317.377.446-.114.876-.254,1.317-.377Z" style="fill: none;"/>
        <path d="M1192.791,1326.591c-.739.268-1.47.545-2.228.787.759-.242,1.49-.519,2.228-.787Z" style="fill: none;"/>
        <path d="M1183.779,1329.133c-.212.044-.418.101-.631.142.213-.042.419-.099.631-.142Z" style="fill: none;"/>
        <path d="M1171.61,1330.66c-.076.004-.151.012-.227.015.076-.003.151-.012.227-.015Z" style="fill: none;"/>
        <path d="M1175.421,1330.394c-.021.002-.041.005-.062.007.021-.002.041-.006.062-.007Z" style="fill: none;"/>
        <path d="M1167.449,1330.754c-.021,0-.042.002-.063.001.021,0,.042-.001.063-.001Z" style="fill: none;"/>
        <path d="M1140.776,1325.928c.226.09.465.164.693.252-.228-.088-.467-.161-.693-.252h0Z" style="fill: none;"/>
        <path d="M1200.573,1323.081c-2.037,1.148-4.214,2.168-6.502,3.059,2.288-.89,4.465-1.91,6.502-3.059,3.738-2.108,6.707-4.486,8.908-7.022-2.201,2.536-5.17,4.914-8.908,7.022Z" style="fill: none;"/>
        <path d="M1140.776,1325.928h0c-.006-.002-.012-.004-.018-.007l10.826-9.712-.058-.082s-12.343,11.045-12.623,11.458l1.855-1.664c.006.002.012.004.018.007Z" style="fill: #126739;"/>
        <path d="M1214.161,1305.724c-.258,3.156-1.519,6.29-3.783,9.238-.283.368-.582.734-.896,1.097-2.201,2.536-5.17,4.914-8.908,7.022-2.037,1.149-4.214,2.168-6.502,3.059-.417.162-.856.298-1.28.452-.739.268-1.47.545-2.228.787-.764.244-1.551.451-2.333.669-.441.123-.87.263-1.317.377-1.03.263-2.08.491-3.134.71-.212.044-.418.101-.631.142-2.524.5-5.111.872-7.727,1.119-.021.002-.041.005-.062.007-1.244.116-2.495.199-3.749.258-.076.004-.151.012-.227.015-1.309.058-2.622.084-3.934.079-.021,0-.042.002-.063.001-1.306-.005-2.612-.043-3.915-.109-.027-.001-.054-.001-.081-.002-1.229-.064-2.453-.163-3.671-.282-.1-.01-.201-.013-.3-.023-1.242-.126-2.475-.286-3.7-.47-.073-.011-.148-.017-.222-.028-1.099-.168-2.184-.371-3.264-.585-.194-.039-.393-.066-.587-.106-1.21-.25-2.403-.534-3.581-.842-.056-.015-.114-.025-.17-.04-1.084-.287-2.145-.609-3.195-.945-.144-.047-.295-.083-.439-.13-.951-.313-1.875-.661-2.793-1.014-.228-.088-.468-.161-.693-.252l-1.873,1.657c18.276,8.113,44.817,7.434,61.671-2.072,9.641-5.438,14.169-12.668,13.588-19.788Z" style="fill: #126739;"/>
        <path d="M1140.757,1325.921l-1.855,1.664,1.873-1.657c-.006-.002-.012-.004-.018-.007Z" style="fill: #126739;"/>
        <path d="M1134.716,1288.369c18.186-10.257,47.671-10.257,65.857,0,8.544,4.819,13.072,11.045,13.588,17.355h0c.582-7.121-3.947-14.35-13.588-19.787-18.186-10.257-47.671-10.257-65.857,0-9.641,5.437-14.169,12.666-13.588,19.787.516-6.31,5.044-12.536,13.588-17.355Z" style="fill: #19a852;"/>
        <path d="M1140.776,1325.928c.226.09.465.164.693.252.918.354,1.842.702,2.793,1.014.143.047.294.084.439.13,1.05.336,2.112.658,3.195.945.056.015.114.025.17.04,1.178.309,2.371.592,3.581.842.193.04.393.067.587.106,1.079.214,2.164.417,3.264.585.073.011.148.017.222.028,1.224.184,2.457.343,3.7.47.1.01.201.013.3.023,1.219.119,2.442.217,3.671.282.027.001.054.001.081.002,1.302.066,2.608.104,3.915.109.021,0,.042-.001.063-.001,1.312.004,2.625-.021,3.934-.079.076-.003.151-.012.227-.015,1.254-.06,2.505-.142,3.749-.258.021-.002.041-.006.062-.007,2.616-.247,5.202-.619,7.727-1.119.213-.042.419-.099.631-.142,1.054-.219,2.105-.446,3.134-.71.446-.114.876-.255,1.317-.377.782-.217,1.569-.425,2.333-.669.758-.242,1.49-.519,2.228-.787.424-.154.863-.29,1.28-.452,2.288-.89,4.465-1.91,6.502-3.059,3.738-2.109,6.707-4.486,8.908-7.022.314-.362.613-.728.896-1.097,2.264-2.948,3.525-6.082,3.783-9.238-.516-6.31-5.044-12.536-13.588-17.355-18.186-10.257-47.671-10.257-65.857,0-8.544,4.819-13.072,11.045-13.588,17.355.345,4.226,2.491,8.414,6.436,12.166l27.612-24.77,10.131,10.778-13.724,12.312.067.095-10.874,9.623Z" style="fill: #19a852;"/>
        <path d="M1140.776,1325.928l10.874-9.623-.067-.095-10.826,9.712c.006.002.012.004.018.007Z" style="fill: #19a852;"/>
        <path d="M1194.071,1326.139c-.417.162-.856.298-1.28.452.424-.154.863-.29,1.28-.452Z" style="fill: #19a852;"/>
        <path d="M1190.563,1327.378c-.764.244-1.551.451-2.333.669.782-.217,1.569-.425,2.333-.669Z" style="fill: #19a852;"/>
        <path d="M1183.147,1329.276c-2.524.5-5.111.872-7.727,1.119,2.616-.247,5.202-.619,7.727-1.119Z" style="fill: #19a852;"/>
        <path d="M1186.913,1328.423c-1.03.263-2.08.491-3.134.71,1.054-.219,2.105-.446,3.134-.71Z" style="fill: #19a852;"/>
        <path d="M1175.359,1330.402c-1.244.116-2.495.198-3.749.258,1.254-.059,2.505-.142,3.749-.258Z" style="fill: #19a852;"/>
        <path d="M1159.419,1330.339c-1.242-.126-2.475-.286-3.7-.47,1.224.184,2.457.343,3.7.47Z" style="fill: #19a852;"/>
        <path d="M1171.383,1330.675c-1.309.058-2.622.084-3.934.079,1.312.004,2.625-.021,3.934-.079Z" style="fill: #19a852;"/>
        <path d="M1151.647,1329.151c-1.21-.25-2.403-.533-3.581-.842,1.178.308,2.371.592,3.581.842Z" style="fill: #19a852;"/>
        <path d="M1144.262,1327.194c-.951-.313-1.875-.661-2.793-1.014.918.354,1.842.702,2.793,1.014Z" style="fill: #19a852;"/>
        <path d="M1210.377,1314.962c2.264-2.947,3.525-6.082,3.783-9.238h0c-.258,3.156-1.519,6.29-3.783,9.238Z" style="fill: #19a852;"/>
        <path d="M1155.497,1329.842c-1.099-.168-2.184-.371-3.264-.585,1.079.214,2.164.417,3.264.585Z" style="fill: #19a852;"/>
        <path d="M1147.896,1328.269c-1.084-.287-2.145-.609-3.195-.945,1.05.336,2.111.658,3.195.945Z" style="fill: #19a852;"/>
        <path d="M1167.386,1330.755c-1.306-.005-2.612-.043-3.915-.109,1.302.066,2.608.104,3.915.109Z" style="fill: #19a852;"/>
        <path d="M1163.39,1330.644c-1.229-.064-2.453-.163-3.671-.282,1.219.119,2.442.217,3.671.282Z" style="fill: #19a852;"/>
      </g>
      <g>
        <polygon points="1137.335 1301.779 1140.366 1298.566 1137.335 1295.604 1137.335 1301.779" style="fill: #e1d7ce;"/>
        <g>
          <polygon points="1197.952 1301.779 1197.952 1295.604 1194.57 1295.604 1197.952 1301.779" style="fill: #e1d7ce;"/>
          <path d="M1189.074,1289.691c-11.836-6.676-31.027-6.676-42.863,0-11.836,6.677-11.836,17.5,0,24.176,11.836,6.676,31.027,6.676,42.864,0,11.836-6.676,11.836-17.499,0-24.176Z" style="fill: #e1d7ce;"/>
          <path d="M1189.074,1283.516c-11.839-6.674-31.024-6.674-42.864,0-5.916,3.341-8.875,7.713-8.875,12.092,0,3.364,1.751,6.73,5.259,9.62,1.049.871,2.251,1.693,3.616,2.465,11.84,6.674,31.031,6.674,42.864,0,1.353-.76,2.547-1.575,3.591-2.433,8.097-6.657,6.896-15.827-3.591-21.743Z" style="fill: #e1d7ce;"/>
          <path d="M1187.488,1286.882c-10.961-6.181-28.73-6.181-39.691,0-5.48,3.088-8.224,7.138-8.224,11.196,0,2.458,1.005,4.91,3.022,7.15,1.049.871,2.251,1.693,3.616,2.465,11.84,6.674,31.031,6.674,42.864,0,1.353-.76,2.547-1.575,3.591-2.433,5.373-5.947,3.647-13.407-5.177-18.378Z" style="fill: #17355c;"/>
          <path d="M1176.687,1292.646c-4.995-2.817-13.093-2.817-18.088,0-2.497,1.407-3.748,3.253-3.748,5.102,0,1.12.458,2.237,1.377,3.258.478.397,1.026.771,1.648,1.123,5.396,3.042,14.142,3.042,19.534,0,.617-.346,1.161-.718,1.636-1.109,2.448-2.71,1.662-6.11-2.359-8.375Z" style="fill: #f8f1e3;"/>
          <path d="M1189.074,1283.516c-5.919-3.337-13.675-5.006-21.432-5.006-7.756,0-15.512,1.669-21.432,5.006-5.916,3.341-8.875,7.713-8.875,12.092,0,3.364,1.751,6.73,5.259,9.62,1.049.871,2.251,1.693,3.616,2.465,5.92,3.337,13.677,5.006,21.435,5.006,7.757,0,15.513-1.669,21.429-5.006,1.353-.76,2.547-1.575,3.591-2.433,8.097-6.657,6.896-15.827-3.591-21.743ZM1191.851,1304.315c-1.001.823-2.147,1.599-3.408,2.308-5.534,3.121-12.92,4.84-20.797,4.84-7.878,0-15.265-1.719-20.801-4.84-1.28-.724-2.434-1.51-3.434-2.338-3.147-2.592-4.81-5.593-4.81-8.677,0-4.107,2.927-8.02,8.243-11.022,5.538-3.121,12.924-4.841,20.8-4.841,7.876,0,15.263,1.72,20.8,4.841,4.952,2.794,7.869,6.436,8.214,10.256.303,3.363-1.358,6.639-4.805,9.473Z" style="fill: #f8f1e3;"/>
          <g>
            <path d="M1170.607,1294.428c-1.636-.922-4.289-.922-5.925,0-1.637.923-1.637,2.42,0,3.343,1.636.923,4.289.923,5.925,0,1.637-.923,1.637-2.42,0-3.343Z" style="fill: #e1d7ce;"/>
            <polygon points="1163.454 1296.1 1171.835 1296.1 1171.835 1286.629 1163.454 1286.689 1163.454 1296.1" style="fill: #e1d7ce;"/>
            <path d="M1170.607,1284.958c-1.636-.923-4.289-.923-5.925,0-1.637.923-1.637,2.42,0,3.343,1.636.922,4.289.922,5.925,0,1.637-.923,1.637-2.42,0-3.343Z" style="fill: #f8f1e3;"/>
          </g>
          <g>
            <path d="M1169.385,1285.296c-.961-.542-2.518-.542-3.479,0-.961.542-.961,1.42,0,1.962.961.542,2.518.542,3.479,0,.961-.542.961-1.42,0-1.962Z" style="fill: #e1d7ce;"/>
            <polygon points="1165.185 1286.277 1170.105 1286.277 1170.105 1275.746 1165.185 1275.813 1165.185 1286.277" style="fill: #e1d7ce;"/>
            <path d="M1169.385,1274.765c-.961-.542-2.518-.542-3.479,0-.961.542-.961,1.42,0,1.962.961.542,2.518.542,3.479,0,.961-.542.961-1.42,0-1.962Z" style="fill: #f8f1e3;"/>
          </g>
        </g>
      </g>
    </g>
    <line x1="1171.835" y1="1340.447" x2="1171.835" y2="1373.21" style="fill: none; stroke: #e6e3d2; stroke-miterlimit: 10; stroke-width: .75px;"/>
    <text id="Acceso_2" data-name="Acceso 2" transform="translate(1094.027 1415.667) scale(1.034 1)" style="fill: #fff; font-family: ArchivoCondensed-Bold, &apos;ArchivoCondensed Bold&apos;; font-size: 31.168px; font-weight: 700;"><tspan x="0" y="0">PLAZOLETA</tspan></text>
  </g>
  <path d="M503.364,557.759h178.607v52.853s14.477,0,14.477,0v39.64h-16.083v-11.884s-44.592,0-44.592,0v11.884h-140.274s-1.702-82.985-1.702-82.985c-.107-5.22,4.208-9.508,9.567-9.508Z" style="fill: #89cae4;"/>
  <path d="M503.364,1036.217h178.607s0-52.853,0-52.853h14.477s0-39.64,0-39.64h-16.083s0,11.884,0,11.884h-44.592v-11.884s-140.274,0-140.274,0l-1.702,82.985c-.107,5.22,4.208,9.508,9.567,9.508Z" style="fill: #89cae4;"/>
  <polygon points="494.613 745.564 635.773 745.564 635.773 734.031 680.365 734.031 680.365 745.564 696.448 745.564 696.448 704.745 696.448 703.663 696.448 655.429 680.365 655.429 680.365 666.962 635.773 666.962 635.773 655.429 494.613 655.429 494.613 745.564" style="fill: #89cae4;"/>
  <polygon points="494.613 842.056 635.773 842.056 635.773 830.522 680.365 830.522 680.365 842.056 696.448 842.056 696.448 801.237 696.448 800.154 696.448 751.92 680.365 751.92 680.365 763.454 635.773 763.454 635.773 751.92 494.613 751.92 494.613 842.056" style="fill: #89cae4;"/>
  <polygon points="494.613 938.547 635.773 938.547 635.773 927.014 680.365 927.014 680.365 938.547 696.448 938.547 696.448 897.728 696.448 896.646 696.448 848.412 680.365 848.412 680.365 859.945 635.773 859.945 635.773 848.412 494.613 848.412 494.613 938.547" style="fill: #89cae4;"/>
  <path d="M1827.673,557.759h-178.607s0,52.853,0,52.853h-14.477s0,39.64,0,39.64h16.083s0-11.884,0-11.884h44.592v11.884s140.274,0,140.274,0l1.702-82.985c.107-5.22-4.208-9.508-9.567-9.508Z" style="fill: #fab61b;"/>
  <path d="M1827.673,1036.217h-178.607v-52.853s-14.477,0-14.477,0v-39.64h16.083v11.884s44.592,0,44.592,0v-11.884h140.274s1.702,82.985,1.702,82.985c.107,5.22-4.208,9.508-9.567,9.508Z" style="fill: #fab61b;"/>
  <polygon points="1836.424 745.564 1695.264 745.564 1695.264 734.031 1650.672 734.031 1650.672 745.564 1634.589 745.564 1634.589 704.745 1634.589 703.663 1634.589 655.429 1650.672 655.429 1650.672 666.962 1695.264 666.962 1695.264 655.429 1836.424 655.429 1836.424 745.564" style="fill: #fab61b;"/>
  <polygon points="1836.424 842.056 1695.264 842.056 1695.264 830.522 1650.672 830.522 1650.672 842.056 1634.589 842.056 1634.589 801.237 1634.589 800.154 1634.589 751.92 1650.672 751.92 1650.672 763.454 1695.264 763.454 1695.264 751.92 1836.424 751.92 1836.424 842.056" style="fill: #fab61b;"/>
  <polygon points="1836.424 938.547 1695.264 938.547 1695.264 927.014 1650.672 927.014 1650.672 938.547 1634.589 938.547 1634.589 897.728 1634.589 896.646 1634.589 848.412 1650.672 848.412 1650.672 859.945 1695.264 859.945 1695.264 848.412 1836.424 848.412 1836.424 938.547" style="fill: #fab61b;"/>
  <path d="M714.697,677.825c-3.265,0-6.329-1.979-7.212-5.042-.155-.539-.239-1.056-.228-1.513-2.956-43.584.054-84.407,6.524-124.16.747-4.591,6.069-7.106,10.435-5.231.438.188.885.386,1.345.589,18.207,8.053,48.348,29.295,66.79,40.707l45.524,28.16c1.005.622,1.852,1.455,2.451,2.457,1.043,1.744,2.761,3.907,2.761,4.573v48.079c0,6.259-5.257,11.38-11.682,11.38h-116.708Z" style="fill: #89cae4;"/>
  <path d="M874.76,593.174l-11.376-.155c-2.286-.031-4.373-1.275-5.443-3.243l-66.847-123.037c-1.558-2.868-.561-6.458,2.321-8.086,3.133-1.77,7.057-3.35,8.964-4.108,17.867-7.1,50.146-10.943,69.345-9.395,2.784.224,9.38,1.141,9.38,4.086v137.844c0,3.399-2.855,6.142-6.344,6.094Z" style="fill: #19a852;"/>
  <path d="M784.565,468.919l66.256,118.235c2.752,9.209-8.901,20.787-17.815,14.606l-106.574-65.415-3.636-2.251c-1.353-.838-1.983-2.417-1.593-3.933,3.691-14.329,41.09-58.306,58.709-63.228,1.819-.508,3.746.368,4.652,1.986Z" style="fill: #19a852;"/>
  <path d="M714.697,916.151c-3.265,0-6.329,1.979-7.212,5.042-.155.539-.239,1.056-.228,1.513-2.956,43.584.054,84.407,6.524,124.16.747,4.591,6.069,7.106,10.435,5.231.438-.188.885-.386,1.345-.589,18.207-8.053,48.348-29.295,66.79-40.707l45.524-28.16c1.005-.622,1.852-1.455,2.451-2.457,1.043-1.744,2.761-3.907,2.761-4.573v-48.079c0-6.259-5.257-11.38-11.682-11.38h-116.708Z" style="fill: #89cae4;"/>
  <path d="M874.76,1000.802l-11.376.155c-2.286.031-4.373,1.275-5.443,3.243l-66.847,123.037c-1.558,2.868-.561,6.458,2.321,8.086,3.133,1.77,7.057,3.35,8.964,4.108,17.867,7.1,50.146,10.943,69.345,9.395,2.784-.224,9.38-1.141,9.38-4.086v-137.844c0-3.399-2.855-6.142-6.344-6.094Z" style="fill: #e3666b;"/>
  <path d="M784.565,1125.057l66.256-118.235c2.752-9.209-8.901-20.787-17.815-14.606l-106.574,65.415-3.636,2.251c-1.353.838-1.983,2.417-1.593,3.933,3.691,14.329,41.09,58.306,58.709,63.228,1.819.508,3.746-.368,4.652-1.986Z" style="fill: #e6e3d2;"/>
  <path d="M1461.101,593.174l11.376-.155c2.286-.031,4.373-1.275,5.443-3.243l66.847-123.037c1.558-2.868.561-6.458-2.321-8.086-3.133-1.77-7.057-3.35-8.964-4.108-17.867-7.1-50.146-10.943-69.345-9.395-2.784.224-9.38,1.141-9.38,4.086v137.844c0,3.399,2.855,6.142,6.344,6.094Z" style="fill: #19a852;"/>
  <path d="M1548.942,473.119l-63.552,113.41c-.233.415-.263.923-.53,1.318-5.295,7.823.798,15.544,9.49,9.518l115.078-61.02h0c3.872-2.397,5.215-7.233,3.193-11.244-7.88-15.634-33.976-45.917-50.83-55.578-4.513-2.587-10.341-.881-12.85,3.596Z" style="fill: #19a852;"/>
  <path d="M1625.226,608.912c.072,3.04-2.578,5.49-5.699,5.49h-122.732c-3.743,0-6.47-3.455-5.508-6.979h0c.42-1.537,1.494-2.823,2.955-3.534,39.34-19.15,76.67-41.115,117.047-58.32,3.237-1.379,9.17-.291,10.106,5.752l3.831,57.591Z" style="fill: #19a852;"/>
  <path d="M1461.101,1000.802l11.376.155c2.286.031,4.373,1.275,5.443,3.243l66.847,123.037c1.558,2.868.561,6.458-2.321,8.086-3.133,1.77-7.057,3.35-8.964,4.108-17.867,7.1-50.146,10.943-69.345,9.395-2.784-.224-9.38-1.141-9.38-4.086v-137.844c0-3.399,2.855-6.142,6.344-6.094Z" style="fill: #e3666b;"/>
  <path d="M1548.942,1120.857l-63.552-113.41c-.233-.415-.263-.923-.53-1.318-5.295-7.823.798-15.544,9.49-9.518l115.078,61.02h0c3.872,2.397,5.215,7.233,3.193,11.244-7.88,15.634-33.976,45.917-50.83,55.578-4.513,2.587-10.341.881-12.85-3.596Z" style="fill: #e3666b;"/>
  <path d="M1625.226,985.064c.072-3.04-2.578-5.49-5.699-5.49h-122.732c-3.743,0-6.47,3.455-5.508,6.979h0c.42,1.537,1.494,2.823,2.955,3.534,39.34,19.15,76.67,41.115,117.047,58.32,3.237,1.379,9.17.291,10.106-5.752l3.831-57.591Z" style="fill: #e3666b;"/>
  <path d="M931.175,508.696h-41.068c-.619,0-1.121-.502-1.121-1.121v-61.182c0-.619.502-1.121,1.121-1.121h41.068c.619,0,1.121.502,1.121,1.121v61.182c0,.619-.502,1.121-1.121,1.121ZM1003.932,507.575v-61.182c0-.619-.502-1.121-1.121-1.121h-67.26c-.619,0-1.121.502-1.121,1.121v61.182c0,.619.502,1.121,1.121,1.121h67.26c.619,0,1.121-.502,1.121-1.121ZM1070.697,507.575v-61.182c0-.619-.502-1.121-1.121-1.121h-61.85c-.619,0-1.121.502-1.121,1.121v61.182c0,.619.502,1.121,1.121,1.121h61.85c.619,0,1.121-.502,1.121-1.121ZM1161.648,507.575v-61.182c0-.619-.502-1.121-1.121-1.121h-83.299c-.619,0-1.121.502-1.121,1.121v61.182c0,.619.502,1.121,1.121,1.121h83.299c.619,0,1.121-.502,1.121-1.121Z" style="fill: #19a852;"/>
  <path d="M1402.667,507.575v-61.182c0-.619.502-1.121,1.121-1.121h42.767c.619,0,1.121.502,1.121,1.121v61.182c0,.619-.502,1.121-1.121,1.121h-42.767c-.619,0-1.121-.502-1.121-1.121ZM1329.343,508.696h69.986c.619,0,1.121-.502,1.121-1.121v-61.182c0-.619-.502-1.121-1.121-1.121h-69.986c-.619,0-1.121.502-1.121,1.121v61.182c0,.619.502,1.121,1.121,1.121ZM1259.96,508.696h64.364c.619,0,1.121-.502,1.121-1.121v-61.182c0-.619-.502-1.121-1.121-1.121h-64.364c-.619,0-1.121.502-1.121,1.121v61.182c0,.619.502,1.121,1.121,1.121ZM1165.442,508.696h86.654c.619,0,1.121-.502,1.121-1.121v-61.182c0-.619-.502-1.121-1.121-1.121h-86.654c-.619,0-1.121.502-1.121,1.121v61.182c0,.619.502,1.121,1.121,1.121Z" style="fill: #19a852;"/>
  <rect x="888.986" y="513.981" width="114.946" height="79.279" rx="2.876" ry="2.876" style="fill: #19a852;"/>
  <rect x="1006.605" y="513.981" width="154.865" height="79.279" rx="2.876" ry="2.876" style="fill: #19a852;"/>
  <rect x="1329.272" y="513.981" width="118.404" height="79.279" rx="2.876" ry="2.876" transform="translate(2776.948 1107.242) rotate(-180)" style="fill: #19a852;"/>
  <rect x="1166.994" y="513.981" width="159.524" height="79.279" rx="2.876" ry="2.876" transform="translate(2493.513 1107.242) rotate(-180)" style="fill: #19a852;"/>
  <rect x="706.433" y="683.11" width="136.654" height="72.019" rx="3.2" ry="3.2" style="fill: #89cae4;"/>
  <rect x="1488.933" y="620.567" width="136.654" height="65.279" rx="3.2" ry="3.2" style="fill: #fab61b;"/>
  <rect x="1488.933" y="691.434" width="136.654" height="65.279" rx="3.2" ry="3.2" style="fill: #fab61b;"/>
  <rect x="1488.933" y="762.3" width="136.654" height="65.279" rx="3.2" ry="3.2" style="fill: #fab61b;"/>
  <rect x="1488.933" y="833.167" width="136.654" height="65.279" rx="3.2" ry="3.2" style="fill: #fab61b;"/>
  <rect x="1488.933" y="904.034" width="136.654" height="65.279" rx="3.2" ry="3.2" style="fill: #fab61b;"/>
  <rect x="706.433" y="760.735" width="136.654" height="72.019" rx="3.2" ry="3.2" style="fill: #89cae4;"/>
  <rect x="706.433" y="838.359" width="136.654" height="72.019" rx="3.2" ry="3.2" style="fill: #89cae4;"/>
  <rect x="886.535" y="1002.871" width="114.052" height="75.346" rx="3.249" ry="3.249" style="fill: #e3666b;"/>
  <path d="M1149.941,1002.871h-135.088c-4.879,0-8.835,3.853-8.835,8.607v58.133c0,4.753,3.956,8.607,8.835,8.607h148.675s0-19.859,0-19.859h-13.587v-55.487Z" style="fill: #ed6a6f;"/>
  <path d="M924.619,1148.216h-34.919c-1.748,0-3.165-1.417-3.165-3.165v-59.737c0-1.748,1.417-3.165,3.165-3.165h34.919c1.748,0,3.165,1.417,3.165,3.165v59.737c0,1.748-1.417,3.165-3.165,3.165ZM1049.996,1145.051v-59.737c0-1.748-1.417-3.165-3.165-3.165h-37.648c-1.748,0-3.165,1.417-3.165,3.165v59.737c0,1.748,1.417,3.165,3.165,3.165h37.648c1.748,0,3.165-1.417,3.165-3.165ZM1107.216,1111.99v-27.612c0-1.231-.998-2.228-2.228-2.228h-48.344c-1.231,0-2.228.998-2.228,2.228v27.612c0,1.231.998,2.228,2.228,2.228h48.344c1.231,0,2.228-.998,2.228-2.228ZM1164.435,1111.99v-27.612c0-1.231-.998-2.228-2.228-2.228h-48.344c-1.231,0-2.228.998-2.228,2.228v27.612c0,1.231.998,2.228,2.228,2.228h48.344c1.231,0,2.228-.998,2.228-2.228ZM1000.812,1145.051v-59.737c0-1.748-1.417-3.165-3.165-3.165h-61.491c-1.748,0-3.165,1.417-3.165,3.165v59.737c0,1.748,1.417,3.165,3.165,3.165h61.491c1.748,0,3.165-1.417,3.165-3.165Z" style="fill: #e3666b;"/>
  <rect x="1334.494" y="1002.871" width="114.052" height="75.346" rx="3.249" ry="3.249" transform="translate(2783.04 2081.087) rotate(-180)" style="fill: #e3666b;"/>
  <path d="M1185.14,1002.871h135.088c4.879,0,8.835,3.853,8.835,8.607v58.133c0,4.753-3.956,8.607-8.835,8.607h-148.675v-19.859h13.587s0-55.487,0-55.487Z" style="fill: #845592;"/>
  <g>
    <rect x="1285.085" y="1082.15" width="43.978" height="66.066" rx="3.165" ry="3.165" transform="translate(2614.147 2230.366) rotate(-180)" style="fill: #e3666b;"/>
    <path d="M1407.297,1145.051v-59.737c0-1.748,1.417-3.165,3.165-3.165h34.919c1.748,0,3.165,1.417,3.165,3.165v59.737c0,1.748-1.417,3.165-3.165,3.165h-34.919c-1.748,0-3.165-1.417-3.165-3.165ZM1230.094,1114.218h48.344c1.231,0,2.228-.998,2.228-2.228v-27.612c0-1.231-.998-2.228-2.228-2.228h-48.344c-1.231,0-2.228.998-2.228,2.228v27.612c0,1.231.998,2.228,2.228,2.228ZM1172.874,1114.218h48.344c1.231,0,2.228-.998,2.228-2.228v-27.612c0-1.231-.998-2.228-2.228-2.228h-48.344c-1.231,0-2.228.998-2.228,2.228v27.612c0,1.231.998,2.228,2.228,2.228ZM1337.434,1148.216h61.491c1.748,0,3.165-1.417,3.165-3.165v-59.737c0-1.748-1.417-3.165-3.165-3.165h-61.491c-1.748,0-3.165,1.417-3.165,3.165v59.737c0,1.748,1.417,3.165,3.165,3.165Z" style="fill: #e3666b;"/>
  </g>
  <path d="M567.818,1016.194l-14.37-5.387v-3.755l14.37-5.387v3.285l-2.829,1v6.102l2.829,1v3.143ZM562.476,1011.174v-4.347l-3.54,1.245c-.154.055-.339.119-.554.194-.217.075-.459.153-.724.235-.264.081-.526.16-.785.234-.258.075-.492.147-.702.214v.122c.265.069.576.157.933.265.357.109.699.218,1.026.327.328.109.598.197.807.265l3.54,1.245Z" style="fill: #17355c;"/>
  <path d="M567.818,999.176h-14.37v-3.041h11.709v-7.06h2.661v10.101Z" style="fill: #17355c;"/>
  <path d="M567.818,984.768h-11.752v4.489h-2.618v-12.06h2.618v4.51h11.752v3.062Z" style="fill: #17355c;"/>
  <path d="M567.818,977.463l-14.37-5.387v-3.755l14.37-5.387v3.285l-2.829,1v6.102l2.829,1v3.143ZM562.476,972.443v-4.347l-3.54,1.245c-.154.055-.339.119-.554.194-.217.075-.459.153-.724.235-.264.081-.526.16-.785.234-.258.075-.492.147-.702.214v.122c.265.069.576.157.933.265.357.109.699.218,1.026.327.328.109.598.197.807.265l3.54,1.245Z" style="fill: #17355c;"/>
  <path d="M603.981,1004.614l-29.77-11.16v-7.778l29.77-11.161v6.806l-5.859,2.072v12.64l5.859,2.072v6.51ZM592.916,994.215v-9.004l-7.335,2.579c-.317.112-.701.246-1.15.401-.448.155-.947.317-1.497.487s-1.092.331-1.627.486c-.536.155-1.021.304-1.454.444v.253c.55.142,1.194.324,1.932.55.737.226,1.447.451,2.125.676.68.226,1.238.409,1.671.549l7.335,2.579Z" style="fill: #17355c;"/>
  <path d="M567.818,920.115l-14.37-5.387v-3.755l14.37-5.387v3.285l-2.829,1v6.102l2.829,1v3.143ZM562.476,915.095v-4.347l-3.54,1.245c-.154.055-.339.119-.554.194-.217.075-.459.153-.724.235-.264.081-.526.16-.785.234-.258.075-.492.147-.702.214v.122c.265.069.576.157.933.265.357.109.699.218,1.026.327.328.109.598.197.807.265l3.54,1.245Z" style="fill: #17355c;"/>
  <path d="M567.818,903.097h-14.37v-3.041h11.709v-7.06h2.661v10.101Z" style="fill: #17355c;"/>
  <path d="M567.818,888.689h-11.752v4.489h-2.618v-12.06h2.618v4.51h11.752v3.062Z" style="fill: #17355c;"/>
  <path d="M567.818,881.384l-14.37-5.387v-3.755l14.37-5.387v3.285l-2.829,1v6.102l2.829,1v3.143ZM562.476,876.364v-4.347l-3.54,1.245c-.154.055-.339.119-.554.194-.217.075-.459.153-.724.235-.264.081-.526.16-.785.234-.258.075-.492.147-.702.214v.122c.265.069.576.157.933.265.357.109.699.218,1.026.327.328.109.598.197.807.265l3.54,1.245Z" style="fill: #17355c;"/>
  <path d="M603.981,905.533h-29.77v-16.571c0-1.522.305-2.896.913-4.122.606-1.226,1.461-2.191,2.56-2.896,1.099-.704,2.386-1.056,3.862-1.056,1.186,0,2.241.211,3.168.633.925.423,1.692.994,2.299,1.712.608.719,1.057,1.529,1.344,2.431h.174c.232-1.071.666-2.022,1.302-2.854.636-.831,1.453-1.493,2.452-1.987.997-.493,2.177-.74,3.537-.74,1.794,0,3.298.402,4.513,1.205,1.216.803,2.127,1.867,2.735,3.192.608,1.325.911,2.805.911,4.439v16.613ZM586.233,899.234v-8.37c0-.761-.152-1.402-.455-1.924-.305-.521-.71-.915-1.216-1.183-.506-.268-1.092-.402-1.758-.402-1.128,0-1.982.303-2.56.909-.578.607-.869,1.402-.869,2.388v8.582h6.858ZM598.687,899.234v-9.089c0-1.042-.303-1.895-.911-2.557-.608-.662-1.547-.994-2.821-.994-.752,0-1.403.142-1.952.423-.55.282-.977.705-1.28,1.268-.305.564-.455,1.283-.455,2.156v8.793h7.42Z" style="fill: #17355c;"/>
  <path d="M567.818,823.377l-14.37-5.387v-3.755l14.37-5.387v3.285l-2.829,1v6.102l2.829,1v3.143ZM562.476,818.357v-4.347l-3.54,1.245c-.154.055-.339.119-.554.194-.217.075-.459.153-.724.235-.264.081-.526.16-.785.234-.258.075-.492.147-.702.214v.122c.265.069.576.157.933.265.357.109.699.218,1.026.327.328.109.598.197.807.265l3.54,1.245Z" style="fill: #17355c;"/>
  <path d="M567.818,806.358h-14.37v-3.041h11.709v-7.06h2.661v10.101Z" style="fill: #17355c;"/>
  <path d="M567.818,791.951h-11.752v4.489h-2.618v-12.06h2.618v4.51h11.752v3.062Z" style="fill: #17355c;"/>
  <path d="M567.818,784.646l-14.37-5.387v-3.755l14.37-5.387v3.285l-2.829,1v6.102l2.829,1v3.143ZM562.476,779.626v-4.347l-3.54,1.245c-.154.055-.339.119-.554.194-.217.075-.459.153-.724.235-.264.081-.526.16-.785.234-.258.075-.492.147-.702.214v.122c.265.069.576.157.933.265.357.109.699.218,1.026.327.328.109.598.197.807.265l3.54,1.245Z" style="fill: #17355c;"/>
  <path d="M604.503,796.049c0,3.016-.543,5.595-1.629,7.736-1.084,2.142-2.769,3.77-5.054,4.883-2.285,1.113-5.193,1.669-8.723,1.669-5.207,0-9.077-1.247-11.609-3.741-2.53-2.494-3.796-6.009-3.796-10.547,0-2.479.434-4.706,1.302-6.679.867-1.972,2.169-3.53,3.905-4.671,1.736-1.141,3.92-1.712,6.553-1.712v6.341c-1.388,0-2.56.275-3.515.824-.955.55-1.684,1.325-2.191,2.326-.506,1.001-.759,2.163-.759,3.487,0,1.804.361,3.291,1.084,4.46.724,1.17,1.787,2.03,3.19,2.579,1.404.549,3.118.825,5.142.825h1.346c2.083,0,3.826-.282,5.229-.846,1.404-.563,2.46-1.416,3.168-2.557s1.063-2.613,1.063-4.417c0-1.409-.247-2.635-.738-3.678-.492-1.042-1.216-1.845-2.169-2.41-.955-.563-2.127-.845-3.515-.845v-6.087c2.632,0,4.816.557,6.553,1.67,1.736,1.113,3.03,2.656,3.883,4.629.854,1.973,1.282,4.227,1.282,6.764Z" style="fill: #17355c;"/>
  <path d="M567.818,729.026l-14.37-5.387v-3.755l14.37-5.387v3.285l-2.829,1v6.102l2.829,1v3.143ZM562.476,724.006v-4.347l-3.54,1.245c-.154.055-.339.119-.554.194-.217.075-.459.153-.724.235-.264.081-.526.16-.785.234-.258.075-.492.147-.702.214v.122c.265.069.576.157.933.265.357.109.699.218,1.026.327.328.109.598.197.807.265l3.54,1.245Z" style="fill: #17355c;"/>
  <path d="M567.818,712.007h-14.37v-3.041h11.709v-7.06h2.661v10.101Z" style="fill: #17355c;"/>
  <path d="M567.818,697.6h-11.752v4.489h-2.618v-12.06h2.618v4.51h11.752v3.062Z" style="fill: #17355c;"/>
  <path d="M567.818,690.295l-14.37-5.387v-3.755l14.37-5.388v3.286l-2.829,1v6.102l2.829,1v3.143ZM562.476,685.275v-4.347l-3.54,1.245c-.154.055-.339.119-.554.194-.217.075-.459.153-.724.235-.264.081-.526.16-.785.234-.258.075-.492.147-.702.214v.122c.265.069.576.157.933.265.357.109.699.218,1.026.327.328.109.598.197.807.265l3.54,1.245Z" style="fill: #17355c;"/>
  <path d="M603.981,714.803h-29.77v-11.836c0-3.016.536-5.58,1.607-7.694,1.07-2.114,2.697-3.742,4.882-4.882,2.185-1.141,4.984-1.712,8.397-1.712,3.385,0,6.177.571,8.376,1.712,2.199,1.141,3.832,2.769,4.904,4.882,1.07,2.114,1.605,4.678,1.605,7.694v11.836ZM598.644,708.504v-5.496c0-1.268-.188-2.395-.565-3.381-.375-.987-.933-1.804-1.67-2.452-.738-.649-1.663-1.141-2.779-1.48-1.112-.338-2.408-.507-3.883-.507h-1.302c-1.476,0-2.771.169-3.884.507-1.114.339-2.04.832-2.777,1.48-.738.648-1.302,1.465-1.693,2.452-.391.986-.586,2.113-.586,3.381v5.496h19.139Z" style="fill: #17355c;"/>
  <path d="M567.818,634.089l-14.37-5.387v-3.755l14.37-5.387v3.285l-2.829,1v6.102l2.829,1v3.143ZM562.476,629.069v-4.347l-3.54,1.245c-.154.054-.339.119-.554.194-.217.075-.459.153-.724.235-.264.082-.526.16-.785.235-.258.075-.492.146-.702.214v.122c.265.068.576.156.933.265.357.109.699.218,1.026.327.328.109.598.197.807.265l3.54,1.245Z" style="fill: #17355c;"/>
  <path d="M567.818,617.07h-14.37v-3.04h11.709v-7.061h2.661v10.101Z" style="fill: #17355c;"/>
  <path d="M567.818,602.663h-11.752v4.49h-2.618v-12.06h2.618v4.51h11.752v3.061Z" style="fill: #17355c;"/>
  <path d="M567.818,595.357l-14.37-5.387v-3.755l14.37-5.387v3.285l-2.829,1v6.102l2.829,1v3.143ZM562.476,590.337v-4.347l-3.54,1.245c-.154.054-.339.119-.554.194-.217.075-.459.153-.724.234-.264.082-.526.16-.785.235-.258.075-.492.146-.702.214v.122c.265.068.576.156.933.265.357.109.699.218,1.026.327.328.109.598.197.807.265l3.54,1.245Z" style="fill: #17355c;"/>
  <path d="M603.981,618.682h-29.77v-23.166h5.295v16.825h6.639v-14.88h5.252v14.88h7.247v-17.079h5.337v23.42Z" style="fill: #17355c;"/>
  <path d="M1731.526,631.622l-14.37-5.387v-3.755l14.37-5.387v3.285l-2.829,1v6.102l2.829,1v3.143ZM1726.184,626.602v-4.347l-3.54,1.245c-.154.054-.339.119-.554.194-.217.075-.459.153-.724.235-.264.082-.526.16-.785.235-.258.075-.492.146-.702.214v.122c.265.068.576.156.933.265.357.109.699.218,1.026.327.328.109.598.197.807.265l3.54,1.245Z" style="fill: #17355c;"/>
  <path d="M1731.526,614.603h-14.37v-3.04h11.709v-7.061h2.661v10.101Z" style="fill: #17355c;"/>
  <path d="M1731.526,600.196h-11.752v4.49h-2.618v-12.06h2.618v4.51h11.752v3.061Z" style="fill: #17355c;"/>
  <path d="M1731.526,592.89l-14.37-5.387v-3.755l14.37-5.387v3.285l-2.829,1v6.102l2.829,1v3.143ZM1726.184,587.87v-4.347l-3.54,1.245c-.154.054-.339.119-.554.194-.217.075-.459.153-.724.234-.264.082-.526.16-.785.235-.258.075-.492.146-.702.214v.122c.265.068.576.156.933.265.357.109.699.218,1.026.327.328.109.598.197.807.265l3.54,1.245Z" style="fill: #17355c;"/>
  <path d="M1767.689,620.041l-29.77-11.161v-7.778l29.77-11.16v6.806l-5.859,2.071v12.64l5.859,2.072v6.51ZM1756.624,609.641v-9.004l-7.335,2.579c-.317.112-.701.247-1.15.402-.448.155-.947.317-1.497.486-.55.169-1.092.332-1.627.487-.536.155-1.021.303-1.454.444v.253c.55.142,1.194.324,1.932.55.737.226,1.447.451,2.125.676.68.226,1.238.409,1.671.549l7.335,2.579Z" style="fill: #17355c;"/>
  <path d="M774.825,551.516l9.971-25.238h6.949l9.971,25.238h-6.08l-1.85-4.966h-11.293l-1.85,4.966h-5.816ZM784.116,542.135h8.045l-2.304-6.217c-.101-.27-.22-.594-.358-.975-.14-.38-.284-.803-.435-1.269s-.295-.926-.434-1.38c-.14-.454-.272-.864-.397-1.232h-.226c-.126.466-.289,1.012-.492,1.637-.201.625-.402,1.227-.603,1.803-.203.576-.366,1.048-.492,1.416l-2.304,6.217Z" style="fill: #fff;"/>
  <path d="M1555.502,1014.258l9.971-25.238h6.949l9.971,25.238h-6.08l-1.85-4.966h-11.293l-1.85,4.966h-5.816ZM1564.792,1004.877h8.045l-2.304-6.217c-.101-.27-.22-.594-.358-.975-.14-.379-.284-.803-.435-1.269-.151-.465-.295-.925-.434-1.379-.14-.454-.272-.864-.397-1.232h-.226c-.126.466-.289,1.011-.492,1.637-.201.625-.402,1.226-.603,1.802-.203.577-.366,1.049-.492,1.417l-2.304,6.217Z" style="fill: #fff;"/>
  <path d="M1534.735,1070.171v-25.238h14.805c1.36,0,2.587.258,3.682.773,1.096.515,1.959,1.239,2.588,2.17.628.933.944,2.023.944,3.274,0,1.006-.19,1.901-.567,2.686-.377.785-.887,1.435-1.53,1.95s-1.366.895-2.171,1.141v.147c.957.197,1.806.565,2.549,1.104.741.539,1.333,1.232,1.775,2.079.44.846.661,1.845.661,2.998,0,1.521-.36,2.796-1.077,3.826-.718,1.03-1.668,1.803-2.851,2.318-1.184.515-2.505.773-3.966.773h-14.843ZM1540.362,1055.124h7.478c.68,0,1.252-.129,1.718-.386.466-.257.818-.601,1.057-1.03.24-.429.36-.926.36-1.49,0-.956-.272-1.68-.812-2.17-.542-.49-1.253-.736-2.135-.736h-7.666v5.813ZM1540.362,1065.682h8.12c.931,0,1.693-.258,2.285-.773.591-.515.887-1.312.887-2.391,0-.637-.127-1.189-.379-1.655-.251-.465-.63-.828-1.132-1.085-.504-.258-1.147-.386-1.926-.386h-7.856v6.291Z" style="fill: #fff;"/>
  <path d="M1487.302,1078.869c-2.694,0-4.998-.46-6.911-1.379-1.913-.92-3.368-2.349-4.362-4.286-.996-1.937-1.492-4.402-1.492-7.395,0-4.415,1.114-7.695,3.342-9.841,2.229-2.146,5.369-3.219,9.422-3.219,2.216,0,4.205.368,5.967,1.104,1.762.736,3.154,1.839,4.173,3.311,1.021,1.472,1.53,3.324,1.53,5.556h-5.665c0-1.177-.245-2.171-.735-2.98-.492-.809-1.184-1.428-2.078-1.857-.894-.429-1.932-.644-3.116-.644-1.612,0-2.939.307-3.983.92-1.046.614-1.814,1.515-2.304,2.704-.492,1.19-.737,2.643-.737,4.36v1.14c0,1.766.251,3.244.755,4.433.503,1.19,1.264,2.085,2.285,2.686,1.019.601,2.334.901,3.946.901,1.26,0,2.354-.208,3.286-.625.931-.417,1.649-1.03,2.153-1.84.503-.809.755-1.802.755-2.98h5.438c0,2.232-.498,4.084-1.492,5.555-.994,1.472-2.373,2.57-4.136,3.293-1.762.724-3.776,1.086-6.042,1.086Z" style="fill: #fff;"/>
  <path d="M1380.429,1051.541v-25.238h10.575c2.694,0,4.985.454,6.873,1.362,1.888.907,3.342,2.287,4.362,4.139,1.021,1.852,1.53,4.225,1.53,7.118,0,2.87-.509,5.237-1.53,7.1-1.019,1.864-2.474,3.251-4.362,4.158s-4.18,1.361-6.873,1.361h-10.575ZM1386.057,1047.016h4.91c1.132,0,2.139-.159,3.022-.478.881-.319,1.61-.791,2.19-1.417.58-.625,1.019-1.41,1.322-2.354.302-.944.452-2.042.452-3.293v-1.103c0-1.251-.151-2.349-.452-3.293-.303-.944-.743-1.73-1.322-2.355-.58-.626-1.308-1.104-2.19-1.435-.883-.33-1.89-.496-3.022-.496h-4.91v16.224Z" style="fill: #fff;"/>
  <path d="M1247.407,1051.541v-25.238h20.697v4.488h-15.031v5.629h13.294v4.452h-13.294v6.144h15.257v4.525h-20.923Z" style="fill: #fff;"/>
  <path d="M1066.611,1051.541v-25.238h19.11v4.488h-13.483v6.255h12.047v4.451h-12.047v10.044h-5.628Z" style="fill: #fff;"/>
  <path d="M943.066,1051.983c-4.077,0-7.219-1.06-9.422-3.182-2.204-2.121-3.305-5.413-3.305-9.878,0-2.967.529-5.414,1.586-7.34,1.057-1.925,2.593-3.36,4.608-4.304,2.014-.944,4.431-1.417,7.25-1.417,1.687,0,3.273.184,4.759.552,1.486.368,2.8.933,3.947,1.693,1.145.76,2.039,1.711,2.681,2.851.642,1.14.963,2.495.963,4.065h-5.703c0-.76-.17-1.435-.509-2.023-.341-.589-.812-1.079-1.417-1.472-.605-.392-1.297-.686-2.078-.883-.781-.196-1.599-.295-2.453-.295-1.31,0-2.455.166-3.438.496-.982.331-1.794.835-2.435,1.509-.642.675-1.128,1.515-1.454,2.52-.328,1.006-.492,2.171-.492,3.495v1.103c0,1.84.276,3.348.831,4.526.554,1.177,1.385,2.054,2.493,2.63,1.107.577,2.48.864,4.117.864,1.36,0,2.562-.202,3.606-.607s1.864-.988,2.455-1.748c.592-.76.887-1.692.887-2.796v-.257h-7.742v-4.194h13.332v13.649h-3.7l-.492-2.723c-.755.712-1.568,1.301-2.436,1.766-.869.466-1.831.816-2.888,1.048-1.059.233-2.241.35-3.551.35Z" style="fill: #fff;"/>
  <path d="M836.681,1079.452v-25.238h5.628v10.007h11.482v-10.007h5.628v25.238h-5.628v-10.595h-11.482v10.595h-5.628Z" style="fill: #fff;"/>
  <path d="M779.611,1082.152v-25.238h5.628v25.238h-5.628Z" style="fill: #17355c;"/>
  <path d="M1536.85,551.516v-25.238h5.628v10.007h11.482v-10.007h5.628v25.238h-5.628v-10.595h-11.482v10.595h-5.628Z" style="fill: #fff;"/>
  <path d="M1569.814,605.735v-25.238h5.628v25.238h-5.628Z" style="fill: #fff;"/>
  <path d="M842.312,526.205v-25.238h14.805c1.36,0,2.587.258,3.682.773,1.096.515,1.959,1.239,2.588,2.171.628.932.944,2.023.944,3.274,0,1.006-.19,1.901-.567,2.686-.377.785-.887,1.435-1.53,1.95-.642.515-1.366.895-2.171,1.14v.147c.957.197,1.806.565,2.549,1.104.741.54,1.333,1.232,1.775,2.079.44.846.661,1.846.661,2.998,0,1.521-.36,2.796-1.077,3.826-.718,1.03-1.668,1.803-2.851,2.318-1.184.515-2.505.773-3.966.773h-14.843ZM847.94,511.158h7.478c.68,0,1.252-.129,1.718-.386.466-.257.818-.601,1.057-1.03.24-.429.36-.925.36-1.49,0-.957-.272-1.68-.812-2.171-.542-.49-1.253-.736-2.135-.736h-7.666v5.813ZM847.94,521.717h8.12c.931,0,1.693-.257,2.285-.773.591-.515.887-1.312.887-2.391,0-.638-.127-1.19-.379-1.656-.251-.466-.63-.828-1.132-1.085-.504-.257-1.147-.386-1.926-.386h-7.856v6.291Z" style="fill: #fff;"/>
  <path d="M1485.802,526.647c-4.077,0-7.219-1.061-9.422-3.182-2.204-2.121-3.305-5.414-3.305-9.878,0-2.967.529-5.414,1.586-7.34,1.057-1.925,2.593-3.36,4.608-4.304,2.014-.944,4.431-1.416,7.25-1.416,1.687,0,3.273.184,4.759.552s2.8.933,3.947,1.692c1.145.76,2.039,1.711,2.681,2.851.642,1.141.963,2.496.963,4.065h-5.703c0-.76-.17-1.435-.509-2.023-.341-.589-.812-1.079-1.417-1.472-.605-.392-1.297-.686-2.078-.883-.781-.196-1.599-.295-2.453-.295-1.31,0-2.455.166-3.438.497-.982.331-1.794.834-2.435,1.508-.642.675-1.128,1.515-1.454,2.52-.328,1.006-.492,2.171-.492,3.495v1.104c0,1.839.276,3.348.831,4.525s1.385,2.054,2.493,2.631c1.107.576,2.48.864,4.117.864,1.36,0,2.562-.202,3.606-.607s1.864-.987,2.455-1.747c.592-.76.887-1.693.887-2.796v-.257h-7.742v-4.194h13.332v13.649h-3.7l-.492-2.722c-.755.711-1.568,1.3-2.436,1.766-.869.466-1.831.816-2.888,1.048-1.059.233-2.241.35-3.551.35Z" style="fill: #fff;"/>
  <path d="M947.08,566.406c-2.694,0-4.998-.46-6.911-1.38-1.913-.92-3.368-2.348-4.362-4.286-.996-1.937-1.492-4.402-1.492-7.395,0-4.415,1.114-7.695,3.342-9.841,2.229-2.146,5.369-3.219,9.422-3.219,2.216,0,4.205.368,5.967,1.104,1.762.736,3.154,1.839,4.173,3.311,1.021,1.472,1.53,3.324,1.53,5.555h-5.665c0-1.177-.245-2.171-.735-2.98-.492-.809-1.184-1.428-2.078-1.858-.894-.429-1.932-.644-3.116-.644-1.612,0-2.939.307-3.983.92-1.046.613-1.814,1.515-2.304,2.704-.492,1.19-.737,2.643-.737,4.359v1.141c0,1.766.251,3.244.755,4.433.503,1.19,1.264,2.085,2.285,2.686,1.019.601,2.334.901,3.946.901,1.26,0,2.354-.208,3.286-.625.931-.417,1.649-1.03,2.153-1.839.503-.809.755-1.803.755-2.98h5.438c0,2.232-.498,4.084-1.492,5.555s-2.373,2.569-4.136,3.293c-1.762.723-3.776,1.085-6.042,1.085Z" style="fill: #fff;"/>
  <path d="M1076.581,565.965v-25.238h10.575c2.694,0,4.985.454,6.873,1.361,1.888.908,3.342,2.287,4.362,4.139,1.021,1.852,1.53,4.225,1.53,7.119,0,2.87-.509,5.237-1.53,7.1-1.019,1.864-2.474,3.25-4.362,4.157-1.888.908-4.18,1.361-6.873,1.361h-10.575ZM1082.209,561.44h4.91c1.132,0,2.139-.159,3.022-.478.881-.319,1.61-.791,2.19-1.416.58-.625,1.019-1.41,1.322-2.355.302-.944.452-2.042.452-3.293v-1.104c0-1.251-.151-2.348-.452-3.293-.303-.944-.743-1.729-1.322-2.354-.58-.625-1.308-1.104-2.19-1.435-.883-.331-1.89-.497-3.022-.497h-4.91v16.224Z" style="fill: #fff;"/>
  <path d="M1236.726,565.965v-25.238h20.697v4.488h-15.031v5.629h13.294v4.452h-13.294v6.144h15.257v4.525h-20.923Z" style="fill: #fff;"/>
  <path d="M1379.595,565.965v-25.238h19.11v4.488h-13.483v6.254h12.047v4.452h-12.047v10.044h-5.628Z" style="fill: #fff;"/>
  <path d="M1731.526,726.016l-14.37-5.387v-3.755l14.37-5.387v3.285l-2.829,1v6.102l2.829,1v3.143ZM1726.184,720.996v-4.347l-3.54,1.245c-.154.055-.339.119-.554.194-.217.075-.459.153-.724.235-.264.081-.526.16-.785.234-.258.075-.492.147-.702.214v.122c.265.069.576.157.933.265.357.109.699.218,1.026.327.328.109.598.197.807.265l3.54,1.245Z" style="fill: #17355c;"/>
  <path d="M1731.526,708.997h-14.37v-3.041h11.709v-7.06h2.661v10.101Z" style="fill: #17355c;"/>
  <path d="M1731.526,694.59h-11.752v4.489h-2.618v-12.06h2.618v4.51h11.752v3.062Z" style="fill: #17355c;"/>
  <path d="M1731.526,687.284l-14.37-5.387v-3.755l14.37-5.388v3.286l-2.829,1v6.102l2.829,1v3.143ZM1726.184,682.264v-4.347l-3.54,1.245c-.154.055-.339.119-.554.194-.217.075-.459.153-.724.235-.264.081-.526.16-.785.234-.258.075-.492.147-.702.214v.122c.265.069.576.157.933.265.357.109.699.218,1.026.327.328.109.598.197.807.265l3.54,1.245Z" style="fill: #17355c;"/>
  <path d="M1767.689,711.433h-29.77v-16.571c0-1.522.305-2.896.913-4.122.606-1.226,1.461-2.191,2.56-2.896,1.099-.704,2.386-1.056,3.862-1.056,1.186,0,2.241.211,3.168.633.925.423,1.692.994,2.299,1.712.608.719,1.057,1.529,1.344,2.431h.174c.232-1.071.666-2.022,1.302-2.854.636-.831,1.453-1.493,2.452-1.987.997-.493,2.177-.74,3.537-.74,1.794,0,3.298.402,4.513,1.205,1.216.803,2.127,1.867,2.735,3.192s.911,2.805.911,4.439v16.613ZM1749.941,705.135v-8.37c0-.761-.152-1.402-.455-1.924-.305-.521-.71-.915-1.216-1.183-.506-.268-1.092-.402-1.758-.402-1.128,0-1.982.303-2.56.909-.578.607-.869,1.402-.869,2.388v8.582h6.858ZM1762.395,705.135v-9.089c0-1.042-.303-1.895-.911-2.557-.608-.662-1.547-.994-2.821-.994-.752,0-1.403.142-1.952.423-.55.282-.977.705-1.28,1.268-.305.564-.455,1.283-.455,2.156v8.793h7.42Z" style="fill: #17355c;"/>
  <path d="M1731.526,822.748l-14.37-5.387v-3.755l14.37-5.387v3.285l-2.829,1v6.102l2.829,1v3.143ZM1726.184,817.728v-4.347l-3.54,1.245c-.154.055-.339.119-.554.194-.217.075-.459.153-.724.235-.264.081-.526.16-.785.234-.258.075-.492.147-.702.214v.122c.265.069.576.157.933.265.357.109.699.218,1.026.327.328.109.598.197.807.265l3.54,1.245Z" style="fill: #17355c;"/>
  <path d="M1731.526,805.729h-14.37v-3.041h11.709v-7.06h2.661v10.101Z" style="fill: #17355c;"/>
  <path d="M1731.526,791.322h-11.752v4.489h-2.618v-12.06h2.618v4.51h11.752v3.062Z" style="fill: #17355c;"/>
  <path d="M1731.526,784.017l-14.37-5.387v-3.755l14.37-5.387v3.285l-2.829,1v6.102l2.829,1v3.143ZM1726.184,778.997v-4.347l-3.54,1.245c-.154.055-.339.119-.554.194-.217.075-.459.153-.724.235-.264.081-.526.16-.785.234-.258.075-.492.147-.702.214v.122c.265.069.576.157.933.265.357.109.699.218,1.026.327.328.109.598.197.807.265l3.54,1.245Z" style="fill: #17355c;"/>
  <path d="M1768.211,795.42c0,3.016-.543,5.595-1.629,7.736-1.084,2.142-2.769,3.77-5.054,4.883-2.285,1.113-5.193,1.669-8.723,1.669-5.207,0-9.077-1.247-11.609-3.741-2.53-2.494-3.796-6.009-3.796-10.547,0-2.479.434-4.706,1.302-6.679.867-1.972,2.169-3.53,3.905-4.671,1.736-1.141,3.92-1.712,6.553-1.712v6.341c-1.388,0-2.56.275-3.515.824-.955.55-1.684,1.325-2.191,2.326-.506,1.001-.759,2.163-.759,3.487,0,1.804.361,3.291,1.084,4.46.724,1.17,1.787,2.03,3.19,2.579,1.404.549,3.118.825,5.142.825h1.346c2.083,0,3.826-.282,5.229-.846,1.404-.563,2.46-1.416,3.168-2.557.708-1.141,1.063-2.613,1.063-4.417,0-1.409-.247-2.635-.738-3.678-.492-1.042-1.216-1.845-2.169-2.41-.955-.563-2.127-.845-3.515-.845v-6.087c2.632,0,4.816.557,6.553,1.67,1.736,1.113,3.03,2.656,3.883,4.629.854,1.973,1.282,4.227,1.282,6.764Z" style="fill: #17355c;"/>
  <path d="M1731.526,917.098l-14.37-5.387v-3.755l14.37-5.387v3.285l-2.829,1v6.102l2.829,1v3.143ZM1726.184,912.078v-4.347l-3.54,1.245c-.154.055-.339.119-.554.194-.217.075-.459.153-.724.235-.264.081-.526.16-.785.234-.258.075-.492.147-.702.214v.122c.265.069.576.157.933.265.357.109.699.218,1.026.327.328.109.598.197.807.265l3.54,1.245Z" style="fill: #17355c;"/>
  <path d="M1731.526,900.08h-14.37v-3.041h11.709v-7.06h2.661v10.101Z" style="fill: #17355c;"/>
  <path d="M1731.526,885.672h-11.752v4.489h-2.618v-12.06h2.618v4.51h11.752v3.062Z" style="fill: #17355c;"/>
  <path d="M1731.526,878.367l-14.37-5.387v-3.755l14.37-5.387v3.285l-2.829,1v6.102l2.829,1v3.143ZM1726.184,873.347v-4.347l-3.54,1.245c-.154.055-.339.119-.554.194-.217.075-.459.153-.724.235-.264.081-.526.16-.785.234-.258.075-.492.147-.702.214v.122c.265.069.576.157.933.265.357.109.699.218,1.026.327.328.109.598.197.807.265l3.54,1.245Z" style="fill: #17355c;"/>
  <path d="M1767.689,902.875h-29.77v-11.836c0-3.016.536-5.58,1.607-7.694,1.07-2.114,2.697-3.742,4.882-4.882,2.185-1.141,4.984-1.712,8.397-1.712,3.385,0,6.177.571,8.376,1.712,2.199,1.141,3.832,2.769,4.904,4.882,1.07,2.114,1.605,4.678,1.605,7.694v11.836ZM1762.352,896.577v-5.496c0-1.268-.188-2.395-.565-3.381-.375-.987-.933-1.804-1.67-2.452-.738-.649-1.663-1.141-2.779-1.48-1.112-.338-2.408-.507-3.883-.507h-1.302c-1.476,0-2.771.169-3.884.507-1.114.339-2.04.832-2.777,1.48-.738.648-1.302,1.465-1.693,2.452-.391.986-.586,2.113-.586,3.381v5.496h19.139Z" style="fill: #17355c;"/>
  <path d="M1731.529,1012.037l-14.37-5.387v-3.755l14.37-5.387v3.285l-2.829,1v6.102l2.829,1v3.143ZM1726.188,1007.017v-4.347l-3.54,1.245c-.154.055-.339.119-.554.194-.217.075-.459.153-.724.235-.264.081-.526.16-.785.234-.258.075-.492.147-.702.214v.122c.265.069.576.157.933.265.357.109.699.218,1.026.327.328.109.598.197.807.265l3.54,1.245Z" style="fill: #17355c;"/>
  <path d="M1731.529,995.019h-14.37v-3.041h11.709v-7.06h2.661v10.101Z" style="fill: #17355c;"/>
  <path d="M1731.529,980.611h-11.752v4.489h-2.618v-12.06h2.618v4.51h11.752v3.062Z" style="fill: #17355c;"/>
  <path d="M1731.529,973.306l-14.37-5.387v-3.755l14.37-5.387v3.285l-2.829,1v6.102l2.829,1v3.143ZM1726.188,968.286v-4.347l-3.54,1.245c-.154.055-.339.119-.554.194-.217.075-.459.153-.724.235-.264.081-.526.16-.785.234-.258.075-.492.147-.702.214v.122c.265.069.576.157.933.265.357.109.699.218,1.026.327.328.109.598.197.807.265l3.54,1.245Z" style="fill: #17355c;"/>
  <path d="M1767.692,996.631h-29.77v-23.165h5.295v16.825h6.639v-14.88h5.252v14.88h7.247v-17.079h5.337v23.419Z" style="fill: #17355c;"/>
  <path d="M1549.2,673.821h-10.699v-5.956c0-.547.11-1.04.328-1.481.218-.441.525-.787.92-1.041.394-.252.858-.379,1.387-.379.427,0,.806.076,1.139.228.333.151.608.357.828.615.218.259.379.55.482.874h.063c.083-.385.239-.727.468-1.025.229-.299.523-.537.881-.715.358-.177.782-.265,1.271-.265.646,0,1.186.144,1.622.433.437.288.763.671.982,1.147s.328,1.008.328,1.595v5.971ZM1542.822,671.557v-3.008c0-.274-.055-.504-.163-.692-.11-.187-.256-.329-.438-.425-.181-.096-.391-.145-.631-.145-.405,0-.712.109-.92.327-.207.218-.311.504-.311.858v3.085h2.464ZM1547.298,671.557v-3.267c0-.374-.11-.681-.328-.919-.218-.238-.556-.357-1.013-.357-.27,0-.504.05-.702.152-.198.101-.352.253-.46.455-.11.203-.163.461-.163.775v3.16h2.667Z" style="fill: #17355c;"/>
  <path d="M1549.2,663.308l-10.699-4.011v-2.795l10.699-4.011v2.446l-2.106.744v4.543l2.106.744v2.34ZM1545.224,659.57v-3.236l-2.636.927c-.115.041-.253.089-.413.144-.162.056-.341.114-.539.175-.198.06-.393.119-.584.174-.193.056-.368.109-.523.16v.091c.198.05.429.116.694.197s.52.162.765.243c.243.081.444.147.6.197l2.636.926Z" style="fill: #17355c;"/>
  <path d="M1549.387,647.507c0,.8-.123,1.481-.366,2.043-.245.562-.611.993-1.099,1.291-.488.299-1.107.448-1.857.448h-.484v-2.219h.484c.479,0,.834-.129,1.068-.387s.352-.646.352-1.162c0-.496-.17-.871-.507-1.125s-.825-.379-1.458-.379h-7.019v-2.279h7.019c.862,0,1.582.147,2.16.441.576.294,1.005.721,1.286,1.284s.421,1.243.421,2.043Z" style="fill: #17355c;"/>
  <path d="M1549.2,641.932l-10.699-4.011v-2.795l10.699-4.011v2.446l-2.106.744v4.543l2.106.744v2.34ZM1545.224,638.194v-3.236l-2.636.927c-.115.041-.253.089-.413.144-.162.056-.341.114-.539.175-.198.06-.393.119-.584.174-.193.056-.368.109-.523.16v.091c.198.05.429.116.694.197s.52.162.765.243c.243.081.444.147.6.197l2.636.926Z" style="fill: #17355c;"/>
  <path d="M1576.125,664.204l-22.164-8.309v-5.791l22.164-8.309v5.067l-4.362,1.542v9.41l4.362,1.542v4.847ZM1567.887,656.462v-6.704l-5.461,1.919c-.236.084-.521.184-.856.299-.333.116-.705.236-1.114.362-.41.126-.814.247-1.213.362-.397.116-.759.226-1.082.33v.189c.41.106.889.242,1.437.409.55.168,1.077.336,1.583.503.507.168.922.304,1.244.409l5.461,1.92Z" style="fill: #17355c;"/>
  <path d="M1549.2,744.092h-10.699v-5.956c0-.547.11-1.04.328-1.481.218-.441.525-.788.92-1.041.394-.253.858-.379,1.387-.379.427,0,.806.076,1.139.228.333.151.608.356.828.615.218.259.379.549.482.874h.063c.083-.385.239-.727.468-1.026.229-.298.523-.536.881-.714s.782-.266,1.271-.266c.646,0,1.186.145,1.622.433.437.289.763.672.982,1.148s.328,1.008.328,1.595v5.971ZM1542.822,741.828v-3.008c0-.274-.055-.504-.163-.692-.11-.187-.256-.329-.438-.425-.181-.096-.391-.145-.631-.145-.405,0-.712.109-.92.327-.207.218-.311.504-.311.858v3.085h2.464ZM1547.298,741.828v-3.267c0-.375-.11-.681-.328-.92-.218-.237-.556-.356-1.013-.356-.27,0-.504.05-.702.151-.198.102-.352.253-.46.456-.11.203-.163.461-.163.775v3.16h2.667Z" style="fill: #17355c;"/>
  <path d="M1549.2,733.579l-10.699-4.011v-2.795l10.699-4.011v2.446l-2.106.744v4.543l2.106.745v2.339ZM1545.224,729.841v-3.236l-2.636.927c-.115.041-.253.089-.413.145-.162.055-.341.113-.539.174-.198.06-.393.119-.584.174-.193.056-.368.109-.523.16v.091c.198.05.429.116.694.197s.52.162.765.243c.243.081.444.147.6.197l2.636.926Z" style="fill: #17355c;"/>
  <path d="M1549.387,717.779c0,.8-.123,1.481-.366,2.043-.245.562-.611.992-1.099,1.291-.488.298-1.107.448-1.857.448h-.484v-2.219h.484c.479,0,.834-.129,1.068-.387.234-.259.352-.646.352-1.162,0-.496-.17-.871-.507-1.125s-.825-.38-1.458-.38h-7.019v-2.278h7.019c.862,0,1.582.147,2.16.441.576.294,1.005.721,1.286,1.284.281.562.421,1.243.421,2.043Z" style="fill: #17355c;"/>
  <path d="M1549.2,712.203l-10.699-4.011v-2.795l10.699-4.011v2.446l-2.106.744v4.543l2.106.745v2.339ZM1545.224,708.465v-3.236l-2.636.927c-.115.041-.253.089-.413.145-.162.055-.341.113-.539.174-.198.06-.393.119-.584.174-.193.056-.368.109-.523.16v.091c.198.05.429.116.694.197.265.081.52.162.765.243.243.081.444.147.6.197l2.636.926Z" style="fill: #17355c;"/>
  <path d="M1576.125,732.24h-22.164v-12.337c0-1.133.226-2.157.679-3.069.452-.913,1.088-1.631,1.907-2.156.818-.524,1.776-.786,2.874-.786.884,0,1.67.158,2.359.472s1.26.74,1.712,1.275c.452.535.787,1.138,1.002,1.81h.129c.173-.797.496-1.506.969-2.124.474-.619,1.082-1.112,1.825-1.48.744-.366,1.621-.551,2.634-.551,1.335,0,2.455.299,3.36.897.905.597,1.583,1.39,2.036,2.376.452.986.679,2.088.679,3.304v12.369ZM1562.911,727.551v-6.232c0-.567-.113-1.043-.339-1.432-.226-.388-.528-.682-.905-.881-.377-.199-.812-.299-1.308-.299-.84,0-1.475.226-1.907.677-.43.451-.646,1.043-.646,1.778v6.389h5.105ZM1572.182,727.551v-6.767c0-.776-.226-1.411-.677-1.903-.452-.493-1.153-.74-2.102-.74-.559,0-1.044.105-1.453.314-.41.21-.727.525-.953.944-.226.42-.339.956-.339,1.605v6.547h5.524Z" style="fill: #17355c;"/>
  <path d="M1549.2,816.11h-10.699v-5.956c0-.547.11-1.04.328-1.481.218-.441.525-.788.92-1.041.394-.253.858-.379,1.387-.379.427,0,.806.076,1.139.228.333.151.608.356.828.615.218.259.379.549.482.874h.063c.083-.385.239-.727.468-1.026.229-.298.523-.536.881-.714.358-.177.782-.266,1.271-.266.646,0,1.186.145,1.622.433.437.289.763.672.982,1.148s.328,1.008.328,1.595v5.971ZM1542.822,813.846v-3.008c0-.274-.055-.504-.163-.692-.11-.187-.256-.329-.438-.425-.181-.096-.391-.145-.631-.145-.405,0-.712.109-.92.327-.207.218-.311.504-.311.858v3.085h2.464ZM1547.298,813.846v-3.267c0-.375-.11-.681-.328-.92-.218-.237-.556-.356-1.013-.356-.27,0-.504.05-.702.151-.198.102-.352.253-.46.456-.11.203-.163.461-.163.775v3.16h2.667Z" style="fill: #17355c;"/>
  <path d="M1549.2,805.597l-10.699-4.011v-2.795l10.699-4.011v2.446l-2.106.744v4.543l2.106.745v2.339ZM1545.224,801.859v-3.236l-2.636.927c-.115.041-.253.089-.413.145-.162.055-.341.113-.539.174-.198.06-.393.119-.584.174-.193.056-.368.109-.523.16v.091c.198.05.429.116.694.197s.52.162.765.243c.243.081.444.147.6.197l2.636.926Z" style="fill: #17355c;"/>
  <path d="M1549.387,789.796c0,.8-.123,1.481-.366,2.043-.245.562-.611.992-1.099,1.291-.488.298-1.107.448-1.857.448h-.484v-2.219h.484c.479,0,.834-.129,1.068-.387.234-.259.352-.646.352-1.162,0-.496-.17-.871-.507-1.125s-.825-.38-1.458-.38h-7.019v-2.278h7.019c.862,0,1.582.147,2.16.441.576.294,1.005.721,1.286,1.284.281.562.421,1.243.421,2.043Z" style="fill: #17355c;"/>
  <path d="M1549.2,784.221l-10.699-4.011v-2.795l10.699-4.011v2.446l-2.106.744v4.543l2.106.745v2.339ZM1545.224,780.483v-3.236l-2.636.927c-.115.041-.253.089-.413.145-.162.055-.341.113-.539.174-.198.06-.393.119-.584.174-.193.056-.368.109-.523.16v.091c.198.05.429.116.694.197s.52.162.765.243c.243.081.444.147.6.197l2.636.926Z" style="fill: #17355c;"/>
  <path d="M1576.513,794.768c0,2.246-.404,4.166-1.213,5.76-.807,1.595-2.061,2.807-3.763,3.635-1.701.829-3.865,1.243-6.493,1.243-3.878,0-6.759-.929-8.643-2.785-1.885-1.857-2.827-4.474-2.827-7.853,0-1.846.324-3.504.969-4.973.647-1.468,1.616-2.628,2.909-3.478,1.291-.849,2.918-1.275,4.878-1.275v4.721c-1.035,0-1.907.205-2.618.614-.71.409-1.253.987-1.63,1.731-.377.745-.565,1.61-.565,2.596,0,1.343.269,2.45.807,3.32.539.871,1.33,1.511,2.375,1.92s2.321.614,3.828.614h1.002c1.55,0,2.849-.21,3.894-.63,1.044-.419,1.83-1.054,2.358-1.904.529-.849.792-1.945.792-3.289,0-1.049-.182-1.961-.548-2.738-.366-.776-.905-1.374-1.616-1.794-.71-.419-1.583-.63-2.617-.63v-4.532c1.96,0,3.586.415,4.878,1.243,1.293.829,2.257,1.978,2.892,3.446.635,1.469.953,3.147.953,5.035Z" style="fill: #17355c;"/>
  <path d="M1549.197,886.357h-10.699v-5.956c0-.547.11-1.04.328-1.481s.525-.788.92-1.041c.394-.253.858-.379,1.387-.379.427,0,.806.076,1.139.228.333.151.608.356.828.615.218.259.379.549.482.874h.063c.083-.385.239-.727.468-1.026.229-.298.523-.536.881-.714s.782-.266,1.271-.266c.646,0,1.186.145,1.622.433.437.289.763.672.982,1.148s.328,1.008.328,1.595v5.971ZM1542.819,884.093v-3.008c0-.274-.055-.504-.163-.692-.11-.187-.256-.329-.438-.425-.181-.096-.391-.145-.631-.145-.405,0-.712.109-.92.327-.207.218-.311.504-.311.858v3.085h2.464ZM1547.295,884.093v-3.267c0-.375-.11-.681-.328-.92-.218-.237-.556-.356-1.013-.356-.27,0-.504.05-.702.151-.198.102-.352.253-.46.456-.11.203-.163.461-.163.775v3.16h2.667Z" style="fill: #17355c;"/>
  <path d="M1549.197,875.844l-10.699-4.011v-2.795l10.699-4.011v2.446l-2.106.744v4.543l2.106.745v2.339ZM1545.22,872.106v-3.236l-2.636.927c-.115.041-.253.089-.413.145-.162.055-.341.113-.539.174-.198.06-.393.119-.584.174-.193.056-.368.109-.523.16v.091c.198.05.429.116.694.197s.52.162.765.243c.243.081.444.147.6.197l2.636.926Z" style="fill: #17355c;"/>
  <path d="M1549.384,860.043c0,.8-.123,1.481-.366,2.043-.245.562-.611.992-1.099,1.291-.488.298-1.107.448-1.857.448h-.484v-2.219h.484c.479,0,.834-.129,1.068-.387.234-.259.352-.646.352-1.162,0-.496-.17-.871-.507-1.125s-.825-.38-1.458-.38h-7.019v-2.278h7.019c.862,0,1.582.147,2.16.441.576.294,1.005.721,1.286,1.284.281.562.421,1.243.421,2.043Z" style="fill: #17355c;"/>
  <path d="M1549.197,854.468l-10.699-4.011v-2.795l10.699-4.011v2.446l-2.106.744v4.543l2.106.745v2.339ZM1545.22,850.73v-3.236l-2.636.927c-.115.041-.253.089-.413.145-.162.055-.341.113-.539.174-.198.06-.393.119-.584.174-.193.056-.368.109-.523.16v.091c.198.05.429.116.694.197s.52.162.765.243c.243.081.444.147.6.197l2.636.926Z" style="fill: #17355c;"/>
  <path d="M1576.122,874.772h-22.164v-8.812c0-2.245.399-4.154,1.195-5.728.798-1.574,2.009-2.785,3.635-3.635,1.627-.85,3.711-1.275,6.253-1.275,2.519,0,4.599.425,6.236,1.275,1.637.85,2.854,2.062,3.65,3.635.796,1.574,1.195,3.483,1.195,5.728v8.812ZM1572.148,870.083v-4.092c0-.944-.14-1.782-.421-2.518-.28-.734-.694-1.343-1.242-1.825-.55-.483-1.239-.85-2.069-1.102-.829-.252-1.794-.378-2.892-.378h-.969c-1.098,0-2.062.126-2.892.378-.829.252-1.519.619-2.069,1.102-.548.483-.969,1.091-1.26,1.825-.291.735-.435,1.574-.435,2.518v4.092h14.247Z" style="fill: #17355c;"/>
  <path d="M1549.2,957.043h-10.699v-5.956c0-.547.11-1.04.328-1.481.218-.441.525-.788.92-1.041.394-.253.858-.379,1.387-.379.427,0,.806.076,1.139.228.333.151.608.356.828.615.218.259.379.549.482.874h.063c.083-.385.239-.727.468-1.026.229-.298.523-.536.881-.714s.782-.266,1.271-.266c.646,0,1.186.145,1.622.433.437.289.763.672.982,1.148s.328,1.008.328,1.595v5.971ZM1542.822,954.78v-3.008c0-.274-.055-.504-.163-.692-.11-.187-.256-.329-.438-.425-.181-.096-.391-.145-.631-.145-.405,0-.712.109-.92.327-.207.218-.311.504-.311.858v3.085h2.464ZM1547.298,954.78v-3.267c0-.375-.11-.681-.328-.92-.218-.237-.556-.356-1.013-.356-.27,0-.504.05-.702.151-.198.102-.352.253-.46.456-.11.203-.163.461-.163.775v3.16h2.667Z" style="fill: #17355c;"/>
  <path d="M1549.2,946.531l-10.699-4.011v-2.795l10.699-4.011v2.446l-2.106.744v4.543l2.106.745v2.339ZM1545.224,942.793v-3.236l-2.636.927c-.115.041-.253.089-.413.145-.162.055-.341.113-.539.174-.198.06-.393.119-.584.174-.193.056-.368.109-.523.16v.091c.198.05.429.116.694.197s.52.162.765.243c.243.081.444.147.6.197l2.636.926Z" style="fill: #17355c;"/>
  <path d="M1549.387,930.73c0,.8-.123,1.481-.366,2.043-.245.562-.611.992-1.099,1.291-.488.298-1.107.448-1.857.448h-.484v-2.219h.484c.479,0,.834-.129,1.068-.387.234-.259.352-.646.352-1.162,0-.496-.17-.871-.507-1.125s-.825-.38-1.458-.38h-7.019v-2.278h7.019c.862,0,1.582.147,2.16.441.576.294,1.005.721,1.286,1.284.281.562.421,1.243.421,2.043Z" style="fill: #17355c;"/>
  <path d="M1549.2,925.154l-10.699-4.011v-2.795l10.699-4.011v2.446l-2.106.744v4.543l2.106.745v2.339ZM1545.224,921.417v-3.236l-2.636.927c-.115.041-.253.089-.413.145-.162.055-.341.113-.539.174-.198.06-.393.119-.584.174-.193.056-.368.109-.523.16v.091c.198.05.429.116.694.197s.52.162.765.243c.243.081.444.147.6.197l2.636.926Z" style="fill: #17355c;"/>
  <path d="M1576.125,944.577h-22.164v-17.247h3.942v12.526h4.943v-11.078h3.909v11.078h5.395v-12.715h3.974v17.435Z" style="fill: #17355c;"/>
  <path d="M758.443,986.064h-10.699v-5.956c0-.547.11-1.04.328-1.481.218-.441.525-.788.92-1.041.394-.253.858-.379,1.387-.379.427,0,.806.076,1.139.228.333.151.608.356.828.615.218.259.379.549.482.874h.063c.083-.385.239-.727.468-1.026.229-.298.523-.536.881-.714s.782-.266,1.271-.266c.646,0,1.186.145,1.622.433.437.289.763.672.982,1.148s.328,1.008.328,1.595v5.971ZM752.065,983.801v-3.008c0-.274-.055-.504-.163-.692-.11-.187-.256-.329-.438-.425-.181-.096-.391-.145-.631-.145-.405,0-.712.109-.92.327-.207.218-.311.504-.311.858v3.085h2.464ZM756.541,983.801v-3.267c0-.375-.11-.681-.328-.92-.218-.237-.556-.356-1.013-.356-.27,0-.504.05-.702.151-.198.102-.352.253-.46.456-.11.203-.163.461-.163.775v3.16h2.667Z" style="fill: #17355c;"/>
  <path d="M758.443,975.551l-10.699-4.011v-2.795l10.699-4.011v2.446l-2.106.744v4.543l2.106.745v2.339ZM754.467,971.814v-3.236l-2.636.927c-.115.041-.253.089-.413.145-.162.055-.341.113-.539.174-.198.06-.393.119-.584.174-.193.056-.368.109-.523.16v.091c.198.05.429.116.694.197s.52.162.765.243c.243.081.444.147.6.197l2.636.926Z" style="fill: #17355c;"/>
  <path d="M758.63,959.751c0,.8-.123,1.481-.366,2.043-.245.562-.611.992-1.099,1.291-.488.298-1.107.448-1.857.448h-.484v-2.219h.484c.479,0,.834-.129,1.068-.387.234-.259.352-.646.352-1.162,0-.496-.17-.871-.507-1.125-.338-.253-.825-.38-1.458-.38h-7.019v-2.278h7.019c.862,0,1.582.147,2.16.441.576.294,1.005.721,1.286,1.284.281.562.421,1.243.421,2.043Z" style="fill: #17355c;"/>
  <path d="M758.443,954.175l-10.699-4.011v-2.795l10.699-4.011v2.446l-2.106.744v4.543l2.106.745v2.339ZM754.467,950.437v-3.236l-2.636.927c-.115.041-.253.089-.413.145-.162.055-.341.113-.539.174-.198.06-.393.119-.584.174-.193.056-.368.109-.523.16v.091c.198.05.429.116.694.197s.52.162.765.243c.243.081.444.147.6.197l2.636.926Z" style="fill: #17355c;"/>
  <path d="M785.368,976.447l-22.164-8.309v-5.79l22.164-8.309v5.067l-4.362,1.542v9.41l4.362,1.542v4.846ZM777.13,968.705v-6.704l-5.461,1.92c-.236.083-.521.184-.856.298-.333.116-.705.236-1.114.362-.41.126-.814.247-1.213.363-.397.116-.759.226-1.082.33v.188c.41.106.889.242,1.437.409.55.168,1.077.336,1.583.503.507.168.922.304,1.244.409l5.461,1.92Z" style="fill: #17355c;"/>
  <path d="M758.443,894.732h-10.699v-5.956c0-.547.11-1.04.328-1.481.218-.441.525-.788.92-1.041.394-.253.858-.379,1.387-.379.427,0,.806.076,1.139.228.333.151.608.356.828.615.218.259.379.549.482.874h.063c.083-.385.239-.727.468-1.026.229-.298.523-.536.881-.714s.782-.266,1.271-.266c.646,0,1.186.145,1.622.433.437.289.763.672.982,1.148s.328,1.008.328,1.595v5.971ZM752.065,892.468v-3.008c0-.274-.055-.504-.163-.692-.11-.187-.256-.329-.438-.425-.181-.096-.391-.145-.631-.145-.405,0-.712.109-.92.327-.207.218-.311.504-.311.858v3.085h2.464ZM756.541,892.468v-3.267c0-.375-.11-.681-.328-.92-.218-.237-.556-.356-1.013-.356-.27,0-.504.05-.702.151-.198.102-.352.253-.46.456-.11.203-.163.461-.163.775v3.16h2.667Z" style="fill: #17355c;"/>
  <path d="M758.443,884.219l-10.699-4.011v-2.795l10.699-4.011v2.446l-2.106.744v4.543l2.106.745v2.339ZM754.467,880.481v-3.236l-2.636.927c-.115.041-.253.089-.413.145-.162.055-.341.113-.539.174-.198.06-.393.119-.584.174-.193.056-.368.109-.523.16v.091c.198.05.429.116.694.197s.52.162.765.243c.243.081.444.147.6.197l2.636.926Z" style="fill: #17355c;"/>
  <path d="M758.63,868.419c0,.8-.123,1.481-.366,2.043-.245.562-.611.992-1.099,1.291-.488.298-1.107.448-1.857.448h-.484v-2.219h.484c.479,0,.834-.129,1.068-.387.234-.259.352-.646.352-1.162,0-.496-.17-.871-.507-1.125s-.825-.38-1.458-.38h-7.019v-2.278h7.019c.862,0,1.582.147,2.16.441.576.294,1.005.721,1.286,1.284.281.562.421,1.243.421,2.043Z" style="fill: #17355c;"/>
  <path d="M758.443,862.843l-10.699-4.011v-2.795l10.699-4.011v2.446l-2.106.744v4.543l2.106.745v2.339ZM754.467,859.105v-3.236l-2.636.927c-.115.041-.253.089-.413.145-.162.055-.341.113-.539.174-.198.06-.393.119-.584.174-.193.056-.368.109-.523.16v.091c.198.05.429.116.694.197s.52.162.765.243c.243.081.444.147.6.197l2.636.926Z" style="fill: #17355c;"/>
  <path d="M785.368,882.88h-22.164v-12.337c0-1.133.226-2.157.679-3.069.452-.913,1.088-1.631,1.907-2.156.818-.524,1.776-.786,2.874-.786.884,0,1.67.158,2.359.472s1.26.74,1.712,1.275c.452.535.787,1.138,1.002,1.81h.129c.173-.797.496-1.506.969-2.124.474-.619,1.082-1.112,1.825-1.48.744-.366,1.621-.551,2.634-.551,1.335,0,2.455.299,3.36.897.905.597,1.583,1.39,2.036,2.376s.679,2.088.679,3.304v12.369ZM772.154,878.191v-6.232c0-.567-.113-1.043-.339-1.432-.226-.388-.528-.682-.905-.881-.377-.199-.812-.299-1.308-.299-.84,0-1.475.226-1.907.677-.43.451-.646,1.043-.646,1.778v6.389h5.105ZM781.425,878.191v-6.767c0-.776-.226-1.411-.677-1.903-.452-.493-1.153-.74-2.102-.74-.559,0-1.044.105-1.453.314-.41.21-.727.525-.953.944-.226.42-.339.956-.339,1.605v6.547h5.524Z" style="fill: #17355c;"/>
  <path d="M758.443,817.419h-10.699v-5.956c0-.547.11-1.04.328-1.481.218-.441.525-.788.92-1.041.394-.253.858-.379,1.387-.379.427,0,.806.076,1.139.228.333.151.608.356.828.615.218.259.379.549.482.874h.063c.083-.385.239-.727.468-1.026.229-.298.523-.536.881-.714s.782-.266,1.271-.266c.646,0,1.186.145,1.622.433.437.289.763.672.982,1.148.218.476.328,1.008.328,1.595v5.971ZM752.065,815.155v-3.008c0-.274-.055-.504-.163-.692-.11-.187-.256-.329-.438-.425-.181-.096-.391-.145-.631-.145-.405,0-.712.109-.92.327-.207.218-.311.504-.311.858v3.085h2.464ZM756.541,815.155v-3.267c0-.375-.11-.681-.328-.92-.218-.237-.556-.356-1.013-.356-.27,0-.504.05-.702.151-.198.102-.352.253-.46.456-.11.203-.163.461-.163.775v3.16h2.667Z" style="fill: #17355c;"/>
  <path d="M758.443,806.906l-10.699-4.011v-2.795l10.699-4.011v2.446l-2.106.744v4.543l2.106.745v2.339ZM754.467,803.168v-3.236l-2.636.927c-.115.041-.253.089-.413.145-.162.055-.341.113-.539.174-.198.06-.393.119-.584.174-.193.056-.368.109-.523.16v.091c.198.05.429.116.694.197s.52.162.765.243c.243.081.444.147.6.197l2.636.926Z" style="fill: #17355c;"/>
  <path d="M758.63,791.105c0,.8-.123,1.481-.366,2.043-.245.562-.611.992-1.099,1.291-.488.298-1.107.448-1.857.448h-.484v-2.219h.484c.479,0,.834-.129,1.068-.387.234-.259.352-.646.352-1.162,0-.496-.17-.871-.507-1.125s-.825-.38-1.458-.38h-7.019v-2.278h7.019c.862,0,1.582.147,2.16.441.576.294,1.005.721,1.286,1.284.281.562.421,1.243.421,2.043Z" style="fill: #17355c;"/>
  <path d="M758.443,785.53l-10.699-4.011v-2.795l10.699-4.011v2.446l-2.106.744v4.543l2.106.745v2.339ZM754.467,781.792v-3.236l-2.636.927c-.115.041-.253.089-.413.145-.162.055-.341.113-.539.174-.198.06-.393.119-.584.174-.193.056-.368.109-.523.16v.091c.198.05.429.116.694.197s.52.162.765.243c.243.081.444.147.6.197l2.636.926Z" style="fill: #17355c;"/>
  <path d="M785.756,796.077c0,2.246-.404,4.166-1.213,5.76-.807,1.595-2.061,2.807-3.763,3.635-1.701.829-3.865,1.243-6.493,1.243-3.878,0-6.759-.929-8.643-2.785-1.885-1.857-2.827-4.474-2.827-7.853,0-1.846.324-3.504.969-4.973.647-1.468,1.616-2.628,2.909-3.478,1.291-.849,2.918-1.275,4.878-1.275v4.721c-1.035,0-1.907.205-2.618.614-.71.409-1.253.987-1.63,1.731-.377.745-.565,1.61-.565,2.596,0,1.343.269,2.45.807,3.32.539.871,1.33,1.511,2.375,1.92,1.044.409,2.321.614,3.828.614h1.002c1.55,0,2.849-.21,3.894-.63,1.044-.419,1.83-1.054,2.358-1.904.529-.849.792-1.945.792-3.289,0-1.049-.182-1.961-.548-2.738-.366-.776-.905-1.374-1.616-1.794-.71-.419-1.583-.63-2.617-.63v-4.532c1.96,0,3.586.415,4.878,1.243,1.293.829,2.257,1.978,2.892,3.446.635,1.469.953,3.147.953,5.035Z" style="fill: #17355c;"/>
  <path d="M758.443,741.877h-10.699v-5.956c0-.547.11-1.04.328-1.481s.525-.788.92-1.041c.394-.253.858-.379,1.387-.379.427,0,.806.076,1.139.228.333.151.608.356.828.615.218.259.379.549.482.874h.063c.083-.385.239-.727.468-1.026.229-.298.523-.536.881-.714s.782-.266,1.271-.266c.646,0,1.186.145,1.622.433.437.289.763.672.982,1.148s.328,1.008.328,1.595v5.971ZM752.065,739.613v-3.008c0-.274-.055-.504-.163-.692-.11-.187-.256-.329-.438-.425-.181-.096-.391-.145-.631-.145-.405,0-.712.109-.92.327-.207.218-.311.504-.311.858v3.085h2.464ZM756.541,739.613v-3.267c0-.375-.11-.681-.328-.92-.218-.237-.556-.356-1.013-.356-.27,0-.504.05-.702.151-.198.102-.352.253-.46.456-.11.203-.163.461-.163.775v3.16h2.667Z" style="fill: #17355c;"/>
  <path d="M758.443,731.364l-10.699-4.011v-2.795l10.699-4.011v2.446l-2.106.744v4.543l2.106.745v2.339ZM754.467,727.626v-3.236l-2.636.927c-.115.041-.253.089-.413.145-.162.055-.341.113-.539.174-.198.06-.393.119-.584.174-.193.056-.368.109-.523.16v.091c.198.05.429.116.694.197s.52.162.765.243c.243.081.444.147.6.197l2.636.926Z" style="fill: #17355c;"/>
  <path d="M758.63,715.563c0,.8-.123,1.481-.366,2.043-.245.562-.611.992-1.099,1.291-.488.298-1.107.448-1.857.448h-.484v-2.219h.484c.479,0,.834-.129,1.068-.387.234-.259.352-.646.352-1.162,0-.496-.17-.871-.507-1.125s-.825-.38-1.458-.38h-7.019v-2.278h7.019c.862,0,1.582.147,2.16.441.576.294,1.005.721,1.286,1.284.281.562.421,1.243.421,2.043Z" style="fill: #17355c;"/>
  <path d="M758.443,709.988l-10.699-4.011v-2.795l10.699-4.011v2.446l-2.106.744v4.543l2.106.745v2.339ZM754.467,706.25v-3.236l-2.636.927c-.115.041-.253.089-.413.145-.162.055-.341.113-.539.174-.198.06-.393.119-.584.174-.193.056-.368.109-.523.16v.091c.198.05.429.116.694.197s.52.162.765.243c.243.081.444.147.6.197l2.636.926Z" style="fill: #17355c;"/>
  <path d="M785.368,730.292h-22.164v-8.812c0-2.245.399-4.154,1.195-5.728.798-1.574,2.009-2.785,3.635-3.635,1.627-.85,3.711-1.275,6.253-1.275,2.519,0,4.599.425,6.236,1.275s2.854,2.062,3.65,3.635c.796,1.574,1.195,3.483,1.195,5.728v8.812ZM781.394,725.603v-4.092c0-.944-.14-1.782-.421-2.518-.28-.734-.694-1.343-1.242-1.825-.55-.483-1.239-.85-2.069-1.102s-1.794-.378-2.892-.378h-.969c-1.098,0-2.062.126-2.892.378s-1.519.619-2.069,1.102c-.548.483-.969,1.091-1.26,1.825-.291.735-.435,1.574-.435,2.518v4.092h14.247Z" style="fill: #17355c;"/>
  <path d="M758.443,657.735h-10.699v-5.955c0-.547.11-1.041.328-1.482s.525-.787.92-1.04c.394-.253.858-.38,1.387-.38.427,0,.806.077,1.139.228.333.152.608.357.828.616.218.258.379.549.482.874h.063c.083-.385.239-.727.468-1.026.229-.298.523-.536.881-.714s.782-.266,1.271-.266c.646,0,1.186.145,1.622.433s.763.671.982,1.148c.218.476.328,1.008.328,1.595v5.97ZM752.065,655.471v-3.008c0-.273-.055-.503-.163-.691-.11-.187-.256-.329-.438-.425-.181-.096-.391-.145-.631-.145-.405,0-.712.109-.92.327-.207.218-.311.504-.311.858v3.084h2.464ZM756.541,655.471v-3.266c0-.375-.11-.682-.328-.92s-.556-.357-1.013-.357c-.27,0-.504.051-.702.152-.198.102-.352.253-.46.456-.11.203-.163.461-.163.775v3.16h2.667Z" style="fill: #17355c;"/>
  <path d="M758.443,647.222l-10.699-4.011v-2.795l10.699-4.011v2.447l-2.106.744v4.543l2.106.744v2.339ZM754.467,643.485v-3.236l-2.636.926c-.115.041-.253.089-.413.145-.162.056-.341.114-.539.174-.198.061-.393.119-.584.175-.193.055-.368.109-.523.159v.091c.198.051.429.117.694.197.265.082.52.162.765.243.243.081.444.147.6.197l2.636.927Z" style="fill: #17355c;"/>
  <path d="M758.63,631.421c0,.8-.123,1.482-.366,2.044-.245.562-.611.992-1.099,1.291-.488.298-1.107.448-1.857.448h-.484v-2.218h.484c.479,0,.834-.129,1.068-.387.234-.259.352-.646.352-1.163,0-.496-.17-.871-.507-1.124s-.825-.38-1.458-.38h-7.019v-2.279h7.019c.862,0,1.582.147,2.16.441.576.294,1.005.722,1.286,1.284.281.562.421,1.244.421,2.043Z" style="fill: #17355c;"/>
  <path d="M758.443,625.846l-10.699-4.011v-2.795l10.699-4.011v2.447l-2.106.744v4.543l2.106.744v2.339ZM754.467,622.109v-3.236l-2.636.926c-.115.041-.253.089-.413.145-.162.056-.341.114-.539.174-.198.061-.393.119-.584.175-.193.055-.368.109-.523.159v.091c.198.051.429.117.694.197.265.082.52.162.765.243.243.081.444.147.6.197l2.636.927Z" style="fill: #17355c;"/>
  <path d="M785.368,645.27h-22.164v-17.247h3.942v12.526h4.943v-11.078h3.909v11.078h5.395v-12.715h3.974v17.435Z" style="fill: #17355c;"/>
  <path d="M887.432,842.253h-23.209s0-87.26,0-87.26h23.209c7.379,0,13.382,5.908,13.382,13.169v60.922c0,7.261-6.003,13.169-13.382,13.169ZM1115.401,798.623c0-26.475,20.539-48.317,46.76-50.908v-128.948s-252.279,0-252.279,0c-25.217,0-45.659,20.117-45.659,44.933v80.991s23.209,0,23.209,0c13.151,0,23.85,10.529,23.85,23.471v60.922c0,12.942-10.699,23.471-23.85,23.471h-23.209s0,80.991,0,80.991c0,24.816,20.442,44.933,45.659,44.933h252.279s0-128.948,0-128.948c-26.221-2.591-46.76-24.433-46.76-50.909ZM1125.869,798.623c0,20.788,15.858,37.988,36.291,40.53v-81.059c-20.433,2.542-36.291,19.742-36.291,40.529ZM1208.921,798.623c0-20.787-15.858-37.987-36.292-40.529v81.059c20.434-2.542,36.292-19.742,36.292-40.53ZM1447.359,754.993c-7.379,0-13.382,5.908-13.382,13.169v60.922c0,7.261,6.003,13.169,13.382,13.169h23.209s0-87.26,0-87.26h-23.209ZM1423.509,829.084v-60.922c0-12.942,10.699-23.471,23.85-23.471h23.209s0-80.991,0-80.991c0-24.816-20.442-44.933-45.659-44.933h-252.279s0,128.948,0,128.948c26.221,2.591,46.76,24.433,46.76,50.908,0,26.476-20.539,48.317-46.76,50.909v128.948s252.279,0,252.279,0c25.217,0,45.659-20.117,45.659-44.933v-80.991s-23.209,0-23.209,0c-13.151,0-23.85-10.529-23.85-23.471ZM1172.629,618.767h-10.468s0,0,0,0h10.468s0,0,0,0ZM1162.161,978.479h10.468s0,0,0,0h-10.468s0,0,0,0ZM1470.568,852.555v-10.302s0,0,0,0v10.302s0,0,0,0ZM1470.568,754.993v-10.302s0,0,0,0v10.302s0,0,0,0ZM864.223,744.691v10.302s0,0,0,0v-10.302s0,0,0,0ZM864.223,842.253v10.302s0,0,0,0v-10.302s0,0,0,0Z" style="fill: #65b137;"/>
  <text/>
  <rect x="1382.495" y="764.788" width="113.473" height="62.036" transform="translate(643.425 2235.038) rotate(-90)" style="fill: #65b137;"/>
  <circle cx="447.991" cy="913.169" r="12.5" style="fill: #fff; opacity: 0;"/>
  <circle cx="447.991" cy="670.308" r="12.5" style="fill: #fff; opacity: 0;"/>
  <circle cx="713.423" cy="466.789" r="12.5" style="fill: #fff; opacity: 0;"/>
  <circle cx="1622.089" cy="466.789" r="12.5" style="fill: #fff; opacity: 0;"/>
  <circle cx="1622.089" cy="1120.456" r="12.5" style="fill: #fff; opacity: 0;"/>
  <circle cx="1383.1" cy="1197.347" r="12.5" style="fill: #fff; opacity: 0;"/>
  <circle cx="951.52" cy="1197.347" r="12.5" style="fill: #fff; opacity: 0;"/>
  <rect x="1409.894" y="750.695" width="47.956" height="92.585" style="fill: #d7b185;"/>
  <circle cx="1888.917" cy="913.99" r="12.5" style="fill: #fff; opacity: 0;"/>
  <circle cx="1888.917" cy="671.128" r="12.5" style="fill: #fff; opacity: 0;"/>
  <line x1="26.277" y1="552.106" x2="1143.156" y2="98.289" style="fill: none; stroke: #fff; stroke-dasharray: 7; stroke-miterlimit: 10; stroke-width: 2px;"/>
  <line x1=".366" y1="495.652" x2="1075.65" y2="73.408" style="fill: none; stroke: #fff; stroke-dasharray: 7; stroke-miterlimit: 10; stroke-width: 2px;"/>
  <line x1="156.212" y1="522.364" x2="64.993" y2="1156.46" style="fill: none; stroke: #fff; stroke-dasharray: 7; stroke-miterlimit: 10; stroke-width: 2px;"/>
  <line x1="98.374" y1="545.455" x2="5.653" y2="1180.314" style="fill: none; stroke: #fff; stroke-dasharray: 7; stroke-miterlimit: 10; stroke-width: 2px;"/>
  <path d="M2171.998,399.645l-19.36,653.748s16.994,117.017-113.267,131.925l-152.669,44.569s-37.753,7.538-47.954,53.975l-25.258,144.329" style="fill: none; stroke: #fff; stroke-dasharray: 7; stroke-miterlimit: 10; stroke-width: 2px;"/>
  <path d="M2230.307,399.645l-20.125,707.658s-1.587,117.585-113.857,134.46l-153.568,45.301s-37.979,7.649-48.205,55.01l-7.675,44.657" style="fill: none; stroke: #fff; stroke-dasharray: 7; stroke-miterlimit: 10; stroke-width: 2px;"/>
  <path d="M1439.622,38.56l310.228,220.647s82.058,68.137,191.787,74.175l326.445,8.049" style="fill: none; stroke: #fff; stroke-dasharray: 7; stroke-miterlimit: 10; stroke-width: 2px;"/>
  <path d="M1388.764,89.378l310.228,220.647s82.058,68.137,191.787,74.175l369.388,10.983" style="fill: none; stroke: #fff; stroke-dasharray: 7; stroke-miterlimit: 10; stroke-width: 2px;"/>
  <line x1="979.894" y1="35.887" x2="1645.386" y2="277.397" style="fill: none; stroke: #fff; stroke-dasharray: 7; stroke-miterlimit: 10; stroke-width: 2px;"/>
  <path d="M1104.821,1616.493s-30.271-153.099-236.085-168.909l-325.752-35.135-279.855-98.377" style="fill: none; stroke: #fff; stroke-dasharray: 7; stroke-miterlimit: 10;"/>
  <path d="M1025.715,1611.175s-4.136-92.003-168.43-110.172l-325.752-35.135-279.855-98.377" style="fill: none; stroke: #fff; stroke-dasharray: 7; stroke-miterlimit: 10;"/>
  <text transform="translate(248.525 1495.412) rotate(14.694) scale(1.018 1) skewX(-.549)" style="fill: #fff; font-family: ArchivoCondensed-Medium, &apos;ArchivoCondensed Medium&apos;; font-size: 30.632px; font-weight: 500;"><tspan x="0" y="0" style="letter-spacing: .019em;">A</tspan><tspan x="19.328" y="0" style="letter-spacing: .001em;">v</tspan><tspan x="34.093" y="0" style="letter-spacing: .04em;">. John </tspan><tspan x="124.15" y="0" style="letter-spacing: -.057em;">F</tspan><tspan x="137.321" y="0" style="letter-spacing: .04em;">. Kennedy</tspan></text>
  <g>
    <text transform="translate(2193.322 1007.305) rotate(-89.056) skewX(.084)" style="fill: #fff; font-family: ArchivoCondensed-Medium, &apos;ArchivoCondensed Medium&apos;; font-size: 31.349px; font-weight: 500;"><tspan x="0" y="0">C</tspan></text>
    <text transform="translate(2193.637 988.271) rotate(-89.056) skewX(.084)" style="fill: #fff; font-family: ArchivoCondensed-Medium, &apos;ArchivoCondensed Medium&apos;; font-size: 31.349px; font-weight: 500;"><tspan x="0" y="0">a</tspan></text>
    <text transform="translate(2193.904 972.029) rotate(-89.056) skewX(.084)" style="fill: #fff; font-family: ArchivoCondensed-Medium, &apos;ArchivoCondensed Medium&apos;; font-size: 31.349px; font-weight: 500;"><tspan x="0" y="0">c</tspan></text>
    <text transform="translate(2194.154 956.883) rotate(-89.056) skewX(.084)" style="fill: #fff; font-family: ArchivoCondensed-Medium, &apos;ArchivoCondensed Medium&apos;; font-size: 31.349px; font-weight: 500;"><tspan x="0" y="0">i</tspan></text>
    <text transform="translate(2194.293 948.383) rotate(-89.056) skewX(.084)" style="fill: #fff; font-family: ArchivoCondensed-Medium, &apos;ArchivoCondensed Medium&apos;; font-size: 31.349px; font-weight: 500;"><tspan x="0" y="0">c</tspan></text>
    <text transform="translate(2194.543 933.2) rotate(-89.056) skewX(.084)" style="fill: #fff; font-family: ArchivoCondensed-Medium, &apos;ArchivoCondensed Medium&apos;; font-size: 31.349px; font-weight: 500;"><tspan x="0" y="0">a</tspan></text>
    <text transform="translate(2194.812 916.999) rotate(-89.056) skewX(.084)" style="fill: #fff; font-family: ArchivoCondensed-Medium, &apos;ArchivoCondensed Medium&apos;; font-size: 31.349px; font-weight: 500;"><tspan x="0" y="0"> </tspan></text>
    <text transform="translate(2194.94 909.169) rotate(-89.056) skewX(.084)" style="fill: #fff; font-family: ArchivoCondensed-Medium, &apos;ArchivoCondensed Medium&apos;; font-size: 31.349px; font-weight: 500;"><tspan x="0" y="0">Q</tspan></text>
    <text transform="translate(2195.315 886.42) rotate(-89.056) skewX(.084)" style="fill: #fff; font-family: ArchivoCondensed-Medium, &apos;ArchivoCondensed Medium&apos;; font-size: 31.349px; font-weight: 500;"><tspan x="0" y="0">u</tspan></text>
    <text transform="translate(2195.617 868.073) rotate(-89.056) skewX(.084)" style="fill: #fff; font-family: ArchivoCondensed-Medium, &apos;ArchivoCondensed Medium&apos;; font-size: 31.349px; font-weight: 500;"><tspan x="0" y="0">i</tspan></text>
    <text transform="translate(2195.757 859.546) rotate(-89.056) skewX(.084)" style="fill: #fff; font-family: ArchivoCondensed-Medium, &apos;ArchivoCondensed Medium&apos;; font-size: 31.349px; font-weight: 500;"><tspan x="0" y="0">l</tspan></text>
    <text transform="translate(2195.899 850.963) rotate(-89.056) skewX(.084)" style="fill: #fff; font-family: ArchivoCondensed-Medium, &apos;ArchivoCondensed Medium&apos;; font-size: 31.349px; font-weight: 500;"><tspan x="0" y="0">a</tspan></text>
    <text transform="translate(2196.165 834.756) rotate(-89.056) skewX(.084)" style="fill: #fff; font-family: ArchivoCondensed-Medium, &apos;ArchivoCondensed Medium&apos;; font-size: 31.349px; font-weight: 500;"><tspan x="0" y="0">g</tspan></text>
    <text transform="translate(2196.474 816.15) rotate(-89.056) skewX(.084)" style="fill: #fff; font-family: ArchivoCondensed-Medium, &apos;ArchivoCondensed Medium&apos;; font-size: 31.349px; font-weight: 500;"><tspan x="0" y="0">o</tspan></text>
  </g>
  <text transform="translate(507.423 336.931) rotate(-22.452) scale(1.019 1) skewX(-1.167)" style="fill: #fff; font-family: ArchivoCondensed-Medium, &apos;ArchivoCondensed Medium&apos;; font-size: 31.312px; font-weight: 500;"><tspan x="0" y="0" style="letter-spacing: .04em;">Juana</tspan><tspan x="82.664" y="0" style="letter-spacing: 0em;"> </tspan><tspan x="89.271" y="0" style="letter-spacing: -.031em;">T</tspan><tspan x="103.863" y="0" style="letter-spacing: .04em;">e</tspan><tspan x="120.802" y="0" style="letter-spacing: .044em;">r</tspan><tspan x="132.419" y="0" style="letter-spacing: .035em;">r</tspan><tspan x="143.754" y="0" style="letter-spacing: .04em;">azas</tspan></text>
  <text transform="translate(1445.61 96.437) rotate(34.92) scale(.885 1) skewX(.56)" style="fill: #fff; font-family: ArchivoCondensed-Medium, &apos;ArchivoCondensed Medium&apos;; font-size: 31.258px; font-weight: 500;"><tspan x="0" y="0" style="letter-spacing: .019em;">A</tspan><tspan x="19.723" y="0" style="letter-spacing: .001em;">v</tspan><tspan x="34.789" y="0" style="letter-spacing: .04em;">. Diego</tspan><tspan x="135.062" y="0" style="letter-spacing: .004em;"> </tspan><tspan x="141.813" y="0" style="letter-spacing: .007em;">V</tspan><tspan x="159.474" y="0" style="letter-spacing: .04em;">ásquez de </tspan><tspan x="309.821" y="0" style="letter-spacing: .029em;">C</tspan><tspan x="328.856" y="0" style="letter-spacing: .04em;">epeda</tspan></text>
  <polyline points="76.939 1396.9 484.433 1524.378 881.741 1583.718 1126.649 1628.913" style="fill: none; stroke: #fff; stroke-dasharray: 7; stroke-miterlimit: 10;"/>
  <polyline points="51.633 1458.805 489.972 1586.284 816.718 1631.651 917.352 1645.623" style="fill: none; stroke: #fff; stroke-dasharray: 7; stroke-miterlimit: 10;"/>
  <line x1="1081.83" y1=".931" x2="1485.905" y2="158.763" style="fill: none; stroke: #fff; stroke-dasharray: 7; stroke-miterlimit: 10; stroke-width: 2px;"/>
  <text transform="translate(1207.087 92.534) rotate(19.802) scale(1.019 1) skewX(-.473)" style="fill: #fff; font-family: ArchivoCondensed-Medium, &apos;ArchivoCondensed Medium&apos;; font-size: 31.316px; font-weight: 500;"><tspan x="0" y="0" style="letter-spacing: -.031em;">T</tspan><tspan x="14.593" y="0" style="letter-spacing: .04em;">omasa</tspan></text>
  <text transform="translate(573.061 1451.019) rotate(5.206) scale(1.017 1) skewX(-.709)" style="fill: #fff; font-family: ArchivoCondensed-Medium, &apos;ArchivoCondensed Medium&apos;; font-size: 31.348px; font-weight: 500;"><tspan x="0" y="0" style="letter-spacing: .04em;">La Espe</tspan><tspan x="106.706" y="0" style="letter-spacing: .035em;">r</tspan><tspan x="118.054" y="0" style="letter-spacing: .04em;">anza</tspan></text>
  <text transform="translate(79.204 923.447) rotate(-80.763) scale(1.035 1) skewX(-.966)" style="fill: #fff; font-family: ArchivoCondensed-Medium, &apos;ArchivoCondensed Medium&apos;; font-size: 31.071px; font-weight: 500;"><tspan x="0" y="0" style="letter-spacing: .04em;">H..</tspan><tspan x="36.849" y="0" style="letter-spacing: .004em;"> </tspan><tspan x="43.56" y="0" style="letter-spacing: .007em;">V</tspan><tspan x="61.116" y="0" style="letter-spacing: .04em;">ans </tspan><tspan x="117.198" y="0" style="letter-spacing: .05em;">R</tspan><tspan x="135.468" y="0" style="letter-spacing: .04em;">isn</tspan></text>
  <circle cx="1166.994" cy="1197.312" r="12.5" style="fill: #fff; opacity: 0;"/>
  <circle cx="1384.029" cy="388.887" r="12.5" style="fill: #fff; opacity: 0;"/>
  <circle cx="952.45" cy="388.887" r="12.5" style="fill: #fff; opacity: 0;"/>
  <circle cx="713.423" cy="1126.789" r="12.5" style="fill: #fff; opacity: 0;"/>
</svg>
