<?xml version="1.0" encoding="UTF-8"?>
<svg id="Capa_1" data-name="Capa 1" xmlns="http://www.w3.org/2000/svg" viewBox="0 0 2834.65 1635.02">
  <rect width="2834.65" height="1635.02" style="fill: #17355c;"/>
  <g>
    <g>
      <text></text>
      <text transform="translate(1344.59 1300.14) scale(1.11 1)" style="fill: #fff; font-family: ArchivoCondensed-Bold, &apos;ArchivoCondensed Bold&apos;; font-size: 28.13px; font-weight: 700;"><tspan x="0" y="0" style="letter-spacing: .04em;">PLA</tspan><tspan x="48.83" y="0" style="letter-spacing: .02em;">Z</tspan><tspan x="64.91" y="0" style="letter-spacing: .04em;">OL</tspan><tspan x="99.82" y="0" style="letter-spacing: .06em;">E</tspan><tspan x="115.23" y="0" style="letter-spacing: -.03em;">T</tspan><tspan x="128.22" y="0" style="letter-spacing: .04em;">A</tspan></text>
    </g>
    <g>
      <path d="M1391.5,1203.62l-12.38,11.77c-3.95-3.75-6.09-7.94-6.44-12.17-.37,4.56,1.35,9.16,5.17,13.31l1.27.88,12.8-11.63-.42-2.15Z" style="fill: #126739;"/>
      <g>
        <path d="M1407.27,1227.37c-.07-.01-.15-.02-.22-.03.07.01.15.02.22.03Z" style="fill: none;"/>
        <path d="M1396.26,1224.82c-.14-.05-.3-.08-.44-.13.14.05.29.08.44.13Z" style="fill: none;"/>
        <path d="M1403.79,1226.75c-.19-.04-.39-.07-.59-.11.19.04.39.07.59.11Z" style="fill: none;"/>
        <path d="M1399.62,1225.81c-.06-.01-.11-.03-.17-.04.06.01.11.03.17.04Z" style="fill: none;"/>
        <path d="M1415.03,1228.14s-.05,0-.08,0c.03,0,.05,0,.08,0Z" style="fill: none;"/>
        <path d="M1411.27,1227.86c-.1,0-.2-.01-.3-.02.1,0,.2.01.3.02Z" style="fill: none;"/>
        <path d="M1439.78,1225.54c-.44.12-.87.26-1.32.38.45-.11.88-.25,1.32-.38Z" style="fill: none;"/>
        <path d="M1444.35,1224.09c-.74.27-1.47.54-2.23.79.76-.24,1.49-.52,2.23-.79Z" style="fill: none;"/>
        <path d="M1435.33,1226.63c-.21.04-.42.1-.63.14.21-.04.42-.1.63-.14Z" style="fill: none;"/>
        <path d="M1423.16,1228.16c-.08,0-.15.01-.23.02.08,0,.15-.01.23-.02Z" style="fill: none;"/>
        <path d="M1426.98,1227.89s-.04,0-.06,0c.02,0,.04,0,.06,0Z" style="fill: none;"/>
        <path d="M1419,1228.25s-.04,0-.06,0c.02,0,.04,0,.06,0Z" style="fill: none;"/>
        <path d="M1392.33,1223.42c.23.09.47.16.69.25-.23-.09-.47-.16-.69-.25h0Z" style="fill: none;"/>
        <path d="M1452.13,1220.58c-2.04,1.15-4.21,2.17-6.5,3.06,2.29-.89,4.47-1.91,6.5-3.06,3.74-2.11,6.71-4.49,8.91-7.02-2.2,2.54-5.17,4.91-8.91,7.02Z" style="fill: none;"/>
        <path d="M1392.33,1223.42h0s-.01,0-.02,0l10.83-9.71-.06-.08s-12.34,11.05-12.62,11.46l1.86-1.66s.01,0,.02,0Z" style="fill: #126739;"/>
        <path d="M1465.72,1203.22c-.26,3.16-1.52,6.29-3.78,9.24-.28.37-.58.73-.9,1.1-2.2,2.54-5.17,4.91-8.91,7.02-2.04,1.15-4.21,2.17-6.5,3.06-.42.16-.86.3-1.28.45-.74.27-1.47.54-2.23.79-.76.24-1.55.45-2.33.67-.44.12-.87.26-1.32.38-1.03.26-2.08.49-3.13.71-.21.04-.42.1-.63.14-2.52.5-5.11.87-7.73,1.12-.02,0-.04,0-.06,0-1.24.12-2.5.2-3.75.26-.08,0-.15.01-.23.02-1.31.06-2.62.08-3.93.08-.02,0-.04,0-.06,0-1.31,0-2.61-.04-3.91-.11-.03,0-.05,0-.08,0-1.23-.06-2.45-.16-3.67-.28-.1,0-.2-.01-.3-.02-1.24-.13-2.48-.29-3.7-.47-.07-.01-.15-.02-.22-.03-1.1-.17-2.18-.37-3.26-.59-.19-.04-.39-.07-.59-.11-1.21-.25-2.4-.53-3.58-.84-.06-.01-.11-.03-.17-.04-1.08-.29-2.15-.61-3.2-.95-.14-.05-.3-.08-.44-.13-.95-.31-1.87-.66-2.79-1.01-.23-.09-.47-.16-.69-.25l-1.87,1.66c18.28,8.11,44.82,7.43,61.67-2.07,9.64-5.44,14.17-12.67,13.59-19.79Z" style="fill: #126739;"/>
        <path d="M1392.31,1223.42l-1.86,1.66,1.87-1.66s-.01,0-.02,0Z" style="fill: #126739;"/>
        <path d="M1386.27,1185.87c18.19-10.26,47.67-10.26,65.86,0,8.54,4.82,13.07,11.05,13.59,17.36h0c.58-7.12-3.95-14.35-13.59-19.79-18.19-10.26-47.67-10.26-65.86,0-9.64,5.44-14.17,12.67-13.59,19.79.52-6.31,5.04-12.54,13.59-17.36Z" style="fill: #19a852;"/>
        <path d="M1392.33,1223.42c.23.09.47.16.69.25.92.35,1.84.7,2.79,1.01.14.05.29.08.44.13,1.05.34,2.11.66,3.2.95.06.01.11.03.17.04,1.18.31,2.37.59,3.58.84.19.04.39.07.59.11,1.08.21,2.16.42,3.26.59.07.01.15.02.22.03,1.22.18,2.46.34,3.7.47.1,0,.2.01.3.02,1.22.12,2.44.22,3.67.28.03,0,.05,0,.08,0,1.3.07,2.61.1,3.91.11.02,0,.04,0,.06,0,1.31,0,2.62-.02,3.93-.08.08,0,.15-.01.23-.02,1.25-.06,2.51-.14,3.75-.26.02,0,.04,0,.06,0,2.62-.25,5.2-.62,7.73-1.12.21-.04.42-.1.63-.14,1.05-.22,2.1-.45,3.13-.71.45-.11.88-.25,1.32-.38.78-.22,1.57-.42,2.33-.67.76-.24,1.49-.52,2.23-.79.42-.15.86-.29,1.28-.45,2.29-.89,4.47-1.91,6.5-3.06,3.74-2.11,6.71-4.49,8.91-7.02.31-.36.61-.73.9-1.1,2.26-2.95,3.53-6.08,3.78-9.24-.52-6.31-5.04-12.54-13.59-17.36-18.19-10.26-47.67-10.26-65.86,0-8.54,4.82-13.07,11.05-13.59,17.36.35,4.23,2.49,8.41,6.44,12.17l27.61-24.77,10.13,10.78-13.72,12.31.07.1-10.87,9.62Z" style="fill: #19a852;"/>
        <path d="M1392.33,1223.42l10.87-9.62-.07-.1-10.83,9.71s.01,0,.02,0Z" style="fill: #19a852;"/>
        <path d="M1445.63,1223.64c-.42.16-.86.3-1.28.45.42-.15.86-.29,1.28-.45Z" style="fill: #19a852;"/>
        <path d="M1442.12,1224.87c-.76.24-1.55.45-2.33.67.78-.22,1.57-.42,2.33-.67Z" style="fill: #19a852;"/>
        <path d="M1434.7,1226.77c-2.52.5-5.11.87-7.73,1.12,2.62-.25,5.2-.62,7.73-1.12Z" style="fill: #19a852;"/>
        <path d="M1438.47,1225.92c-1.03.26-2.08.49-3.13.71,1.05-.22,2.1-.45,3.13-.71Z" style="fill: #19a852;"/>
        <path d="M1426.91,1227.9c-1.24.12-2.5.2-3.75.26,1.25-.06,2.51-.14,3.75-.26Z" style="fill: #19a852;"/>
        <path d="M1410.97,1227.84c-1.24-.13-2.48-.29-3.7-.47,1.22.18,2.46.34,3.7.47Z" style="fill: #19a852;"/>
        <path d="M1422.94,1228.17c-1.31.06-2.62.08-3.93.08,1.31,0,2.62-.02,3.93-.08Z" style="fill: #19a852;"/>
        <path d="M1403.2,1226.65c-1.21-.25-2.4-.53-3.58-.84,1.18.31,2.37.59,3.58.84Z" style="fill: #19a852;"/>
        <path d="M1395.82,1224.69c-.95-.31-1.87-.66-2.79-1.01.92.35,1.84.7,2.79,1.01Z" style="fill: #19a852;"/>
        <path d="M1461.93,1212.46c2.26-2.95,3.53-6.08,3.78-9.24h0c-.26,3.16-1.52,6.29-3.78,9.24Z" style="fill: #19a852;"/>
        <path d="M1407.05,1227.34c-1.1-.17-2.18-.37-3.26-.59,1.08.21,2.16.42,3.26.59Z" style="fill: #19a852;"/>
        <path d="M1399.45,1225.77c-1.08-.29-2.15-.61-3.2-.95,1.05.34,2.11.66,3.2.95Z" style="fill: #19a852;"/>
        <path d="M1418.94,1228.25c-1.31,0-2.61-.04-3.91-.11,1.3.07,2.61.1,3.91.11Z" style="fill: #19a852;"/>
        <path d="M1414.95,1228.14c-1.23-.06-2.45-.16-3.67-.28,1.22.12,2.44.22,3.67.28Z" style="fill: #19a852;"/>
      </g>
      <g>
        <polygon points="1388.89 1199.28 1391.92 1196.06 1388.89 1193.1 1388.89 1199.28" style="fill: #e1d7ce;"/>
        <g>
          <polygon points="1449.51 1199.28 1449.51 1193.1 1446.12 1193.1 1449.51 1199.28" style="fill: #e1d7ce;"/>
          <path d="M1440.63,1187.19c-11.84-6.68-31.03-6.68-42.86,0-11.84,6.68-11.84,17.5,0,24.18,11.84,6.68,31.03,6.68,42.86,0,11.84-6.68,11.84-17.5,0-24.18Z" style="fill: #e1d7ce;"/>
          <path d="M1440.63,1181.01c-11.84-6.67-31.02-6.67-42.86,0-5.92,3.34-8.87,7.71-8.87,12.09,0,3.36,1.75,6.73,5.26,9.62,1.05.87,2.25,1.69,3.62,2.46,11.84,6.67,31.03,6.67,42.86,0,1.35-.76,2.55-1.57,3.59-2.43,8.1-6.66,6.9-15.83-3.59-21.74Z" style="fill: #e1d7ce;"/>
          <path d="M1439.04,1184.38c-10.96-6.18-28.73-6.18-39.69,0-5.48,3.09-8.22,7.14-8.22,11.2,0,2.46,1.01,4.91,3.02,7.15,1.05.87,2.25,1.69,3.62,2.46,11.84,6.67,31.03,6.67,42.86,0,1.35-.76,2.55-1.57,3.59-2.43,5.37-5.95,3.65-13.41-5.18-18.38Z" style="fill: #17355c;"/>
          <path d="M1428.24,1190.14c-5-2.82-13.09-2.82-18.09,0-2.5,1.41-3.75,3.25-3.75,5.1,0,1.12.46,2.24,1.38,3.26.48.4,1.03.77,1.65,1.12,5.4,3.04,14.14,3.04,19.53,0,.62-.35,1.16-.72,1.64-1.11,2.45-2.71,1.66-6.11-2.36-8.38Z" style="fill: #f8f1e3;"/>
          <path d="M1440.63,1181.01c-5.92-3.34-13.68-5.01-21.43-5.01-7.76,0-15.51,1.67-21.43,5.01-5.92,3.34-8.87,7.71-8.87,12.09,0,3.36,1.75,6.73,5.26,9.62,1.05.87,2.25,1.69,3.62,2.46,5.92,3.34,13.68,5.01,21.43,5.01,7.76,0,15.51-1.67,21.43-5.01,1.35-.76,2.55-1.57,3.59-2.43,8.1-6.66,6.9-15.83-3.59-21.74ZM1443.41,1201.81c-1,.82-2.15,1.6-3.41,2.31-5.53,3.12-12.92,4.84-20.8,4.84-7.88,0-15.27-1.72-20.8-4.84-1.28-.72-2.43-1.51-3.43-2.34-3.15-2.59-4.81-5.59-4.81-8.68,0-4.11,2.93-8.02,8.24-11.02,5.54-3.12,12.92-4.84,20.8-4.84,7.88,0,15.26,1.72,20.8,4.84,4.95,2.79,7.87,6.44,8.21,10.26.3,3.36-1.36,6.64-4.81,9.47Z" style="fill: #f8f1e3;"/>
          <g>
            <path d="M1422.16,1191.93c-1.64-.92-4.29-.92-5.93,0-1.64.92-1.64,2.42,0,3.34,1.64.92,4.29.92,5.93,0,1.64-.92,1.64-2.42,0-3.34Z" style="fill: #e1d7ce;"/>
            <polygon points="1415.01 1193.6 1423.39 1193.6 1423.39 1184.13 1415.01 1184.19 1415.01 1193.6" style="fill: #e1d7ce;"/>
            <path d="M1422.16,1182.45c-1.64-.92-4.29-.92-5.93,0-1.64.92-1.64,2.42,0,3.34,1.64.92,4.29.92,5.93,0,1.64-.92,1.64-2.42,0-3.34Z" style="fill: #f8f1e3;"/>
          </g>
          <g>
            <path d="M1420.94,1182.79c-.96-.54-2.52-.54-3.48,0-.96.54-.96,1.42,0,1.96.96.54,2.52.54,3.48,0,.96-.54.96-1.42,0-1.96Z" style="fill: #e1d7ce;"/>
            <polygon points="1416.74 1183.77 1421.66 1183.77 1421.66 1173.24 1416.74 1173.31 1416.74 1183.77" style="fill: #e1d7ce;"/>
            <path d="M1420.94,1172.26c-.96-.54-2.52-.54-3.48,0-.96.54-.96,1.42,0,1.96.96.54,2.52.54,3.48,0,.96-.54.96-1.42,0-1.96Z" style="fill: #f8f1e3;"/>
          </g>
        </g>
      </g>
    </g>
    <line x1="1423.39" y1="1237.94" x2="1423.39" y2="1270.71" style="fill: none; stroke: #e6e3d2; stroke-miterlimit: 10; stroke-width: .75px;"/>
  </g>
  <path d="M755.17,577.46h178.61v52.85s14.48,0,14.48,0v39.64h-16.08v-11.88s-44.59,0-44.59,0v11.88h-140.27s-1.7-82.98-1.7-82.98c-.11-5.22,4.21-9.51,9.57-9.51Z" style="fill: #89cae4;"/>
  <path d="M755.17,1055.92h178.61s0-52.85,0-52.85h14.48s0-39.64,0-39.64h-16.08s0,11.88,0,11.88h-44.59v-11.88s-140.27,0-140.27,0l-1.7,82.98c-.11,5.22,4.21,9.51,9.57,9.51Z" style="fill: #89cae4;"/>
  <polygon points="746.42 765.27 887.58 765.27 887.58 753.74 932.17 753.74 932.17 765.27 948.25 765.27 948.25 724.45 948.25 723.37 948.25 675.13 932.17 675.13 932.17 686.67 887.58 686.67 887.58 675.13 746.42 675.13 746.42 765.27" style="fill: #89cae4;"/>
  <polygon points="746.42 861.76 887.58 861.76 887.58 850.23 932.17 850.23 932.17 861.76 948.25 861.76 948.25 820.94 948.25 819.86 948.25 771.63 932.17 771.63 932.17 783.16 887.58 783.16 887.58 771.63 746.42 771.63 746.42 861.76" style="fill: #89cae4;"/>
  <polygon points="746.42 958.25 887.58 958.25 887.58 946.72 932.17 946.72 932.17 958.25 948.25 958.25 948.25 917.43 948.25 916.35 948.25 868.12 932.17 868.12 932.17 879.65 887.58 879.65 887.58 868.12 746.42 868.12 746.42 958.25" style="fill: #89cae4;"/>
  <path d="M2079.48,577.46h-178.61s0,52.85,0,52.85h-14.48s0,39.64,0,39.64h16.08s0-11.88,0-11.88h44.59v11.88s140.27,0,140.27,0l1.7-82.98c.11-5.22-4.21-9.51-9.57-9.51Z" style="fill: #fab61b;"/>
  <path d="M2079.48,1055.92h-178.61v-52.85s-14.48,0-14.48,0v-39.64h16.08v11.88s44.59,0,44.59,0v-11.88h140.27s1.7,82.98,1.7,82.98c.11,5.22-4.21,9.51-9.57,9.51Z" style="fill: #fab61b;"/>
  <polygon points="2088.23 765.27 1947.07 765.27 1947.07 753.74 1902.48 753.74 1902.48 765.27 1886.39 765.27 1886.39 724.45 1886.39 723.37 1886.39 675.13 1902.48 675.13 1902.48 686.67 1947.07 686.67 1947.07 675.13 2088.23 675.13 2088.23 765.27" style="fill: #fab61b;"/>
  <polygon points="2088.23 861.76 1947.07 861.76 1947.07 850.23 1902.48 850.23 1902.48 861.76 1886.39 861.76 1886.39 820.94 1886.39 819.86 1886.39 771.63 1902.48 771.63 1902.48 783.16 1947.07 783.16 1947.07 771.63 2088.23 771.63 2088.23 861.76" style="fill: #fab61b;"/>
  <polygon points="2088.23 958.25 1947.07 958.25 1947.07 946.72 1902.48 946.72 1902.48 958.25 1886.39 958.25 1886.39 917.43 1886.39 916.35 1886.39 868.12 1902.48 868.12 1902.48 879.65 1947.07 879.65 1947.07 868.12 2088.23 868.12 2088.23 958.25" style="fill: #fab61b;"/>
  <path d="M966.5,697.53c-3.27,0-6.33-1.98-7.21-5.04-.16-.54-.24-1.06-.23-1.51-2.96-43.58.05-84.41,6.52-124.16.75-4.59,6.07-7.11,10.44-5.23.44.19.88.39,1.34.59,18.21,8.05,48.35,29.29,66.79,40.71l45.52,28.16c1.01.62,1.85,1.46,2.45,2.46,1.04,1.74,2.76,3.91,2.76,4.57v48.08c0,6.26-5.26,11.38-11.68,11.38h-116.71Z" style="fill: #89cae4;"/>
  <path d="M1126.56,612.88l-11.38-.15c-2.29-.03-4.37-1.27-5.44-3.24l-66.85-123.04c-1.56-2.87-.56-6.46,2.32-8.09,3.13-1.77,7.06-3.35,8.96-4.11,17.87-7.1,50.15-10.94,69.35-9.4,2.78.22,9.38,1.14,9.38,4.09v137.84c0,3.4-2.85,6.14-6.34,6.09Z" style="fill: #19a852;"/>
  <path d="M1036.37,488.62l66.26,118.24c2.75,9.21-8.9,20.79-17.82,14.61l-106.57-65.42-3.64-2.25c-1.35-.84-1.98-2.42-1.59-3.93,3.69-14.33,41.09-58.31,58.71-63.23,1.82-.51,3.75.37,4.65,1.99Z" style="fill: #19a852;"/>
  <path d="M966.5,935.86c-3.27,0-6.33,1.98-7.21,5.04-.16.54-.24,1.06-.23,1.51-2.96,43.58.05,84.41,6.52,124.16.75,4.59,6.07,7.11,10.44,5.23.44-.19.88-.39,1.34-.59,18.21-8.05,48.35-29.29,66.79-40.71l45.52-28.16c1.01-.62,1.85-1.46,2.45-2.46,1.04-1.74,2.76-3.91,2.76-4.57v-48.08c0-6.26-5.26-11.38-11.68-11.38h-116.71Z" style="fill: #89cae4;"/>
  <path d="M1126.56,1020.51l-11.38.15c-2.29.03-4.37,1.27-5.44,3.24l-66.85,123.04c-1.56,2.87-.56,6.46,2.32,8.09,3.13,1.77,7.06,3.35,8.96,4.11,17.87,7.1,50.15,10.94,69.35,9.4,2.78-.22,9.38-1.14,9.38-4.09v-137.84c0-3.4-2.85-6.14-6.34-6.09Z" style="fill: #e3666b;"/>
  <path d="M1036.37,1144.76l66.26-118.24c2.75-9.21-8.9-20.79-17.82-14.61l-106.57,65.42-3.64,2.25c-1.35.84-1.98,2.42-1.59,3.93,3.69,14.33,41.09,58.31,58.71,63.23,1.82.51,3.75-.37,4.65-1.99Z" style="fill: #e6e3d2;"/>
  <path d="M1712.91,612.88l11.38-.15c2.29-.03,4.37-1.27,5.44-3.24l66.85-123.04c1.56-2.87.56-6.46-2.32-8.09-3.13-1.77-7.06-3.35-8.96-4.11-17.87-7.1-50.15-10.94-69.35-9.4-2.78.22-9.38,1.14-9.38,4.09v137.84c0,3.4,2.85,6.14,6.34,6.09Z" style="fill: #19a852;"/>
  <path d="M1800.75,492.82l-63.55,113.41c-.23.42-.26.92-.53,1.32-5.3,7.82.8,15.54,9.49,9.52l115.08-61.02h0c3.87-2.4,5.22-7.23,3.19-11.24-7.88-15.63-33.98-45.92-50.83-55.58-4.51-2.59-10.34-.88-12.85,3.6Z" style="fill: #19a852;"/>
  <path d="M1877.03,628.62c.07,3.04-2.58,5.49-5.7,5.49h-122.73c-3.74,0-6.47-3.45-5.51-6.98h0c.42-1.54,1.49-2.82,2.95-3.53,39.34-19.15,76.67-41.11,117.05-58.32,3.24-1.38,9.17-.29,10.11,5.75l3.83,57.59Z" style="fill: #19a852;"/>
  <path d="M1712.91,1020.51l11.38.15c2.29.03,4.37,1.27,5.44,3.24l66.85,123.04c1.56,2.87.56,6.46-2.32,8.09-3.13,1.77-7.06,3.35-8.96,4.11-17.87,7.1-50.15,10.94-69.35,9.4-2.78-.22-9.38-1.14-9.38-4.09v-137.84c0-3.4,2.85-6.14,6.34-6.09Z" style="fill: #e3666b;"/>
  <path d="M1800.75,1140.56l-63.55-113.41c-.23-.42-.26-.92-.53-1.32-5.3-7.82.8-15.54,9.49-9.52l115.08,61.02h0c3.87,2.4,5.22,7.23,3.19,11.24-7.88,15.63-33.98,45.92-50.83,55.58-4.51,2.59-10.34.88-12.85-3.6Z" style="fill: #e3666b;"/>
  <path d="M1877.03,1004.77c.07-3.04-2.58-5.49-5.7-5.49h-122.73c-3.74,0-6.47,3.45-5.51,6.98h0c.42,1.54,1.49,2.82,2.95,3.53,39.34,19.15,76.67,41.11,117.05,58.32,3.24,1.38,9.17.29,10.11-5.75l3.83-57.59Z" style="fill: #e3666b;"/>
  <path d="M1182.98,528.4h-41.07c-.62,0-1.12-.5-1.12-1.12v-61.18c0-.62.5-1.12,1.12-1.12h41.07c.62,0,1.12.5,1.12,1.12v61.18c0,.62-.5,1.12-1.12,1.12ZM1255.74,527.28v-61.18c0-.62-.5-1.12-1.12-1.12h-67.26c-.62,0-1.12.5-1.12,1.12v61.18c0,.62.5,1.12,1.12,1.12h67.26c.62,0,1.12-.5,1.12-1.12ZM1322.5,527.28v-61.18c0-.62-.5-1.12-1.12-1.12h-61.85c-.62,0-1.12.5-1.12,1.12v61.18c0,.62.5,1.12,1.12,1.12h61.85c.62,0,1.12-.5,1.12-1.12ZM1413.45,527.28v-61.18c0-.62-.5-1.12-1.12-1.12h-83.3c-.62,0-1.12.5-1.12,1.12v61.18c0,.62.5,1.12,1.12,1.12h83.3c.62,0,1.12-.5,1.12-1.12Z" style="fill: #19a852;"/>
  <path d="M1654.47,527.28v-61.18c0-.62.5-1.12,1.12-1.12h42.77c.62,0,1.12.5,1.12,1.12v61.18c0,.62-.5,1.12-1.12,1.12h-42.77c-.62,0-1.12-.5-1.12-1.12ZM1581.15,528.4h69.99c.62,0,1.12-.5,1.12-1.12v-61.18c0-.62-.5-1.12-1.12-1.12h-69.99c-.62,0-1.12.5-1.12,1.12v61.18c0,.62.5,1.12,1.12,1.12ZM1511.76,528.4h64.36c.62,0,1.12-.5,1.12-1.12v-61.18c0-.62-.5-1.12-1.12-1.12h-64.36c-.62,0-1.12.5-1.12,1.12v61.18c0,.62.5,1.12,1.12,1.12ZM1417.25,528.4h86.65c.62,0,1.12-.5,1.12-1.12v-61.18c0-.62-.5-1.12-1.12-1.12h-86.65c-.62,0-1.12.5-1.12,1.12v61.18c0,.62.5,1.12,1.12,1.12Z" style="fill: #19a852;"/>
  <rect x="1140.79" y="533.69" width="114.95" height="79.28" rx="2.88" ry="2.88" style="fill: #19a852;"/>
  <rect x="1258.41" y="533.69" width="154.87" height="79.28" rx="2.88" ry="2.88" style="fill: #19a852;"/>
  <rect x="1581.08" y="533.69" width="118.4" height="79.28" rx="2.88" ry="2.88" transform="translate(3280.56 1146.65) rotate(-180)" style="fill: #19a852;"/>
  <rect x="1418.8" y="533.69" width="159.52" height="79.28" rx="2.88" ry="2.88" transform="translate(2997.12 1146.65) rotate(-180)" style="fill: #19a852;"/>
  <rect x="958.24" y="702.82" width="136.65" height="72.02" rx="3.2" ry="3.2" style="fill: #89cae4;"/>
  <rect x="1740.74" y="640.27" width="136.65" height="65.28" rx="3.2" ry="3.2" style="fill: #fab61b;"/>
  <rect x="1740.74" y="711.14" width="136.65" height="65.28" rx="3.2" ry="3.2" style="fill: #fab61b;"/>
  <rect x="1740.74" y="782.01" width="136.65" height="65.28" rx="3.2" ry="3.2" style="fill: #fab61b;"/>
  <rect x="1740.74" y="852.87" width="136.65" height="65.28" rx="3.2" ry="3.2" style="fill: #fab61b;"/>
  <rect x="1740.74" y="923.74" width="136.65" height="65.28" rx="3.2" ry="3.2" style="fill: #fab61b;"/>
  <rect x="958.24" y="780.44" width="136.65" height="72.02" rx="3.2" ry="3.2" style="fill: #89cae4;"/>
  <rect x="958.24" y="858.06" width="136.65" height="72.02" rx="3.2" ry="3.2" style="fill: #89cae4;"/>
  <rect x="1138.34" y="1022.58" width="114.05" height="75.35" rx="3.25" ry="3.25" style="fill: #e3666b;"/>
  <path d="M1401.75,1022.58h-135.09c-4.88,0-8.84,3.85-8.84,8.61v58.13c0,4.75,3.96,8.61,8.84,8.61h148.68s0-19.86,0-19.86h-13.59v-55.49Z" style="fill: #ed6a6f;"/>
  <path d="M1176.42,1167.92h-34.92c-1.75,0-3.16-1.42-3.16-3.16v-59.74c0-1.75,1.42-3.16,3.16-3.16h34.92c1.75,0,3.16,1.42,3.16,3.16v59.74c0,1.75-1.42,3.16-3.16,3.16ZM1301.8,1164.76v-59.74c0-1.75-1.42-3.16-3.16-3.16h-37.65c-1.75,0-3.16,1.42-3.16,3.16v59.74c0,1.75,1.42,3.16,3.16,3.16h37.65c1.75,0,3.16-1.42,3.16-3.16ZM1359.02,1131.7v-27.61c0-1.23-1-2.23-2.23-2.23h-48.34c-1.23,0-2.23,1-2.23,2.23v27.61c0,1.23,1,2.23,2.23,2.23h48.34c1.23,0,2.23-1,2.23-2.23ZM1416.24,1131.7v-27.61c0-1.23-1-2.23-2.23-2.23h-48.34c-1.23,0-2.23,1-2.23,2.23v27.61c0,1.23,1,2.23,2.23,2.23h48.34c1.23,0,2.23-1,2.23-2.23ZM1252.62,1164.76v-59.74c0-1.75-1.42-3.16-3.16-3.16h-61.49c-1.75,0-3.16,1.42-3.16,3.16v59.74c0,1.75,1.42,3.16,3.16,3.16h61.49c1.75,0,3.16-1.42,3.16-3.16Z" style="fill: #e3666b;"/>
  <rect x="1586.3" y="1022.58" width="114.05" height="75.35" rx="3.25" ry="3.25" transform="translate(3286.65 2120.5) rotate(-180)" style="fill: #e3666b;"/>
  <path d="M1436.94,1022.58h135.09c4.88,0,8.84,3.85,8.84,8.61v58.13c0,4.75-3.96,8.61-8.84,8.61h-148.68v-19.86h13.59s0-55.49,0-55.49Z" style="fill: #845592;"/>
  <rect x="1536.89" y="1101.86" width="43.98" height="66.07" rx="3.16" ry="3.16" transform="translate(3117.76 2269.78) rotate(-180)" style="fill: #e3666b;"/>
  <path d="M1659.1,1164.76v-59.74c0-1.75,1.42-3.16,3.16-3.16h34.92c1.75,0,3.16,1.42,3.16,3.16v59.74c0,1.75-1.42,3.16-3.16,3.16h-34.92c-1.75,0-3.16-1.42-3.16-3.16ZM1481.9,1133.92h48.34c1.23,0,2.23-1,2.23-2.23v-27.61c0-1.23-1-2.23-2.23-2.23h-48.34c-1.23,0-2.23,1-2.23,2.23v27.61c0,1.23,1,2.23,2.23,2.23ZM1424.68,1133.92h48.34c1.23,0,2.23-1,2.23-2.23v-27.61c0-1.23-1-2.23-2.23-2.23h-48.34c-1.23,0-2.23,1-2.23,2.23v27.61c0,1.23,1,2.23,2.23,2.23ZM1589.24,1167.92h61.49c1.75,0,3.16-1.42,3.16-3.16v-59.74c0-1.75-1.42-3.16-3.16-3.16h-61.49c-1.75,0-3.16,1.42-3.16,3.16v59.74c0,1.75,1.42,3.16,3.16,3.16Z" style="fill: #e3666b;"/>
  <path d="M819.62,1035.9l-14.37-5.39v-3.75l14.37-5.39v3.28l-2.83,1v6.1l2.83,1v3.14ZM814.28,1030.88v-4.35l-3.54,1.24c-.15.06-.34.12-.55.19-.22.07-.46.15-.72.23-.26.08-.53.16-.79.23-.26.07-.49.15-.7.21v.12c.27.07.58.16.93.27.36.11.7.22,1.03.33.33.11.6.2.81.27l3.54,1.24Z" style="fill: #17355c;"/>
  <path d="M819.62,1018.88h-14.37v-3.04h11.71v-7.06h2.66v10.1Z" style="fill: #17355c;"/>
  <path d="M819.62,1004.47h-11.75v4.49h-2.62v-12.06h2.62v4.51h11.75v3.06Z" style="fill: #17355c;"/>
  <path d="M819.62,997.17l-14.37-5.39v-3.75l14.37-5.39v3.28l-2.83,1v6.1l2.83,1v3.14ZM814.28,992.15v-4.35l-3.54,1.24c-.15.06-.34.12-.55.19-.22.07-.46.15-.72.23-.26.08-.53.16-.79.23-.26.07-.49.15-.7.21v.12c.27.07.58.16.93.27.36.11.7.22,1.03.33.33.11.6.2.81.27l3.54,1.24Z" style="fill: #17355c;"/>
  <path d="M855.79,1024.32l-29.77-11.16v-7.78l29.77-11.16v6.81l-5.86,2.07v12.64l5.86,2.07v6.51ZM844.72,1013.92v-9l-7.34,2.58c-.32.11-.7.25-1.15.4-.45.16-.95.32-1.5.49s-1.09.33-1.63.49c-.54.16-1.02.3-1.45.44v.25c.55.14,1.19.32,1.93.55.74.23,1.45.45,2.13.68.68.23,1.24.41,1.67.55l7.34,2.58Z" style="fill: #17355c;"/>
  <path d="M819.62,939.82l-14.37-5.39v-3.75l14.37-5.39v3.28l-2.83,1v6.1l2.83,1v3.14ZM814.28,934.8v-4.35l-3.54,1.24c-.15.06-.34.12-.55.19-.22.07-.46.15-.72.23-.26.08-.53.16-.79.23-.26.07-.49.15-.7.21v.12c.27.07.58.16.93.27.36.11.7.22,1.03.33.33.11.6.2.81.27l3.54,1.24Z" style="fill: #17355c;"/>
  <path d="M819.62,922.8h-14.37v-3.04h11.71v-7.06h2.66v10.1Z" style="fill: #17355c;"/>
  <path d="M819.62,908.39h-11.75v4.49h-2.62v-12.06h2.62v4.51h11.75v3.06Z" style="fill: #17355c;"/>
  <path d="M819.62,901.09l-14.37-5.39v-3.75l14.37-5.39v3.28l-2.83,1v6.1l2.83,1v3.14ZM814.28,896.07v-4.35l-3.54,1.24c-.15.06-.34.12-.55.19-.22.07-.46.15-.72.23-.26.08-.53.16-.79.23-.26.07-.49.15-.7.21v.12c.27.07.58.16.93.27.36.11.7.22,1.03.33.33.11.6.2.81.27l3.54,1.24Z" style="fill: #17355c;"/>
  <path d="M855.79,925.24h-29.77v-16.57c0-1.52.3-2.9.91-4.12.61-1.23,1.46-2.19,2.56-2.9,1.1-.7,2.39-1.06,3.86-1.06,1.19,0,2.24.21,3.17.63.93.42,1.69.99,2.3,1.71.61.72,1.06,1.53,1.34,2.43h.17c.23-1.07.67-2.02,1.3-2.85.64-.83,1.45-1.49,2.45-1.99,1-.49,2.18-.74,3.54-.74,1.79,0,3.3.4,4.51,1.2,1.22.8,2.13,1.87,2.73,3.19.61,1.33.91,2.8.91,4.44v16.61ZM838.04,918.94v-8.37c0-.76-.15-1.4-.46-1.92-.3-.52-.71-.91-1.22-1.18-.51-.27-1.09-.4-1.76-.4-1.13,0-1.98.3-2.56.91-.58.61-.87,1.4-.87,2.39v8.58h6.86ZM850.49,918.94v-9.09c0-1.04-.3-1.89-.91-2.56-.61-.66-1.55-.99-2.82-.99-.75,0-1.4.14-1.95.42-.55.28-.98.7-1.28,1.27-.3.56-.46,1.28-.46,2.16v8.79h7.42Z" style="fill: #17355c;"/>
  <path d="M819.62,843.08l-14.37-5.39v-3.75l14.37-5.39v3.28l-2.83,1v6.1l2.83,1v3.14ZM814.28,838.06v-4.35l-3.54,1.24c-.15.06-.34.12-.55.19-.22.07-.46.15-.72.23-.26.08-.53.16-.79.23-.26.07-.49.15-.7.21v.12c.27.07.58.16.93.27.36.11.7.22,1.03.33.33.11.6.2.81.27l3.54,1.24Z" style="fill: #17355c;"/>
  <path d="M819.62,826.06h-14.37v-3.04h11.71v-7.06h2.66v10.1Z" style="fill: #17355c;"/>
  <path d="M819.62,811.66h-11.75v4.49h-2.62v-12.06h2.62v4.51h11.75v3.06Z" style="fill: #17355c;"/>
  <path d="M819.62,804.35l-14.37-5.39v-3.75l14.37-5.39v3.28l-2.83,1v6.1l2.83,1v3.14ZM814.28,799.33v-4.35l-3.54,1.24c-.15.06-.34.12-.55.19-.22.07-.46.15-.72.23-.26.08-.53.16-.79.23-.26.07-.49.15-.7.21v.12c.27.07.58.16.93.27.36.11.7.22,1.03.33.33.11.6.2.81.27l3.54,1.24Z" style="fill: #17355c;"/>
  <path d="M856.31,815.75c0,3.02-.54,5.59-1.63,7.74-1.08,2.14-2.77,3.77-5.05,4.88-2.29,1.11-5.19,1.67-8.72,1.67-5.21,0-9.08-1.25-11.61-3.74-2.53-2.49-3.8-6.01-3.8-10.55,0-2.48.43-4.71,1.3-6.68.87-1.97,2.17-3.53,3.9-4.67,1.74-1.14,3.92-1.71,6.55-1.71v6.34c-1.39,0-2.56.27-3.52.82-.95.55-1.68,1.33-2.19,2.33-.51,1-.76,2.16-.76,3.49,0,1.8.36,3.29,1.08,4.46.72,1.17,1.79,2.03,3.19,2.58,1.4.55,3.12.82,5.14.82h1.35c2.08,0,3.83-.28,5.23-.85,1.4-.56,2.46-1.42,3.17-2.56s1.06-2.61,1.06-4.42c0-1.41-.25-2.63-.74-3.68-.49-1.04-1.22-1.85-2.17-2.41-.95-.56-2.13-.85-3.52-.85v-6.09c2.63,0,4.82.56,6.55,1.67,1.74,1.11,3.03,2.66,3.88,4.63.85,1.97,1.28,4.23,1.28,6.76Z" style="fill: #17355c;"/>
  <path d="M819.62,748.73l-14.37-5.39v-3.75l14.37-5.39v3.28l-2.83,1v6.1l2.83,1v3.14ZM814.28,743.71v-4.35l-3.54,1.24c-.15.06-.34.12-.55.19-.22.07-.46.15-.72.23-.26.08-.53.16-.79.23-.26.07-.49.15-.7.21v.12c.27.07.58.16.93.27.36.11.7.22,1.03.33.33.11.6.2.81.27l3.54,1.24Z" style="fill: #17355c;"/>
  <path d="M819.62,731.71h-14.37v-3.04h11.71v-7.06h2.66v10.1Z" style="fill: #17355c;"/>
  <path d="M819.62,717.31h-11.75v4.49h-2.62v-12.06h2.62v4.51h11.75v3.06Z" style="fill: #17355c;"/>
  <path d="M819.62,710l-14.37-5.39v-3.75l14.37-5.39v3.29l-2.83,1v6.1l2.83,1v3.14ZM814.28,704.98v-4.35l-3.54,1.24c-.15.06-.34.12-.55.19-.22.07-.46.15-.72.23-.26.08-.53.16-.79.23-.26.07-.49.15-.7.21v.12c.27.07.58.16.93.27.36.11.7.22,1.03.33.33.11.6.2.81.27l3.54,1.24Z" style="fill: #17355c;"/>
  <path d="M855.79,734.51h-29.77v-11.84c0-3.02.54-5.58,1.61-7.69,1.07-2.11,2.7-3.74,4.88-4.88,2.18-1.14,4.98-1.71,8.4-1.71s6.18.57,8.38,1.71c2.2,1.14,3.83,2.77,4.9,4.88,1.07,2.11,1.61,4.68,1.61,7.69v11.84ZM850.45,728.21v-5.5c0-1.27-.19-2.4-.57-3.38-.38-.99-.93-1.8-1.67-2.45-.74-.65-1.66-1.14-2.78-1.48-1.11-.34-2.41-.51-3.88-.51h-1.3c-1.48,0-2.77.17-3.88.51-1.11.34-2.04.83-2.78,1.48-.74.65-1.3,1.47-1.69,2.45-.39.99-.59,2.11-.59,3.38v5.5h19.14Z" style="fill: #17355c;"/>
  <path d="M819.62,653.79l-14.37-5.39v-3.75l14.37-5.39v3.28l-2.83,1v6.1l2.83,1v3.14ZM814.28,648.77v-4.35l-3.54,1.25c-.15.05-.34.12-.55.19-.22.07-.46.15-.72.23-.26.08-.53.16-.79.23-.26.07-.49.15-.7.21v.12c.27.07.58.16.93.26.36.11.7.22,1.03.33.33.11.6.2.81.27l3.54,1.24Z" style="fill: #17355c;"/>
  <path d="M819.62,636.78h-14.37v-3.04h11.71v-7.06h2.66v10.1Z" style="fill: #17355c;"/>
  <path d="M819.62,622.37h-11.75v4.49h-2.62v-12.06h2.62v4.51h11.75v3.06Z" style="fill: #17355c;"/>
  <path d="M819.62,615.06l-14.37-5.39v-3.76l14.37-5.39v3.29l-2.83,1v6.1l2.83,1v3.14ZM814.28,610.04v-4.35l-3.54,1.25c-.15.05-.34.12-.55.19-.22.07-.46.15-.72.23-.26.08-.53.16-.79.23-.26.07-.49.15-.7.21v.12c.27.07.58.16.93.27.36.11.7.22,1.03.33.33.11.6.2.81.27l3.54,1.24Z" style="fill: #17355c;"/>
  <path d="M855.79,638.39h-29.77v-23.17h5.29v16.82h6.64v-14.88h5.25v14.88h7.25v-17.08h5.34v23.42Z" style="fill: #17355c;"/>
  <path d="M1983.33,651.33l-14.37-5.39v-3.75l14.37-5.39v3.28l-2.83,1v6.1l2.83,1v3.14ZM1977.99,646.31v-4.35l-3.54,1.25c-.15.05-.34.12-.55.19-.22.07-.46.15-.72.23-.26.08-.53.16-.79.23-.26.07-.49.15-.7.21v.12c.27.07.58.16.93.26.36.11.7.22,1.03.33.33.11.6.2.81.27l3.54,1.24Z" style="fill: #17355c;"/>
  <path d="M1983.33,634.31h-14.37v-3.04h11.71v-7.06h2.66v10.1Z" style="fill: #17355c;"/>
  <path d="M1983.33,619.9h-11.75v4.49h-2.62v-12.06h2.62v4.51h11.75v3.06Z" style="fill: #17355c;"/>
  <path d="M1983.33,612.6l-14.37-5.39v-3.76l14.37-5.39v3.29l-2.83,1v6.1l2.83,1v3.14ZM1977.99,607.58v-4.35l-3.54,1.25c-.15.05-.34.12-.55.19-.22.07-.46.15-.72.23-.26.08-.53.16-.79.23-.26.07-.49.15-.7.21v.12c.27.07.58.16.93.27.36.11.7.22,1.03.33.33.11.6.2.81.27l3.54,1.24Z" style="fill: #17355c;"/>
  <path d="M2019.49,639.75l-29.77-11.16v-7.78l29.77-11.16v6.81l-5.86,2.07v12.64l5.86,2.07v6.51ZM2008.43,629.35v-9l-7.34,2.58c-.32.11-.7.25-1.15.4-.45.16-.95.32-1.5.49-.55.17-1.09.33-1.63.49-.54.16-1.02.3-1.45.44v.25c.55.14,1.19.32,1.93.55.74.23,1.45.45,2.13.68.68.23,1.24.41,1.67.55l7.34,2.58Z" style="fill: #17355c;"/>
  <path d="M1026.63,571.22l9.97-25.24h6.95l9.97,25.24h-6.08l-1.85-4.97h-11.29l-1.85,4.97h-5.82ZM1035.92,561.84h8.04l-2.3-6.22c-.1-.27-.22-.59-.36-.98-.14-.38-.28-.8-.44-1.27s-.3-.93-.43-1.38c-.14-.45-.27-.86-.4-1.23h-.23c-.13.47-.29,1.01-.49,1.64-.2.63-.4,1.23-.6,1.8-.2.58-.37,1.05-.49,1.42l-2.3,6.22Z" style="fill: #fff;"/>
  <path d="M1807.31,1033.96l9.97-25.24h6.95l9.97,25.24h-6.08l-1.85-4.97h-11.29l-1.85,4.97h-5.82ZM1816.6,1024.58h8.04l-2.3-6.22c-.1-.27-.22-.59-.36-.98-.14-.38-.28-.8-.44-1.27-.15-.47-.3-.92-.43-1.38-.14-.45-.27-.86-.4-1.23h-.23c-.13.47-.29,1.01-.49,1.64-.2.63-.4,1.23-.6,1.8-.2.58-.37,1.05-.49,1.42l-2.3,6.22Z" style="fill: #fff;"/>
  <path d="M1786.54,1089.88v-25.24h14.81c1.36,0,2.59.26,3.68.77,1.1.51,1.96,1.24,2.59,2.17.63.93.94,2.02.94,3.27,0,1.01-.19,1.9-.57,2.69-.38.78-.89,1.44-1.53,1.95s-1.37.9-2.17,1.14v.15c.96.2,1.81.56,2.55,1.1.74.54,1.33,1.23,1.77,2.08.44.85.66,1.85.66,3,0,1.52-.36,2.8-1.08,3.83-.72,1.03-1.67,1.8-2.85,2.32-1.18.51-2.51.77-3.97.77h-14.84ZM1792.17,1074.83h7.48c.68,0,1.25-.13,1.72-.39.47-.26.82-.6,1.06-1.03.24-.43.36-.93.36-1.49,0-.96-.27-1.68-.81-2.17-.54-.49-1.25-.74-2.13-.74h-7.67v5.81ZM1792.17,1085.39h8.12c.93,0,1.69-.26,2.29-.77.59-.51.89-1.31.89-2.39,0-.64-.13-1.19-.38-1.66-.25-.47-.63-.83-1.13-1.08-.5-.26-1.15-.39-1.93-.39h-7.86v6.29Z" style="fill: #fff;"/>
  <path d="M1739.11,1128.76c-2.69,0-5-.46-6.91-1.38-1.91-.92-3.37-2.35-4.36-4.29-1-1.94-1.49-4.4-1.49-7.39,0-4.41,1.11-7.69,3.34-9.84,2.23-2.15,5.37-3.22,9.42-3.22,2.22,0,4.2.37,5.97,1.1s3.15,1.84,4.17,3.31c1.02,1.47,1.53,3.32,1.53,5.56h-5.67c0-1.18-.25-2.17-.74-2.98-.49-.81-1.18-1.43-2.08-1.86-.89-.43-1.93-.64-3.12-.64-1.61,0-2.94.31-3.98.92-1.05.61-1.81,1.51-2.3,2.7-.49,1.19-.74,2.64-.74,4.36v1.14c0,1.77.25,3.24.76,4.43.5,1.19,1.26,2.09,2.29,2.69,1.02.6,2.33.9,3.95.9,1.26,0,2.35-.21,3.29-.63.93-.42,1.65-1.03,2.15-1.84.5-.81.76-1.8.76-2.98h5.44c0,2.23-.5,4.08-1.49,5.55-.99,1.47-2.37,2.57-4.14,3.29-1.76.72-3.78,1.09-6.04,1.09Z" style="fill: #fff;"/>
  <path d="M1632.23,1071.25v-25.24h10.58c2.69,0,4.99.45,6.87,1.36,1.89.91,3.34,2.29,4.36,4.14,1.02,1.85,1.53,4.23,1.53,7.12s-.51,5.24-1.53,7.1c-1.02,1.86-2.47,3.25-4.36,4.16s-4.18,1.36-6.87,1.36h-10.58ZM1637.86,1066.72h4.91c1.13,0,2.14-.16,3.02-.48.88-.32,1.61-.79,2.19-1.42.58-.63,1.02-1.41,1.32-2.35.3-.94.45-2.04.45-3.29v-1.1c0-1.25-.15-2.35-.45-3.29-.3-.94-.74-1.73-1.32-2.35-.58-.63-1.31-1.1-2.19-1.44-.88-.33-1.89-.5-3.02-.5h-4.91v16.22Z" style="fill: #fff;"/>
  <path d="M1499.21,1071.25v-25.24h20.7v4.49h-15.03v5.63h13.29v4.45h-13.29v6.14h15.26v4.53h-20.92Z" style="fill: #fff;"/>
  <path d="M1318.42,1071.25v-25.24h19.11v4.49h-13.48v6.25h12.05v4.45h-12.05v10.04h-5.63Z" style="fill: #fff;"/>
  <path d="M1194.87,1071.69c-4.08,0-7.22-1.06-9.42-3.18-2.2-2.12-3.3-5.41-3.3-9.88,0-2.97.53-5.41,1.59-7.34,1.06-1.92,2.59-3.36,4.61-4.3,2.01-.94,4.43-1.42,7.25-1.42,1.69,0,3.27.18,4.76.55,1.49.37,2.8.93,3.95,1.69,1.15.76,2.04,1.71,2.68,2.85.64,1.14.96,2.5.96,4.07h-5.7c0-.76-.17-1.44-.51-2.02-.34-.59-.81-1.08-1.42-1.47-.6-.39-1.3-.69-2.08-.88-.78-.2-1.6-.29-2.45-.29-1.31,0-2.45.17-3.44.5-.98.33-1.79.83-2.43,1.51-.64.67-1.13,1.51-1.45,2.52-.33,1.01-.49,2.17-.49,3.5v1.1c0,1.84.28,3.35.83,4.53.55,1.18,1.39,2.05,2.49,2.63,1.11.58,2.48.86,4.12.86,1.36,0,2.56-.2,3.61-.61,1.04-.4,1.86-.99,2.45-1.75.59-.76.89-1.69.89-2.8v-.26h-7.74v-4.19h13.33v13.65h-3.7l-.49-2.72c-.76.71-1.57,1.3-2.44,1.77-.87.47-1.83.82-2.89,1.05-1.06.23-2.24.35-3.55.35Z" style="fill: #fff;"/>
  <path d="M1088.49,1129.35v-25.24h5.63v10.01h11.48v-10.01h5.63v25.24h-5.63v-10.6h-11.48v10.6h-5.63Z" style="fill: #fff;"/>
  <path d="M1031.42,1101.86v-25.24h5.63v25.24h-5.63Z" style="fill: #17355c;"/>
  <path d="M1788.65,571.22v-25.24h5.63v10.01h11.48v-10.01h5.63v25.24h-5.63v-10.6h-11.48v10.6h-5.63Z" style="fill: #fff;"/>
  <path d="M1821.62,625.44v-25.24h5.63v25.24h-5.63Z" style="fill: #fff;"/>
  <path d="M1094.12,545.91v-25.24h14.81c1.36,0,2.59.26,3.68.77,1.1.52,1.96,1.24,2.59,2.17.63.93.94,2.02.94,3.27,0,1.01-.19,1.9-.57,2.69-.38.79-.89,1.43-1.53,1.95-.64.51-1.37.9-2.17,1.14v.15c.96.2,1.81.56,2.55,1.1.74.54,1.33,1.23,1.77,2.08.44.85.66,1.85.66,3,0,1.52-.36,2.8-1.08,3.83-.72,1.03-1.67,1.8-2.85,2.32-1.18.52-2.51.77-3.97.77h-14.84ZM1099.74,530.86h7.48c.68,0,1.25-.13,1.72-.39.47-.26.82-.6,1.06-1.03.24-.43.36-.93.36-1.49,0-.96-.27-1.68-.81-2.17-.54-.49-1.25-.74-2.13-.74h-7.67v5.81ZM1099.74,541.42h8.12c.93,0,1.69-.26,2.29-.77.59-.51.89-1.31.89-2.39,0-.64-.13-1.19-.38-1.66-.25-.47-.63-.83-1.13-1.09-.5-.26-1.15-.39-1.93-.39h-7.86v6.29Z" style="fill: #fff;"/>
  <path d="M1737.61,546.35c-4.08,0-7.22-1.06-9.42-3.18-2.2-2.12-3.3-5.41-3.3-9.88,0-2.97.53-5.41,1.59-7.34,1.06-1.93,2.59-3.36,4.61-4.3,2.01-.94,4.43-1.42,7.25-1.42,1.69,0,3.27.18,4.76.55s2.8.93,3.95,1.69c1.15.76,2.04,1.71,2.68,2.85.64,1.14.96,2.5.96,4.07h-5.7c0-.76-.17-1.43-.51-2.02-.34-.59-.81-1.08-1.42-1.47-.6-.39-1.3-.69-2.08-.88-.78-.2-1.6-.29-2.45-.29-1.31,0-2.45.17-3.44.5-.98.33-1.79.83-2.43,1.51-.64.67-1.13,1.51-1.45,2.52-.33,1.01-.49,2.17-.49,3.5v1.1c0,1.84.28,3.35.83,4.53s1.39,2.05,2.49,2.63c1.11.58,2.48.86,4.12.86,1.36,0,2.56-.2,3.61-.61s1.86-.99,2.45-1.75c.59-.76.89-1.69.89-2.8v-.26h-7.74v-4.19h13.33v13.65h-3.7l-.49-2.72c-.76.71-1.57,1.3-2.44,1.77-.87.47-1.83.82-2.89,1.05-1.06.23-2.24.35-3.55.35Z" style="fill: #fff;"/>
  <path d="M1198.88,586.11c-2.69,0-5-.46-6.91-1.38-1.91-.92-3.37-2.35-4.36-4.29-1-1.94-1.49-4.4-1.49-7.39,0-4.41,1.11-7.69,3.34-9.84,2.23-2.15,5.37-3.22,9.42-3.22,2.22,0,4.2.37,5.97,1.1,1.76.74,3.15,1.84,4.17,3.31,1.02,1.47,1.53,3.32,1.53,5.56h-5.67c0-1.18-.25-2.17-.74-2.98-.49-.81-1.18-1.43-2.08-1.86-.89-.43-1.93-.64-3.12-.64-1.61,0-2.94.31-3.98.92-1.05.61-1.81,1.51-2.3,2.7-.49,1.19-.74,2.64-.74,4.36v1.14c0,1.77.25,3.24.76,4.43.5,1.19,1.26,2.08,2.29,2.69,1.02.6,2.33.9,3.95.9,1.26,0,2.35-.21,3.29-.63.93-.42,1.65-1.03,2.15-1.84.5-.81.76-1.8.76-2.98h5.44c0,2.23-.5,4.08-1.49,5.56s-2.37,2.57-4.14,3.29c-1.76.72-3.78,1.09-6.04,1.09Z" style="fill: #fff;"/>
  <path d="M1328.39,585.67v-25.24h10.58c2.69,0,4.99.45,6.87,1.36,1.89.91,3.34,2.29,4.36,4.14,1.02,1.85,1.53,4.23,1.53,7.12s-.51,5.24-1.53,7.1c-1.02,1.86-2.47,3.25-4.36,4.16-1.89.91-4.18,1.36-6.87,1.36h-10.58ZM1334.01,581.15h4.91c1.13,0,2.14-.16,3.02-.48.88-.32,1.61-.79,2.19-1.42.58-.63,1.02-1.41,1.32-2.35.3-.94.45-2.04.45-3.29v-1.1c0-1.25-.15-2.35-.45-3.29-.3-.94-.74-1.73-1.32-2.35-.58-.63-1.31-1.1-2.19-1.43-.88-.33-1.89-.5-3.02-.5h-4.91v16.22Z" style="fill: #fff;"/>
  <path d="M1488.53,585.67v-25.24h20.7v4.49h-15.03v5.63h13.29v4.45h-13.29v6.14h15.26v4.53h-20.92Z" style="fill: #fff;"/>
  <path d="M1631.4,585.67v-25.24h19.11v4.49h-13.48v6.25h12.05v4.45h-12.05v10.04h-5.63Z" style="fill: #fff;"/>
  <path d="M1983.33,745.72l-14.37-5.39v-3.75l14.37-5.39v3.28l-2.83,1v6.1l2.83,1v3.14ZM1977.99,740.7v-4.35l-3.54,1.24c-.15.06-.34.12-.55.19-.22.07-.46.15-.72.23-.26.08-.53.16-.79.23-.26.07-.49.15-.7.21v.12c.27.07.58.16.93.27.36.11.7.22,1.03.33.33.11.6.2.81.27l3.54,1.24Z" style="fill: #17355c;"/>
  <path d="M1983.33,728.7h-14.37v-3.04h11.71v-7.06h2.66v10.1Z" style="fill: #17355c;"/>
  <path d="M1983.33,714.3h-11.75v4.49h-2.62v-12.06h2.62v4.51h11.75v3.06Z" style="fill: #17355c;"/>
  <path d="M1983.33,706.99l-14.37-5.39v-3.75l14.37-5.39v3.29l-2.83,1v6.1l2.83,1v3.14ZM1977.99,701.97v-4.35l-3.54,1.24c-.15.06-.34.12-.55.19-.22.07-.46.15-.72.23-.26.08-.53.16-.79.23-.26.07-.49.15-.7.21v.12c.27.07.58.16.93.27.36.11.7.22,1.03.33.33.11.6.2.81.27l3.54,1.24Z" style="fill: #17355c;"/>
  <path d="M2019.49,731.14h-29.77v-16.57c0-1.52.3-2.9.91-4.12.61-1.23,1.46-2.19,2.56-2.9,1.1-.7,2.39-1.06,3.86-1.06,1.19,0,2.24.21,3.17.63.93.42,1.69.99,2.3,1.71.61.72,1.06,1.53,1.34,2.43h.17c.23-1.07.67-2.02,1.3-2.85.64-.83,1.45-1.49,2.45-1.99,1-.49,2.18-.74,3.54-.74,1.79,0,3.3.4,4.51,1.2,1.22.8,2.13,1.87,2.73,3.19s.91,2.8.91,4.44v16.61ZM2001.74,724.84v-8.37c0-.76-.15-1.4-.46-1.92-.3-.52-.71-.91-1.22-1.18-.51-.27-1.09-.4-1.76-.4-1.13,0-1.98.3-2.56.91-.58.61-.87,1.4-.87,2.39v8.58h6.86ZM2014.2,724.84v-9.09c0-1.04-.3-1.89-.91-2.56-.61-.66-1.55-.99-2.82-.99-.75,0-1.4.14-1.95.42-.55.28-.98.7-1.28,1.27-.3.56-.46,1.28-.46,2.16v8.79h7.42Z" style="fill: #17355c;"/>
  <path d="M1983.33,842.45l-14.37-5.39v-3.75l14.37-5.39v3.28l-2.83,1v6.1l2.83,1v3.14ZM1977.99,837.43v-4.35l-3.54,1.24c-.15.06-.34.12-.55.19-.22.07-.46.15-.72.23-.26.08-.53.16-.79.23-.26.07-.49.15-.7.21v.12c.27.07.58.16.93.27.36.11.7.22,1.03.33.33.11.6.2.81.27l3.54,1.24Z" style="fill: #17355c;"/>
  <path d="M1983.33,825.44h-14.37v-3.04h11.71v-7.06h2.66v10.1Z" style="fill: #17355c;"/>
  <path d="M1983.33,811.03h-11.75v4.49h-2.62v-12.06h2.62v4.51h11.75v3.06Z" style="fill: #17355c;"/>
  <path d="M1983.33,803.72l-14.37-5.39v-3.75l14.37-5.39v3.28l-2.83,1v6.1l2.83,1v3.14ZM1977.99,798.7v-4.35l-3.54,1.24c-.15.06-.34.12-.55.19-.22.07-.46.15-.72.23-.26.08-.53.16-.79.23-.26.07-.49.15-.7.21v.12c.27.07.58.16.93.27.36.11.7.22,1.03.33.33.11.6.2.81.27l3.54,1.24Z" style="fill: #17355c;"/>
  <path d="M2020.01,815.13c0,3.02-.54,5.59-1.63,7.74-1.08,2.14-2.77,3.77-5.05,4.88-2.29,1.11-5.19,1.67-8.72,1.67-5.21,0-9.08-1.25-11.61-3.74-2.53-2.49-3.8-6.01-3.8-10.55,0-2.48.43-4.71,1.3-6.68.87-1.97,2.17-3.53,3.9-4.67,1.74-1.14,3.92-1.71,6.55-1.71v6.34c-1.39,0-2.56.27-3.52.82-.95.55-1.68,1.33-2.19,2.33-.51,1-.76,2.16-.76,3.49,0,1.8.36,3.29,1.08,4.46.72,1.17,1.79,2.03,3.19,2.58,1.4.55,3.12.82,5.14.82h1.35c2.08,0,3.83-.28,5.23-.85,1.4-.56,2.46-1.42,3.17-2.56.71-1.14,1.06-2.61,1.06-4.42,0-1.41-.25-2.63-.74-3.68-.49-1.04-1.22-1.85-2.17-2.41-.95-.56-2.13-.85-3.52-.85v-6.09c2.63,0,4.82.56,6.55,1.67,1.74,1.11,3.03,2.66,3.88,4.63.85,1.97,1.28,4.23,1.28,6.76Z" style="fill: #17355c;"/>
  <path d="M1983.33,936.8l-14.37-5.39v-3.75l14.37-5.39v3.28l-2.83,1v6.1l2.83,1v3.14ZM1977.99,931.78v-4.35l-3.54,1.24c-.15.06-.34.12-.55.19-.22.07-.46.15-.72.23-.26.08-.53.16-.79.23-.26.07-.49.15-.7.21v.12c.27.07.58.16.93.27.36.11.7.22,1.03.33.33.11.6.2.81.27l3.54,1.24Z" style="fill: #17355c;"/>
  <path d="M1983.33,919.79h-14.37v-3.04h11.71v-7.06h2.66v10.1Z" style="fill: #17355c;"/>
  <path d="M1983.33,905.38h-11.75v4.49h-2.62v-12.06h2.62v4.51h11.75v3.06Z" style="fill: #17355c;"/>
  <path d="M1983.33,898.07l-14.37-5.39v-3.75l14.37-5.39v3.28l-2.83,1v6.1l2.83,1v3.14ZM1977.99,893.05v-4.35l-3.54,1.24c-.15.06-.34.12-.55.19-.22.07-.46.15-.72.23-.26.08-.53.16-.79.23-.26.07-.49.15-.7.21v.12c.27.07.58.16.93.27.36.11.7.22,1.03.33.33.11.6.2.81.27l3.54,1.24Z" style="fill: #17355c;"/>
  <path d="M2019.49,922.58h-29.77v-11.84c0-3.02.54-5.58,1.61-7.69,1.07-2.11,2.7-3.74,4.88-4.88,2.18-1.14,4.98-1.71,8.4-1.71s6.18.57,8.38,1.71c2.2,1.14,3.83,2.77,4.9,4.88,1.07,2.11,1.61,4.68,1.61,7.69v11.84ZM2014.16,916.28v-5.5c0-1.27-.19-2.4-.57-3.38-.38-.99-.93-1.8-1.67-2.45-.74-.65-1.66-1.14-2.78-1.48-1.11-.34-2.41-.51-3.88-.51h-1.3c-1.48,0-2.77.17-3.88.51-1.11.34-2.04.83-2.78,1.48-.74.65-1.3,1.47-1.69,2.45-.39.99-.59,2.11-.59,3.38v5.5h19.14Z" style="fill: #17355c;"/>
  <path d="M1983.33,1031.74l-14.37-5.39v-3.75l14.37-5.39v3.28l-2.83,1v6.1l2.83,1v3.14ZM1977.99,1026.72v-4.35l-3.54,1.24c-.15.06-.34.12-.55.19-.22.07-.46.15-.72.23-.26.08-.53.16-.79.23-.26.07-.49.15-.7.21v.12c.27.07.58.16.93.27.36.11.7.22,1.03.33.33.11.6.2.81.27l3.54,1.24Z" style="fill: #17355c;"/>
  <path d="M1983.33,1014.72h-14.37v-3.04h11.71v-7.06h2.66v10.1Z" style="fill: #17355c;"/>
  <path d="M1983.33,1000.32h-11.75v4.49h-2.62v-12.06h2.62v4.51h11.75v3.06Z" style="fill: #17355c;"/>
  <path d="M1983.33,993.01l-14.37-5.39v-3.75l14.37-5.39v3.28l-2.83,1v6.1l2.83,1v3.14ZM1977.99,987.99v-4.35l-3.54,1.24c-.15.06-.34.12-.55.19-.22.07-.46.15-.72.23-.26.08-.53.16-.79.23-.26.07-.49.15-.7.21v.12c.27.07.58.16.93.27.36.11.7.22,1.03.33.33.11.6.2.81.27l3.54,1.24Z" style="fill: #17355c;"/>
  <path d="M2019.5,1016.34h-29.77v-23.17h5.29v16.82h6.64v-14.88h5.25v14.88h7.25v-17.08h5.34v23.42Z" style="fill: #17355c;"/>
  <path d="M1801,693.53h-10.7v-5.96c0-.55.11-1.04.33-1.48.22-.44.52-.79.92-1.04.39-.25.86-.38,1.39-.38.43,0,.81.08,1.14.23.33.15.61.36.83.62.22.26.38.55.48.87h.06c.08-.38.24-.73.47-1.03.23-.3.52-.54.88-.71.36-.18.78-.27,1.27-.27.65,0,1.19.14,1.62.43.44.29.76.67.98,1.15s.33,1.01.33,1.6v5.97ZM1794.63,691.26v-3.01c0-.27-.05-.5-.16-.69-.11-.19-.26-.33-.44-.43-.18-.1-.39-.14-.63-.14-.41,0-.71.11-.92.33-.21.22-.31.5-.31.86v3.08h2.46ZM1799.1,691.26v-3.27c0-.37-.11-.68-.33-.92s-.56-.36-1.01-.36c-.27,0-.5.05-.7.15-.2.1-.35.25-.46.46-.11.2-.16.46-.16.77v3.16h2.67Z" style="fill: #17355c;"/>
  <path d="M1801,683.01l-10.7-4.01v-2.8l10.7-4.01v2.45l-2.11.74v4.54l2.11.74v2.34ZM1797.03,679.28v-3.24l-2.64.93c-.11.04-.25.09-.41.14-.16.06-.34.11-.54.18-.2.06-.39.12-.58.17-.19.06-.37.11-.52.16v.09c.2.05.43.12.69.2s.52.16.76.24c.24.08.44.15.6.2l2.64.93Z" style="fill: #17355c;"/>
  <path d="M1801.19,667.21c0,.8-.12,1.48-.37,2.04-.25.56-.61.99-1.1,1.29-.49.3-1.11.45-1.86.45h-.48v-2.22h.48c.48,0,.83-.13,1.07-.39s.35-.65.35-1.16-.17-.87-.51-1.12-.82-.38-1.46-.38h-7.02v-2.28h7.02c.86,0,1.58.15,2.16.44.58.29,1.01.72,1.29,1.28s.42,1.24.42,2.04Z" style="fill: #17355c;"/>
  <path d="M1801,661.64l-10.7-4.01v-2.8l10.7-4.01v2.45l-2.11.74v4.54l2.11.74v2.34ZM1797.03,657.9v-3.24l-2.64.93c-.11.04-.25.09-.41.14-.16.06-.34.11-.54.18-.2.06-.39.12-.58.17-.19.06-.37.11-.52.16v.09c.2.05.43.12.69.2s.52.16.76.24c.24.08.44.15.6.2l2.64.93Z" style="fill: #17355c;"/>
  <path d="M1827.93,683.91l-22.16-8.31v-5.79l22.16-8.31v5.07l-4.36,1.54v9.41l4.36,1.54v4.85ZM1819.69,676.17v-6.7l-5.46,1.92c-.24.08-.52.18-.86.3-.33.12-.71.24-1.11.36-.41.13-.81.25-1.21.36-.4.12-.76.23-1.08.33v.19c.41.11.89.24,1.44.41.55.17,1.08.34,1.58.5.51.17.92.3,1.24.41l5.46,1.92Z" style="fill: #17355c;"/>
  <path d="M1801,763.8h-10.7v-5.96c0-.55.11-1.04.33-1.48.22-.44.52-.79.92-1.04.39-.25.86-.38,1.39-.38.43,0,.81.08,1.14.23.33.15.61.36.83.62.22.26.38.55.48.87h.06c.08-.38.24-.73.47-1.03.23-.3.52-.54.88-.71s.78-.27,1.27-.27c.65,0,1.19.14,1.62.43.44.29.76.67.98,1.15s.33,1.01.33,1.6v5.97ZM1794.63,761.53v-3.01c0-.27-.05-.5-.16-.69-.11-.19-.26-.33-.44-.43-.18-.1-.39-.14-.63-.14-.41,0-.71.11-.92.33-.21.22-.31.5-.31.86v3.08h2.46ZM1799.1,761.53v-3.27c0-.37-.11-.68-.33-.92-.22-.24-.56-.36-1.01-.36-.27,0-.5.05-.7.15-.2.1-.35.25-.46.46-.11.2-.16.46-.16.77v3.16h2.67Z" style="fill: #17355c;"/>
  <path d="M1801,753.28l-10.7-4.01v-2.8l10.7-4.01v2.45l-2.11.74v4.54l2.11.75v2.34ZM1797.03,749.55v-3.24l-2.64.93c-.11.04-.25.09-.41.14-.16.06-.34.11-.54.17-.2.06-.39.12-.58.17-.19.06-.37.11-.52.16v.09c.2.05.43.12.69.2s.52.16.76.24c.24.08.44.15.6.2l2.64.93Z" style="fill: #17355c;"/>
  <path d="M1801.19,737.48c0,.8-.12,1.48-.37,2.04-.25.56-.61.99-1.1,1.29-.49.3-1.11.45-1.86.45h-.48v-2.22h.48c.48,0,.83-.13,1.07-.39.23-.26.35-.65.35-1.16s-.17-.87-.51-1.12-.82-.38-1.46-.38h-7.02v-2.28h7.02c.86,0,1.58.15,2.16.44.58.29,1.01.72,1.29,1.28.28.56.42,1.24.42,2.04Z" style="fill: #17355c;"/>
  <path d="M1801,731.91l-10.7-4.01v-2.8l10.7-4.01v2.45l-2.11.74v4.54l2.11.75v2.34ZM1797.03,728.17v-3.24l-2.64.93c-.11.04-.25.09-.41.14-.16.06-.34.11-.54.17-.2.06-.39.12-.58.17-.19.06-.37.11-.52.16v.09c.2.05.43.12.69.2.27.08.52.16.76.24.24.08.44.15.6.2l2.64.93Z" style="fill: #17355c;"/>
  <path d="M1827.93,751.95h-22.16v-12.34c0-1.13.23-2.16.68-3.07.45-.91,1.09-1.63,1.91-2.16.82-.52,1.78-.79,2.87-.79.88,0,1.67.16,2.36.47.69.31,1.26.74,1.71,1.27.45.53.79,1.14,1,1.81h.13c.17-.8.5-1.51.97-2.12.47-.62,1.08-1.11,1.83-1.48.74-.37,1.62-.55,2.63-.55,1.34,0,2.45.3,3.36.9.9.6,1.58,1.39,2.04,2.38.45.99.68,2.09.68,3.3v12.37ZM1814.72,747.26v-6.23c0-.57-.11-1.04-.34-1.43-.23-.39-.53-.68-.9-.88-.38-.2-.81-.3-1.31-.3-.84,0-1.47.23-1.91.68-.43.45-.65,1.04-.65,1.78v6.39h5.1ZM1823.99,747.26v-6.77c0-.78-.23-1.41-.68-1.9-.45-.49-1.15-.74-2.1-.74-.56,0-1.04.1-1.45.31-.41.21-.73.52-.95.94-.23.42-.34.96-.34,1.61v6.55h5.52Z" style="fill: #17355c;"/>
  <path d="M1801,835.82h-10.7v-5.96c0-.55.11-1.04.33-1.48.22-.44.52-.79.92-1.04.39-.25.86-.38,1.39-.38.43,0,.81.08,1.14.23.33.15.61.36.83.62.22.26.38.55.48.87h.06c.08-.38.24-.73.47-1.03.23-.3.52-.54.88-.71.36-.18.78-.27,1.27-.27.65,0,1.19.14,1.62.43.44.29.76.67.98,1.15s.33,1.01.33,1.6v5.97ZM1794.63,833.55v-3.01c0-.27-.05-.5-.16-.69-.11-.19-.26-.33-.44-.43-.18-.1-.39-.14-.63-.14-.41,0-.71.11-.92.33-.21.22-.31.5-.31.86v3.08h2.46ZM1799.1,833.55v-3.27c0-.37-.11-.68-.33-.92-.22-.24-.56-.36-1.01-.36-.27,0-.5.05-.7.15-.2.1-.35.25-.46.46-.11.2-.16.46-.16.77v3.16h2.67Z" style="fill: #17355c;"/>
  <path d="M1801,825.3l-10.7-4.01v-2.8l10.7-4.01v2.45l-2.11.74v4.54l2.11.75v2.34ZM1797.03,821.56v-3.24l-2.64.93c-.11.04-.25.09-.41.14-.16.06-.34.11-.54.17-.2.06-.39.12-.58.17-.19.06-.37.11-.52.16v.09c.2.05.43.12.69.2s.52.16.76.24c.24.08.44.15.6.2l2.64.93Z" style="fill: #17355c;"/>
  <path d="M1801.19,809.5c0,.8-.12,1.48-.37,2.04-.25.56-.61.99-1.1,1.29-.49.3-1.11.45-1.86.45h-.48v-2.22h.48c.48,0,.83-.13,1.07-.39.23-.26.35-.65.35-1.16s-.17-.87-.51-1.12-.82-.38-1.46-.38h-7.02v-2.28h7.02c.86,0,1.58.15,2.16.44.58.29,1.01.72,1.29,1.28.28.56.42,1.24.42,2.04Z" style="fill: #17355c;"/>
  <path d="M1801,803.93l-10.7-4.01v-2.8l10.7-4.01v2.45l-2.11.74v4.54l2.11.75v2.34ZM1797.03,800.19v-3.24l-2.64.93c-.11.04-.25.09-.41.14-.16.06-.34.11-.54.17-.2.06-.39.12-.58.17-.19.06-.37.11-.52.16v.09c.2.05.43.12.69.2s.52.16.76.24c.24.08.44.15.6.2l2.64.93Z" style="fill: #17355c;"/>
  <path d="M1828.32,814.47c0,2.25-.4,4.17-1.21,5.76-.81,1.6-2.06,2.81-3.76,3.64-1.7.83-3.87,1.24-6.49,1.24-3.88,0-6.76-.93-8.64-2.79-1.88-1.86-2.83-4.47-2.83-7.85,0-1.85.32-3.5.97-4.97.65-1.47,1.62-2.63,2.91-3.48,1.29-.85,2.92-1.27,4.88-1.27v4.72c-1.04,0-1.91.21-2.62.61-.71.41-1.25.99-1.63,1.73-.38.75-.57,1.61-.57,2.6,0,1.34.27,2.45.81,3.32.54.87,1.33,1.51,2.37,1.92s2.32.61,3.83.61h1c1.55,0,2.85-.21,3.89-.63,1.04-.42,1.83-1.05,2.36-1.9.53-.85.79-1.95.79-3.29,0-1.05-.18-1.96-.55-2.74-.37-.78-.9-1.37-1.62-1.79-.71-.42-1.58-.63-2.62-.63v-4.53c1.96,0,3.59.41,4.88,1.24,1.29.83,2.26,1.98,2.89,3.45.63,1.47.95,3.15.95,5.04Z" style="fill: #17355c;"/>
  <path d="M1801,906.06h-10.7v-5.96c0-.55.11-1.04.33-1.48s.52-.79.92-1.04c.39-.25.86-.38,1.39-.38.43,0,.81.08,1.14.23.33.15.61.36.83.62.22.26.38.55.48.87h.06c.08-.38.24-.73.47-1.03.23-.3.52-.54.88-.71s.78-.27,1.27-.27c.65,0,1.19.14,1.62.43.44.29.76.67.98,1.15s.33,1.01.33,1.6v5.97ZM1794.62,903.8v-3.01c0-.27-.05-.5-.16-.69-.11-.19-.26-.33-.44-.43-.18-.1-.39-.14-.63-.14-.41,0-.71.11-.92.33-.21.22-.31.5-.31.86v3.08h2.46ZM1799.1,903.8v-3.27c0-.37-.11-.68-.33-.92-.22-.24-.56-.36-1.01-.36-.27,0-.5.05-.7.15-.2.1-.35.25-.46.46-.11.2-.16.46-.16.77v3.16h2.67Z" style="fill: #17355c;"/>
  <path d="M1801,895.55l-10.7-4.01v-2.8l10.7-4.01v2.45l-2.11.74v4.54l2.11.75v2.34ZM1797.02,891.81v-3.24l-2.64.93c-.11.04-.25.09-.41.14-.16.06-.34.11-.54.17-.2.06-.39.12-.58.17-.19.06-.37.11-.52.16v.09c.2.05.43.12.69.2s.52.16.76.24c.24.08.44.15.6.2l2.64.93Z" style="fill: #17355c;"/>
  <path d="M1801.19,879.75c0,.8-.12,1.48-.37,2.04-.25.56-.61.99-1.1,1.29-.49.3-1.11.45-1.86.45h-.48v-2.22h.48c.48,0,.83-.13,1.07-.39.23-.26.35-.65.35-1.16s-.17-.87-.51-1.12-.82-.38-1.46-.38h-7.02v-2.28h7.02c.86,0,1.58.15,2.16.44.58.29,1.01.72,1.29,1.28.28.56.42,1.24.42,2.04Z" style="fill: #17355c;"/>
  <path d="M1801,874.17l-10.7-4.01v-2.8l10.7-4.01v2.45l-2.11.74v4.54l2.11.75v2.34ZM1797.02,870.44v-3.24l-2.64.93c-.11.04-.25.09-.41.14-.16.06-.34.11-.54.17-.2.06-.39.12-.58.17-.19.06-.37.11-.52.16v.09c.2.05.43.12.69.2s.52.16.76.24c.24.08.44.15.6.2l2.64.93Z" style="fill: #17355c;"/>
  <path d="M1827.93,894.48h-22.16v-8.81c0-2.24.4-4.15,1.2-5.73.8-1.57,2.01-2.79,3.63-3.64,1.63-.85,3.71-1.27,6.25-1.27s4.6.42,6.24,1.27c1.64.85,2.85,2.06,3.65,3.64.8,1.57,1.2,3.48,1.2,5.73v8.81ZM1823.95,889.79v-4.09c0-.94-.14-1.78-.42-2.52-.28-.73-.69-1.34-1.24-1.83-.55-.48-1.24-.85-2.07-1.1-.83-.25-1.79-.38-2.89-.38h-.97c-1.1,0-2.06.13-2.89.38-.83.25-1.52.62-2.07,1.1-.55.48-.97,1.09-1.26,1.83-.29.74-.44,1.57-.44,2.52v4.09h14.25Z" style="fill: #17355c;"/>
  <path d="M1801,976.75h-10.7v-5.96c0-.55.11-1.04.33-1.48.22-.44.52-.79.92-1.04.39-.25.86-.38,1.39-.38.43,0,.81.08,1.14.23.33.15.61.36.83.62.22.26.38.55.48.87h.06c.08-.38.24-.73.47-1.03.23-.3.52-.54.88-.71.36-.18.78-.27,1.27-.27.65,0,1.19.14,1.62.43.44.29.76.67.98,1.15s.33,1.01.33,1.6v5.97ZM1794.63,974.49v-3.01c0-.27-.05-.5-.16-.69-.11-.19-.26-.33-.44-.43-.18-.1-.39-.14-.63-.14-.41,0-.71.11-.92.33-.21.22-.31.5-.31.86v3.08h2.46ZM1799.1,974.49v-3.27c0-.37-.11-.68-.33-.92-.22-.24-.56-.36-1.01-.36-.27,0-.5.05-.7.15-.2.1-.35.25-.46.46-.11.2-.16.46-.16.77v3.16h2.67Z" style="fill: #17355c;"/>
  <path d="M1801,966.24l-10.7-4.01v-2.8l10.7-4.01v2.45l-2.11.74v4.54l2.11.75v2.34ZM1797.03,962.5v-3.24l-2.64.93c-.11.04-.25.09-.41.14-.16.06-.34.11-.54.17-.2.06-.39.12-.58.17-.19.06-.37.11-.52.16v.09c.2.05.43.12.69.2s.52.16.76.24c.24.08.44.15.6.2l2.64.93Z" style="fill: #17355c;"/>
  <path d="M1801.19,950.44c0,.8-.12,1.48-.37,2.04-.25.56-.61.99-1.1,1.29-.49.3-1.11.45-1.86.45h-.48v-2.22h.48c.48,0,.83-.13,1.07-.39.23-.26.35-.65.35-1.16s-.17-.87-.51-1.12-.82-.38-1.46-.38h-7.02v-2.28h7.02c.86,0,1.58.15,2.16.44.58.29,1.01.72,1.29,1.28.28.56.42,1.24.42,2.04Z" style="fill: #17355c;"/>
  <path d="M1801,944.86l-10.7-4.01v-2.8l10.7-4.01v2.45l-2.11.74v4.54l2.11.75v2.34ZM1797.03,941.12v-3.24l-2.64.93c-.11.04-.25.09-.41.14-.16.06-.34.11-.54.17-.2.06-.39.12-.58.17-.19.06-.37.11-.52.16v.09c.2.05.43.12.69.2s.52.16.76.24c.24.08.44.15.6.2l2.64.93Z" style="fill: #17355c;"/>
  <path d="M1827.93,964.28h-22.16v-17.25h3.94v12.53h4.94v-11.08h3.91v11.08h5.4v-12.71h3.97v17.44Z" style="fill: #17355c;"/>
  <path d="M1010.25,1005.77h-10.7v-5.96c0-.55.11-1.04.33-1.48s.52-.79.92-1.04c.39-.25.86-.38,1.39-.38.43,0,.81.08,1.14.23.33.15.61.36.83.62.22.26.38.55.48.87h.06c.08-.38.24-.73.47-1.03.23-.3.52-.54.88-.71s.78-.27,1.27-.27c.65,0,1.19.14,1.62.43.44.29.76.67.98,1.15s.33,1.01.33,1.6v5.97ZM1003.87,1003.51v-3.01c0-.27-.05-.5-.16-.69-.11-.19-.26-.33-.44-.43-.18-.1-.39-.14-.63-.14-.41,0-.71.11-.92.33-.21.22-.31.5-.31.86v3.08h2.46ZM1008.35,1003.51v-3.27c0-.37-.11-.68-.33-.92-.22-.24-.56-.36-1.01-.36-.27,0-.5.05-.7.15-.2.1-.35.25-.46.46-.11.2-.16.46-.16.77v3.16h2.67Z" style="fill: #17355c;"/>
  <path d="M1010.25,995.26l-10.7-4.01v-2.8l10.7-4.01v2.45l-2.11.74v4.54l2.11.75v2.34ZM1006.27,991.52v-3.24l-2.64.93c-.11.04-.25.09-.41.14-.16.06-.34.11-.54.17-.2.06-.39.12-.58.17-.19.06-.37.11-.52.16v.09c.2.05.43.12.69.2s.52.16.76.24c.24.08.44.15.6.2l2.64.93Z" style="fill: #17355c;"/>
  <path d="M1010.43,979.46c0,.8-.12,1.48-.37,2.04-.25.56-.61.99-1.1,1.29-.49.3-1.11.45-1.86.45h-.48v-2.22h.48c.48,0,.83-.13,1.07-.39.23-.26.35-.65.35-1.16s-.17-.87-.51-1.12c-.34-.25-.82-.38-1.46-.38h-7.02v-2.28h7.02c.86,0,1.58.15,2.16.44.58.29,1.01.72,1.29,1.28.28.56.42,1.24.42,2.04Z" style="fill: #17355c;"/>
  <path d="M1010.25,973.88l-10.7-4.01v-2.8l10.7-4.01v2.45l-2.11.74v4.54l2.11.75v2.34ZM1006.27,970.14v-3.24l-2.64.93c-.11.04-.25.09-.41.14-.16.06-.34.11-.54.17-.2.06-.39.12-.58.17-.19.06-.37.11-.52.16v.09c.2.05.43.12.69.2s.52.16.76.24c.24.08.44.15.6.2l2.64.93Z" style="fill: #17355c;"/>
  <path d="M1037.17,996.15l-22.16-8.31v-5.79l22.16-8.31v5.07l-4.36,1.54v9.41l4.36,1.54v4.85ZM1028.93,988.41v-6.7l-5.46,1.92c-.24.08-.52.18-.86.3-.33.12-.71.24-1.11.36-.41.13-.81.25-1.21.36-.4.12-.76.23-1.08.33v.19c.41.11.89.24,1.44.41.55.17,1.08.34,1.58.5.51.17.92.3,1.24.41l5.46,1.92Z" style="fill: #17355c;"/>
  <path d="M1010.25,914.44h-10.7v-5.96c0-.55.11-1.04.33-1.48.22-.44.52-.79.92-1.04.39-.25.86-.38,1.39-.38.43,0,.81.08,1.14.23.33.15.61.36.83.62.22.26.38.55.48.87h.06c.08-.38.24-.73.47-1.03.23-.3.52-.54.88-.71s.78-.27,1.27-.27c.65,0,1.19.14,1.62.43.44.29.76.67.98,1.15s.33,1.01.33,1.6v5.97ZM1003.87,912.17v-3.01c0-.27-.05-.5-.16-.69-.11-.19-.26-.33-.44-.43-.18-.1-.39-.14-.63-.14-.41,0-.71.11-.92.33-.21.22-.31.5-.31.86v3.08h2.46ZM1008.35,912.17v-3.27c0-.37-.11-.68-.33-.92-.22-.24-.56-.36-1.01-.36-.27,0-.5.05-.7.15-.2.1-.35.25-.46.46-.11.2-.16.46-.16.77v3.16h2.67Z" style="fill: #17355c;"/>
  <path d="M1010.25,903.92l-10.7-4.01v-2.8l10.7-4.01v2.45l-2.11.74v4.54l2.11.75v2.34ZM1006.27,900.19v-3.24l-2.64.93c-.11.04-.25.09-.41.14-.16.06-.34.11-.54.17-.2.06-.39.12-.58.17-.19.06-.37.11-.52.16v.09c.2.05.43.12.69.2s.52.16.76.24c.24.08.44.15.6.2l2.64.93Z" style="fill: #17355c;"/>
  <path d="M1010.43,888.12c0,.8-.12,1.48-.37,2.04-.25.56-.61.99-1.1,1.29-.49.3-1.11.45-1.86.45h-.48v-2.22h.48c.48,0,.83-.13,1.07-.39.23-.26.35-.65.35-1.16s-.17-.87-.51-1.12-.82-.38-1.46-.38h-7.02v-2.28h7.02c.86,0,1.58.15,2.16.44.58.29,1.01.72,1.29,1.28.28.56.42,1.24.42,2.04Z" style="fill: #17355c;"/>
  <path d="M1010.25,882.55l-10.7-4.01v-2.8l10.7-4.01v2.45l-2.11.74v4.54l2.11.75v2.34ZM1006.27,878.81v-3.24l-2.64.93c-.11.04-.25.09-.41.14-.16.06-.34.11-.54.17-.2.06-.39.12-.58.17-.19.06-.37.11-.52.16v.09c.2.05.43.12.69.2s.52.16.76.24c.24.08.44.15.6.2l2.64.93Z" style="fill: #17355c;"/>
  <path d="M1037.17,902.59h-22.16v-12.34c0-1.13.23-2.16.68-3.07.45-.91,1.09-1.63,1.91-2.16.82-.52,1.78-.79,2.87-.79.88,0,1.67.16,2.36.47s1.26.74,1.71,1.27c.45.53.79,1.14,1,1.81h.13c.17-.8.5-1.51.97-2.12.47-.62,1.08-1.11,1.83-1.48.74-.37,1.62-.55,2.63-.55,1.34,0,2.45.3,3.36.9.9.6,1.58,1.39,2.04,2.38s.68,2.09.68,3.3v12.37ZM1023.96,897.9v-6.23c0-.57-.11-1.04-.34-1.43-.23-.39-.53-.68-.9-.88-.38-.2-.81-.3-1.31-.3-.84,0-1.47.23-1.91.68-.43.45-.65,1.04-.65,1.78v6.39h5.1ZM1033.23,897.9v-6.77c0-.78-.23-1.41-.68-1.9-.45-.49-1.15-.74-2.1-.74-.56,0-1.04.1-1.45.31-.41.21-.73.52-.95.94-.23.42-.34.96-.34,1.61v6.55h5.52Z" style="fill: #17355c;"/>
  <path d="M1010.25,837.12h-10.7v-5.96c0-.55.11-1.04.33-1.48.22-.44.52-.79.92-1.04.39-.25.86-.38,1.39-.38.43,0,.81.08,1.14.23.33.15.61.36.83.62.22.26.38.55.48.87h.06c.08-.38.24-.73.47-1.03.23-.3.52-.54.88-.71s.78-.27,1.27-.27c.65,0,1.19.14,1.62.43.44.29.76.67.98,1.15.22.48.33,1.01.33,1.6v5.97ZM1003.87,834.86v-3.01c0-.27-.05-.5-.16-.69-.11-.19-.26-.33-.44-.43-.18-.1-.39-.14-.63-.14-.41,0-.71.11-.92.33-.21.22-.31.5-.31.86v3.08h2.46ZM1008.35,834.86v-3.27c0-.37-.11-.68-.33-.92-.22-.24-.56-.36-1.01-.36-.27,0-.5.05-.7.15-.2.1-.35.25-.46.46-.11.2-.16.46-.16.77v3.16h2.67Z" style="fill: #17355c;"/>
  <path d="M1010.25,826.61l-10.7-4.01v-2.8l10.7-4.01v2.45l-2.11.74v4.54l2.11.75v2.34ZM1006.27,822.87v-3.24l-2.64.93c-.11.04-.25.09-.41.14-.16.06-.34.11-.54.17-.2.06-.39.12-.58.17-.19.06-.37.11-.52.16v.09c.2.05.43.12.69.2s.52.16.76.24c.24.08.44.15.6.2l2.64.93Z" style="fill: #17355c;"/>
  <path d="M1010.43,810.81c0,.8-.12,1.48-.37,2.04-.25.56-.61.99-1.1,1.29-.49.3-1.11.45-1.86.45h-.48v-2.22h.48c.48,0,.83-.13,1.07-.39.23-.26.35-.65.35-1.16s-.17-.87-.51-1.12-.82-.38-1.46-.38h-7.02v-2.28h7.02c.86,0,1.58.15,2.16.44.58.29,1.01.72,1.29,1.28.28.56.42,1.24.42,2.04Z" style="fill: #17355c;"/>
  <path d="M1010.25,805.24l-10.7-4.01v-2.8l10.7-4.01v2.45l-2.11.74v4.54l2.11.75v2.34ZM1006.27,801.5v-3.24l-2.64.93c-.11.04-.25.09-.41.14-.16.06-.34.11-.54.17-.2.06-.39.12-.58.17-.19.06-.37.11-.52.16v.09c.2.05.43.12.69.2s.52.16.76.24c.24.08.44.15.6.2l2.64.93Z" style="fill: #17355c;"/>
  <path d="M1037.56,815.78c0,2.25-.4,4.17-1.21,5.76-.81,1.6-2.06,2.81-3.76,3.64-1.7.83-3.87,1.24-6.49,1.24-3.88,0-6.76-.93-8.64-2.79-1.88-1.86-2.83-4.47-2.83-7.85,0-1.85.32-3.5.97-4.97.65-1.47,1.62-2.63,2.91-3.48,1.29-.85,2.92-1.27,4.88-1.27v4.72c-1.04,0-1.91.21-2.62.61-.71.41-1.25.99-1.63,1.73-.38.75-.57,1.61-.57,2.6,0,1.34.27,2.45.81,3.32.54.87,1.33,1.51,2.37,1.92,1.04.41,2.32.61,3.83.61h1c1.55,0,2.85-.21,3.89-.63,1.04-.42,1.83-1.05,2.36-1.9.53-.85.79-1.95.79-3.29,0-1.05-.18-1.96-.55-2.74-.37-.78-.9-1.37-1.62-1.79-.71-.42-1.58-.63-2.62-.63v-4.53c1.96,0,3.59.41,4.88,1.24,1.29.83,2.26,1.98,2.89,3.45.63,1.47.95,3.15.95,5.04Z" style="fill: #17355c;"/>
  <path d="M1010.25,761.58h-10.7v-5.96c0-.55.11-1.04.33-1.48s.52-.79.92-1.04c.39-.25.86-.38,1.39-.38.43,0,.81.08,1.14.23.33.15.61.36.83.62.22.26.38.55.48.87h.06c.08-.38.24-.73.47-1.03.23-.3.52-.54.88-.71s.78-.27,1.27-.27c.65,0,1.19.14,1.62.43.44.29.76.67.98,1.15s.33,1.01.33,1.6v5.97ZM1003.87,759.32v-3.01c0-.27-.05-.5-.16-.69-.11-.19-.26-.33-.44-.43-.18-.1-.39-.14-.63-.14-.41,0-.71.11-.92.33-.21.22-.31.5-.31.86v3.08h2.46ZM1008.35,759.32v-3.27c0-.37-.11-.68-.33-.92-.22-.24-.56-.36-1.01-.36-.27,0-.5.05-.7.15-.2.1-.35.25-.46.46-.11.2-.16.46-.16.77v3.16h2.67Z" style="fill: #17355c;"/>
  <path d="M1010.25,751.07l-10.7-4.01v-2.8l10.7-4.01v2.45l-2.11.74v4.54l2.11.75v2.34ZM1006.27,747.33v-3.24l-2.64.93c-.11.04-.25.09-.41.14-.16.06-.34.11-.54.17-.2.06-.39.12-.58.17-.19.06-.37.11-.52.16v.09c.2.05.43.12.69.2s.52.16.76.24c.24.08.44.15.6.2l2.64.93Z" style="fill: #17355c;"/>
  <path d="M1010.43,735.27c0,.8-.12,1.48-.37,2.04-.25.56-.61.99-1.1,1.29-.49.3-1.11.45-1.86.45h-.48v-2.22h.48c.48,0,.83-.13,1.07-.39.23-.26.35-.65.35-1.16s-.17-.87-.51-1.12-.82-.38-1.46-.38h-7.02v-2.28h7.02c.86,0,1.58.15,2.16.44.58.29,1.01.72,1.29,1.28.28.56.42,1.24.42,2.04Z" style="fill: #17355c;"/>
  <path d="M1010.25,729.69l-10.7-4.01v-2.8l10.7-4.01v2.45l-2.11.74v4.54l2.11.75v2.34ZM1006.27,725.96v-3.24l-2.64.93c-.11.04-.25.09-.41.14-.16.06-.34.11-.54.17-.2.06-.39.12-.58.17-.19.06-.37.11-.52.16v.09c.2.05.43.12.69.2s.52.16.76.24c.24.08.44.15.6.2l2.64.93Z" style="fill: #17355c;"/>
  <path d="M1037.17,750h-22.16v-8.81c0-2.24.4-4.15,1.2-5.73.8-1.57,2.01-2.79,3.63-3.64,1.63-.85,3.71-1.27,6.25-1.27s4.6.42,6.24,1.27,2.85,2.06,3.65,3.64c.8,1.57,1.2,3.48,1.2,5.73v8.81ZM1033.2,745.31v-4.09c0-.94-.14-1.78-.42-2.52-.28-.73-.69-1.34-1.24-1.83-.55-.48-1.24-.85-2.07-1.1s-1.79-.38-2.89-.38h-.97c-1.1,0-2.06.13-2.89.38s-1.52.62-2.07,1.1c-.55.48-.97,1.09-1.26,1.83-.29.74-.44,1.57-.44,2.52v4.09h14.25Z" style="fill: #17355c;"/>
  <path d="M1010.25,677.44h-10.7v-5.95c0-.55.11-1.04.33-1.48s.52-.79.92-1.04c.39-.25.86-.38,1.39-.38.43,0,.81.08,1.14.23.33.15.61.36.83.62.22.26.38.55.48.87h.06c.08-.38.24-.73.47-1.03.23-.3.52-.54.88-.71s.78-.27,1.27-.27c.65,0,1.19.14,1.62.43s.76.67.98,1.15c.22.48.33,1.01.33,1.6v5.97ZM1003.87,675.18v-3.01c0-.27-.05-.5-.16-.69-.11-.19-.26-.33-.44-.43-.18-.1-.39-.14-.63-.14-.41,0-.71.11-.92.33-.21.22-.31.5-.31.86v3.08h2.46ZM1008.35,675.18v-3.27c0-.37-.11-.68-.33-.92s-.56-.36-1.01-.36c-.27,0-.5.05-.7.15-.2.1-.35.25-.46.46-.11.2-.16.46-.16.77v3.16h2.67Z" style="fill: #17355c;"/>
  <path d="M1010.25,666.93l-10.7-4.01v-2.8l10.7-4.01v2.45l-2.11.74v4.54l2.11.74v2.34ZM1006.27,663.19v-3.24l-2.64.93c-.11.04-.25.09-.41.14-.16.06-.34.11-.54.17-.2.06-.39.12-.58.18-.19.06-.37.11-.52.16v.09c.2.05.43.12.69.2.27.08.52.16.76.24.24.08.44.15.6.2l2.64.93Z" style="fill: #17355c;"/>
  <path d="M1010.43,651.13c0,.8-.12,1.48-.37,2.04-.25.56-.61.99-1.1,1.29-.49.3-1.11.45-1.86.45h-.48v-2.22h.48c.48,0,.83-.13,1.07-.39.23-.26.35-.65.35-1.16s-.17-.87-.51-1.12-.82-.38-1.46-.38h-7.02v-2.28h7.02c.86,0,1.58.15,2.16.44.58.29,1.01.72,1.29,1.28.28.56.42,1.24.42,2.04Z" style="fill: #17355c;"/>
  <path d="M1010.25,645.55l-10.7-4.01v-2.8l10.7-4.01v2.45l-2.11.74v4.54l2.11.74v2.34ZM1006.27,641.81v-3.24l-2.64.93c-.11.04-.25.09-.41.14-.16.06-.34.11-.54.17-.2.06-.39.12-.58.18-.19.06-.37.11-.52.16v.09c.2.05.43.12.69.2.27.08.52.16.76.24.24.08.44.15.6.2l2.64.93Z" style="fill: #17355c;"/>
  <path d="M1037.17,664.98h-22.16v-17.25h3.94v12.53h4.94v-11.08h3.91v11.08h5.4v-12.71h3.97v17.44Z" style="fill: #17355c;"/>
  <path d="M1139.24,861.96h-23.21s0-87.26,0-87.26h23.21c7.38,0,13.38,5.91,13.38,13.17v60.92c0,7.26-6,13.17-13.38,13.17ZM1367.21,818.33c0-26.48,20.54-48.32,46.76-50.91v-128.95s-252.28,0-252.28,0c-25.22,0-45.66,20.12-45.66,44.93v80.99s23.21,0,23.21,0c13.15,0,23.85,10.53,23.85,23.47v60.92c0,12.94-10.7,23.47-23.85,23.47h-23.21s0,80.99,0,80.99c0,24.82,20.44,44.93,45.66,44.93h252.28s0-128.95,0-128.95c-26.22-2.59-46.76-24.43-46.76-50.91ZM1377.67,818.33c0,20.79,15.86,37.99,36.29,40.53v-81.06c-20.43,2.54-36.29,19.74-36.29,40.53ZM1460.73,818.33c0-20.79-15.86-37.99-36.29-40.53v81.06c20.43-2.54,36.29-19.74,36.29-40.53ZM1699.16,774.7c-7.38,0-13.38,5.91-13.38,13.17v60.92c0,7.26,6,13.17,13.38,13.17h23.21s0-87.26,0-87.26h-23.21ZM1675.31,848.79v-60.92c0-12.94,10.7-23.47,23.85-23.47h23.21s0-80.99,0-80.99c0-24.82-20.44-44.93-45.66-44.93h-252.28s0,128.95,0,128.95c26.22,2.59,46.76,24.43,46.76,50.91,0,26.48-20.54,48.32-46.76,50.91v128.95s252.28,0,252.28,0c25.22,0,45.66-20.12,45.66-44.93v-80.99s-23.21,0-23.21,0c-13.15,0-23.85-10.53-23.85-23.47ZM1424.43,638.47h-10.47s0,0,0,0h10.47s0,0,0,0ZM1413.97,998.19h10.47s0,0,0,0h-10.47s0,0,0,0ZM1722.37,872.26v-10.3s0,0,0,0v10.3s0,0,0,0ZM1722.37,774.7v-10.3s0,0,0,0v10.3s0,0,0,0ZM1116.03,764.4v10.3s0,0,0,0v-10.3s0,0,0,0ZM1116.03,861.96v10.3s0,0,0,0v-10.3s0,0,0,0Z" style="fill: #65b137;"/>
  <rect x="1588.63" y="777.34" width="160.5" height="78.8" rx="2.88" ry="2.88" transform="translate(2485.61 -852.14) rotate(90)" style="fill: #efd19d;"/>
  <line x1="315.38" y1="560.12" x2="1367.45" y2="143.33" style="fill: none; stroke: #fff; stroke-dasharray: 7; stroke-miterlimit: 10; stroke-width: 2px;"/>
  <line x1="290.36" y1="506.1" x2="1289.18" y2="116.79" style="fill: none; stroke: #fff; stroke-dasharray: 7; stroke-miterlimit: 10; stroke-width: 2px;"/>
  <line x1="498.65" y1="487.52" x2="410.55" y2="1094.29" style="fill: none; stroke: #fff; stroke-dasharray: 7; stroke-miterlimit: 10; stroke-width: 2px;"/>
  <line x1="441.79" y1="513.61" x2="352.23" y2="1121.12" style="fill: none; stroke: #fff; stroke-dasharray: 7; stroke-miterlimit: 10; stroke-width: 2px;"/>
  <path d="M2315.47,435.96l-19.41,610.88s16.2,109.32-109.07,123.41l-146.85,41.83s-36.31,7.09-46.18,50.49l-24.46,134.89" style="fill: none; stroke: #fff; stroke-dasharray: 7; stroke-miterlimit: 10; stroke-width: 2px;"/>
  <path d="M2372.03,435.96l-20.28,660.58s-1.68,109.76-109.7,125.66l-147.79,42.49s-36.54,7.19-46.44,51.41l-7.44,41.69" style="fill: none; stroke: #fff; stroke-dasharray: 7; stroke-miterlimit: 10; stroke-width: 2px;"/>
  <path d="M1676.41,94.7l299.62,211.14s79.25,65.2,185.23,70.98l315.28,7.7" style="fill: none; stroke: #fff; stroke-dasharray: 7; stroke-miterlimit: 10; stroke-width: 2px;"/>
  <path d="M1627.29,143.33l299.62,211.14s79.25,65.2,185.23,70.98l356.76,10.51" style="fill: none; stroke: #fff; stroke-dasharray: 7; stroke-miterlimit: 10; stroke-width: 2px;"/>
  <line x1="1232.4" y1="92.14" x2="1875.14" y2="323.25" style="fill: none; stroke: #fff; stroke-dasharray: 7; stroke-miterlimit: 10; stroke-width: 2px;"/>
  <line x1="1329.46" y1="64.3" x2="1721" y2="211.99" style="fill: none; stroke: #fff; stroke-dasharray: 7; stroke-miterlimit: 10; stroke-width: 2px;"/>
  <polyline points="461.43 1315.38 854.99 1437.36 1238.71 1494.15 1475.25 1537.4" style="fill: none; stroke: #fff; stroke-dasharray: 7; stroke-miterlimit: 10;"/>
  <polyline points="436.99 1374.62 860.34 1496.6 1175.91 1540.02 1273.11 1553.39" style="fill: none; stroke: #fff; stroke-dasharray: 7; stroke-miterlimit: 10;"/>
  <path d="M1353.06,1508.65s-29.24-146.5-228.01-161.63l-314.62-33.62-270.29-94.14" style="fill: none; stroke: #fff; stroke-dasharray: 7; stroke-miterlimit: 10;"/>
  <path d="M1276.65,1503.56s-3.99-88.04-162.67-105.43l-314.62-33.62-270.29-94.14" style="fill: none; stroke: #fff; stroke-dasharray: 7; stroke-miterlimit: 10;"/>
  <g>
    <text transform="translate(1496.95 162.84) rotate(22.12)" style="fill: #fff; font-family: ArchivoCondensed-Medium, &apos;ArchivoCondensed Medium&apos;; font-size: 27px; font-weight: 500;"><tspan x="0" y="0">o</tspan></text>
    <text transform="translate(1511.7 168.84) rotate(22.12)" style="fill: #fff; font-family: ArchivoCondensed-Medium, &apos;ArchivoCondensed Medium&apos;; font-size: 27px; font-weight: 500;"><tspan x="0" y="0">m</tspan></text>
    <text transform="translate(1533.56 177.72) rotate(22.12)" style="fill: #fff; font-family: ArchivoCondensed-Medium, &apos;ArchivoCondensed Medium&apos;; font-size: 27px; font-weight: 500;"><tspan x="0" y="0">a</tspan></text>
    <text transform="translate(1546.62 183.03) rotate(22.12)" style="fill: #fff; font-family: ArchivoCondensed-Medium, &apos;ArchivoCondensed Medium&apos;; font-size: 27px; font-weight: 500;"><tspan x="0" y="0">s</tspan></text>
    <text transform="translate(1557.53 187.47) rotate(22.12)" style="fill: #fff; font-family: ArchivoCondensed-Medium, &apos;ArchivoCondensed Medium&apos;; font-size: 27px; font-weight: 500;"><tspan x="0" y="0">a</tspan></text>
    <g>
      <path d="M1496.51,145.17l-5.13-2.09.75-1.85,12.48,5.08-.75,1.85-5.15-2.1-6.1,15.01-2.2-.9,6.1-15.01Z" style="fill: #fff;"/>
      <path d="M1512.24,161.89c-1.82,4.48-5.72,5.17-8.64,3.98-3.28-1.33-4.83-4.76-3.27-8.59,1.65-4.05,5.27-5.35,8.62-3.99,3.48,1.41,4.8,4.9,3.29,8.6ZM1502.58,158.11c-1.08,2.65-.37,5.27,1.79,6.15,2.1.85,4.48-.48,5.59-3.21.83-2.05.87-5.07-1.74-6.13-2.6-1.06-4.7.89-5.64,3.19Z" style="fill: #fff;"/>
      <path d="M1517.12,160.75c.51-1.25.9-2.29,1.23-3.32l1.93.78-.69,1.99.08.03c1.14-.88,2.71-1.49,4.71-.68,1.65.67,2.5,2.18,2.44,3.82l.05.02c.65-.52,1.34-.85,1.99-1.03.95-.26,1.87-.23,3.02.24,1.6.65,3.55,2.67,1.84,6.87l-2.9,7.13-2.15-.88,2.79-6.85c.95-2.33.67-4.07-1.11-4.79-1.25-.51-2.6.02-3.42.94-.22.26-.46.63-.62,1.03l-3.04,7.48-2.15-.88,2.95-7.25c.78-1.93.5-3.67-1.17-4.35-1.38-.56-2.82.13-3.62,1.09-.26.27-.46.63-.61,1l-2.97,7.3-2.15-.88,3.59-8.83Z" style="fill: #fff;"/>
      <path d="M1542.09,181.19l.45-1.6-.07-.03c-1.06.68-2.71,1-4.44.3-2.45-1-3-3.23-2.29-4.98,1.19-2.93,4.44-3.47,9.11-1.54l.1-.25c.41-1,.86-2.91-1.61-3.92-1.13-.46-2.44-.59-3.52-.38l.09-1.65c1.26-.24,2.89-.08,4.42.54,3.7,1.51,3.58,4.4,2.59,6.82l-1.84,4.53c-.43,1.05-.79,2.1-.98,2.98l-2-.81ZM1544.28,174.88c-2.38-1.03-5.28-1.71-6.24.64-.58,1.43.1,2.49,1.22,2.95,1.58.64,2.98.05,3.75-.84.17-.19.32-.42.41-.65l.86-2.1Z" style="fill: #fff;"/>
      <path d="M1549.06,181.4c.48.69,1.45,1.61,2.54,2.06,1.6.65,2.68.16,3.08-.84.43-1.05.04-1.88-1.35-3.14-1.86-1.66-2.4-3.28-1.81-4.73.79-1.95,3.02-2.91,5.62-1.85,1.23.5,2.16,1.29,2.67,1.96l-1.2,1.38c-.35-.49-1.07-1.25-2.19-1.71-1.3-.53-2.33-.07-2.7.83-.41,1,.14,1.75,1.47,2.99,1.78,1.66,2.42,3.14,1.69,4.94-.86,2.13-3.13,2.96-6,1.79-1.33-.54-2.42-1.36-3.07-2.21l1.23-1.45Z" style="fill: #fff;"/>
      <path d="M1566.06,190.94l.45-1.6-.07-.03c-1.06.68-2.71,1-4.43.3-2.45-1-3-3.23-2.29-4.98,1.19-2.93,4.44-3.47,9.11-1.54l.1-.25c.41-1,.86-2.91-1.61-3.92-1.13-.46-2.44-.59-3.52-.38l.09-1.65c1.27-.24,2.89-.08,4.42.54,3.7,1.51,3.58,4.4,2.59,6.82l-1.84,4.53c-.43,1.05-.79,2.1-.98,2.98l-2-.81ZM1568.25,184.63c-2.38-1.03-5.28-1.71-6.24.64-.58,1.43.1,2.49,1.22,2.95,1.58.64,2.98.05,3.75-.84.17-.19.32-.42.41-.65l.86-2.1Z" style="fill: #fff;"/>
    </g>
  </g>
  <g>
    <text transform="translate(842.45 326.81) rotate(-21.1)" style="fill: #fff; font-family: ArchivoCondensed-Medium, &apos;ArchivoCondensed Medium&apos;; font-size: 27px; font-weight: 500;"><tspan x="0" y="0">u</tspan></text>
    <text transform="translate(857.34 321.07) rotate(-21.1)" style="fill: #fff; font-family: ArchivoCondensed-Medium, &apos;ArchivoCondensed Medium&apos;; font-size: 27px; font-weight: 500;"><tspan x="0" y="0">a</tspan></text>
    <text transform="translate(870.49 315.99) rotate(-21.1)" style="fill: #fff; font-family: ArchivoCondensed-Medium, &apos;ArchivoCondensed Medium&apos;; font-size: 27px; font-weight: 500;"><tspan x="0" y="0">n</tspan></text>
    <text transform="translate(885.48 310.2) rotate(-21.1)" style="fill: #fff; font-family: ArchivoCondensed-Medium, &apos;ArchivoCondensed Medium&apos;; font-size: 27px; font-weight: 500;"><tspan x="0" y="0">a</tspan></text>
    <text transform="translate(898.63 305.13) rotate(-21.1)" style="fill: #fff; font-family: ArchivoCondensed-Medium, &apos;ArchivoCondensed Medium&apos;; font-size: 27px; font-weight: 500;"><tspan x="0" y="0"> </tspan></text>
    <text transform="translate(903.94 303.08) rotate(-21.1)" style="fill: #fff; font-family: ArchivoCondensed-Medium, &apos;ArchivoCondensed Medium&apos;; font-size: 27px; font-weight: 500;"><tspan x="0" y="0">T</tspan></text>
    <text transform="translate(915.69 298.55) rotate(-21.1)" style="fill: #fff; font-family: ArchivoCondensed-Medium, &apos;ArchivoCondensed Medium&apos;; font-size: 27px; font-weight: 500;"><tspan x="0" y="0">e</tspan></text>
    <text transform="translate(929.31 293.29) rotate(-21.1)" style="fill: #fff; font-family: ArchivoCondensed-Medium, &apos;ArchivoCondensed Medium&apos;; font-size: 27px; font-weight: 500;"><tspan x="0" y="0">r</tspan></text>
    <text transform="translate(938.66 289.68) rotate(-21.1)" style="fill: #fff; font-family: ArchivoCondensed-Medium, &apos;ArchivoCondensed Medium&apos;; font-size: 27px; font-weight: 500;"><tspan x="0" y="0">r</tspan></text>
    <text transform="translate(947.77 286.16) rotate(-21.1)" style="fill: #fff; font-family: ArchivoCondensed-Medium, &apos;ArchivoCondensed Medium&apos;; font-size: 27px; font-weight: 500;"><tspan x="0" y="0">a</tspan></text>
    <text transform="translate(960.92 281.09) rotate(-21.1)" style="fill: #fff; font-family: ArchivoCondensed-Medium, &apos;ArchivoCondensed Medium&apos;; font-size: 27px; font-weight: 500;"><tspan x="0" y="0">z</tspan></text>
    <text transform="translate(972.72 276.54) rotate(-21.1)" style="fill: #fff; font-family: ArchivoCondensed-Medium, &apos;ArchivoCondensed Medium&apos;; font-size: 27px; font-weight: 500;"><tspan x="0" y="0">a</tspan></text>
    <text transform="translate(985.88 271.46) rotate(-21.1)" style="fill: #fff; font-family: ArchivoCondensed-Medium, &apos;ArchivoCondensed Medium&apos;; font-size: 27px; font-weight: 500;"><tspan x="0" y="0">s</tspan></text>
    <g>
      <path d="M830.96,311.74l2.19-.85,4.39,11.36c1.74,4.51.06,6.75-2.86,7.88-.81.31-1.86.51-2.5.5l-.36-1.91c.52,0,1.23-.1,1.97-.38,1.96-.76,2.78-2.09,1.5-5.41l-4.32-11.18Z" style="fill: #fff;"/>
      <path d="M853.2,318.84c.49,1.26.94,2.36,1.38,3.29l-1.96.76-.89-1.94-.05.02c-.2,1.21-.99,2.99-3.15,3.82-1.92.74-4.62.57-6.27-3.71l-2.75-7.13,2.22-.86,2.61,6.75c.89,2.32,2.2,3.61,4.22,2.83,1.49-.57,2.12-2.01,2.14-3.14,0-.38-.08-.81-.24-1.21l-2.89-7.48,2.22-.86,3.42,8.87Z" style="fill: #fff;"/>
      <path d="M865.93,317.75l-.77-1.47-.08.03c-.31,1.22-1.29,2.58-3.03,3.25-2.47.95-4.4-.3-5.08-2.06-1.14-2.95.86-5.57,5.58-7.36l-.1-.25c-.39-1.01-1.37-2.71-3.86-1.75-1.13.44-2.18,1.25-2.82,2.13l-1.07-1.27c.75-1.04,2.05-2.04,3.59-2.63,3.73-1.44,5.62.75,6.56,3.2l1.76,4.56c.41,1.06.86,2.07,1.33,2.84l-2.02.78ZM863.2,311.65c-2.44.88-5.02,2.37-4.1,4.74.55,1.44,1.77,1.75,2.91,1.31,1.59-.61,2.21-2.01,2.16-3.18-.01-.26-.06-.53-.15-.75l-.82-2.12Z" style="fill: #fff;"/>
      <path d="M868.89,306.39c-.49-1.26-.91-2.28-1.37-3.26l1.96-.76.9,1.97.05-.02c.16-1.39,1.13-3.07,3.14-3.85,1.69-.65,4.7-.66,6.31,3.52l2.81,7.28-2.22.86-2.71-7.03c-.76-1.96-2.12-3.32-4.21-2.51-1.46.56-2.19,2.03-2.1,3.41,0,.32.1.71.25,1.09l2.83,7.33-2.22.86-3.43-8.89Z" style="fill: #fff;"/>
      <path d="M894.07,306.89l-.77-1.47-.08.03c-.31,1.22-1.29,2.58-3.03,3.25-2.47.95-4.4-.3-5.08-2.06-1.14-2.95.86-5.57,5.58-7.36l-.1-.25c-.39-1.01-1.37-2.71-3.86-1.75-1.13.44-2.18,1.25-2.82,2.13l-1.07-1.27c.75-1.04,2.05-2.04,3.59-2.63,3.73-1.44,5.62.75,6.56,3.2l1.76,4.56c.41,1.06.86,2.07,1.33,2.84l-2.02.78ZM891.34,300.79c-2.44.88-5.02,2.37-4.1,4.74.55,1.44,1.77,1.75,2.91,1.31,1.59-.61,2.21-2.01,2.16-3.18-.01-.26-.06-.53-.15-.75l-.82-2.12Z" style="fill: #fff;"/>
      <path d="M903.24,285.99l-5.16,1.99-.72-1.86,12.57-4.85.72,1.86-5.19,2,5.84,15.11-2.22.86-5.84-15.11Z" style="fill: #fff;"/>
      <path d="M916.56,291.67c1.21,2.98,3.6,3.47,5.82,2.62,1.59-.61,2.44-1.26,3.13-1.93l.99,1.44c-.64.65-1.82,1.57-3.76,2.32-3.75,1.45-6.95-.15-8.37-3.83-1.42-3.68-.37-7.41,3.18-8.78,3.98-1.54,6.39,1.56,7.26,3.8.17.45.26.83.32,1.06l-8.56,3.31ZM922.45,287.57c-.52-1.42-1.97-3.38-4.46-2.41-2.24.87-2.42,3.31-2.01,4.91l6.47-2.5Z" style="fill: #fff;"/>
      <path d="M927.91,284.19c-.55-1.44-1.06-2.66-1.57-3.76l1.94-.75,1,2.36.1-.04c-.08-1.85.86-3.4,2.34-3.97.25-.1.44-.14.66-.17l.81,2.09c-.25.04-.48.1-.79.22-1.56.6-2.21,2.21-1.87,3.99.07.32.15.69.3,1.07l2.51,6.5-2.19.85-3.24-8.39Z" style="fill: #fff;"/>
      <path d="M937.26,280.59c-.55-1.44-1.06-2.66-1.57-3.76l1.94-.75,1,2.36.1-.04c-.08-1.85.86-3.4,2.34-3.97.25-.1.44-.14.66-.17l.81,2.09c-.25.04-.48.1-.79.22-1.56.6-2.21,2.22-1.87,3.99.07.32.15.69.3,1.07l2.51,6.5-2.19.85-3.24-8.39Z" style="fill: #fff;"/>
      <path d="M956.36,282.85l-.77-1.47-.08.03c-.31,1.22-1.29,2.58-3.03,3.25-2.47.95-4.4-.3-5.08-2.06-1.14-2.95.86-5.57,5.58-7.36l-.1-.25c-.39-1.01-1.37-2.71-3.86-1.75-1.13.44-2.18,1.25-2.82,2.13l-1.07-1.27c.76-1.04,2.05-2.04,3.59-2.63,3.73-1.44,5.62.75,6.56,3.2l1.76,4.56c.41,1.06.86,2.07,1.33,2.84l-2.02.78ZM953.63,276.75c-2.44.88-5.02,2.37-4.1,4.74.55,1.44,1.77,1.75,2.91,1.31,1.59-.61,2.21-2.01,2.16-3.18-.01-.26-.06-.53-.15-.75l-.82-2.12Z" style="fill: #fff;"/>
      <path d="M960.88,279.63l2.74-9.31c.28-.86.56-1.63.86-2.5l-.02-.05-6.6,2.55-.69-1.79,9.29-3.59.51,1.4-2.71,9.18c-.24.87-.51,1.67-.82,2.52l.02.05,7.13-2.75.68,1.76-9.9,3.82-.5-1.28Z" style="fill: #fff;"/>
      <path d="M981.31,273.22l-.77-1.47-.08.03c-.31,1.22-1.29,2.58-3.03,3.25-2.47.95-4.4-.3-5.08-2.06-1.14-2.95.86-5.57,5.58-7.36l-.1-.25c-.39-1.01-1.37-2.71-3.86-1.75-1.13.44-2.18,1.25-2.82,2.13l-1.07-1.27c.75-1.04,2.05-2.04,3.59-2.63,3.73-1.44,5.62.75,6.56,3.2l1.76,4.56c.41,1.06.86,2.07,1.33,2.84l-2.01.78ZM978.58,267.12c-2.44.88-5.02,2.37-4.1,4.74.55,1.44,1.77,1.75,2.91,1.31,1.59-.61,2.21-2.01,2.16-3.18-.01-.26-.06-.53-.15-.75l-.82-2.12Z" style="fill: #fff;"/>
      <path d="M986.55,268.6c.82.18,2.15.18,3.26-.25,1.61-.62,2.06-1.72,1.67-2.73-.41-1.06-1.26-1.39-3.13-1.37-2.49.07-3.99-.74-4.56-2.21-.76-1.96.21-4.19,2.82-5.2,1.23-.48,2.45-.54,3.29-.4l.07,1.83c-.6-.12-1.63-.18-2.76.26-1.31.51-1.75,1.54-1.4,2.45.39,1.01,1.29,1.18,3.11,1.17,2.43-.01,3.92.63,4.62,2.44.83,2.14-.25,4.29-3.15,5.41-1.33.52-2.69.66-3.75.49l-.1-1.9Z" style="fill: #fff;"/>
    </g>
  </g>
  <text transform="translate(525.85 1381.7) rotate(14.15) scale(1.03 1) skewX(-.8)" style="fill: #fff; font-family: ArchivoCondensed-Medium, &apos;ArchivoCondensed Medium&apos;; font-size: 29.33px; font-weight: 500;"><tspan x="0" y="0" style="letter-spacing: .02em;">A</tspan><tspan x="18.51" y="0" style="letter-spacing: 0em;">v</tspan><tspan x="32.65" y="0" style="letter-spacing: .04em;">. John </tspan><tspan x="118.88" y="0" style="letter-spacing: -.06em;">F</tspan><tspan x="131.49" y="0" style="letter-spacing: .04em;">. Kennedy</tspan></text>
  <text transform="translate(862.69 1353.24) rotate(5.29) scale(1.03 1)" style="fill: #fff; font-family: ArchivoCondensed-Medium, &apos;ArchivoCondensed Medium&apos;; font-size: 27.11px; font-weight: 500;"><tspan x="0" y="0">L</tspan></text>
  <text transform="translate(876.9 1354.55) rotate(5.48) scale(1.03 1)" style="fill: #fff; font-family: ArchivoCondensed-Medium, &apos;ArchivoCondensed Medium&apos;; font-size: 27.11px; font-weight: 500;"><tspan x="0" y="0">a</tspan></text>
  <text transform="translate(891.39 1355.95) rotate(5.63) scale(1.03 1)" style="fill: #fff; font-family: ArchivoCondensed-Medium, &apos;ArchivoCondensed Medium&apos;; font-size: 27.11px; font-weight: 500;"><tspan x="0" y="0"> </tspan></text>
  <text transform="translate(898.4 1356.64) rotate(5.79) scale(1.03 1)" style="fill: #fff; font-family: ArchivoCondensed-Medium, &apos;ArchivoCondensed Medium&apos;; font-size: 27.11px; font-weight: 500;"><tspan x="0" y="0">E</tspan></text>
  <text transform="translate(913.16 1358.14) rotate(6.01) scale(1.03 1)" style="fill: #fff; font-family: ArchivoCondensed-Medium, &apos;ArchivoCondensed Medium&apos;; font-size: 27.11px; font-weight: 500;"><tspan x="0" y="0">s</tspan></text>
  <text transform="translate(925.23 1359.4) rotate(6.29) scale(1.03 1)" style="fill: #fff; font-family: ArchivoCondensed-Medium, &apos;ArchivoCondensed Medium&apos;; font-size: 27.11px; font-weight: 500;"><tspan x="0" y="0">p</tspan></text>
  <text transform="translate(942.1 1361.27) rotate(6.67) scale(1.03 1)" style="fill: #fff; font-family: ArchivoCondensed-Medium, &apos;ArchivoCondensed Medium&apos;; font-size: 27.11px; font-weight: 500;"><tspan x="0" y="0">e</tspan></text>
  <text transform="translate(957.07 1363.03) rotate(7.04) scale(1.03 1)" style="fill: #fff; font-family: ArchivoCondensed-Medium, &apos;ArchivoCondensed Medium&apos;; font-size: 27.11px; font-weight: 500;"><tspan x="0" y="0">r</tspan></text>
  <text transform="translate(967.07 1364.26) rotate(7.49) scale(1.03 1)" style="fill: #fff; font-family: ArchivoCondensed-Medium, &apos;ArchivoCondensed Medium&apos;; font-size: 27.11px; font-weight: 500;"><tspan x="0" y="0">a</tspan></text>
  <text transform="translate(981.46 1366.14) rotate(8.29) scale(1.03 1)" style="fill: #fff; font-family: ArchivoCondensed-Medium, &apos;ArchivoCondensed Medium&apos;; font-size: 27.11px; font-weight: 500;"><tspan x="0" y="0">n</tspan></text>
  <text transform="translate(997.81 1368.54) rotate(9.51) scale(1.03 1)" style="fill: #fff; font-family: ArchivoCondensed-Medium, &apos;ArchivoCondensed Medium&apos;; font-size: 27.11px; font-weight: 500;"><tspan x="0" y="0">z</tspan></text>
  <text transform="translate(1010.53 1370.64) rotate(11.72) scale(1.03 1)" style="fill: #fff; font-family: ArchivoCondensed-Medium, &apos;ArchivoCondensed Medium&apos;; font-size: 27.11px; font-weight: 500;"><tspan x="0" y="0">a</tspan></text>
  <g>
    <text transform="translate(2335.94 951.84) rotate(-89.05)" style="fill: #fff; font-family: ArchivoCondensed-Medium, &apos;ArchivoCondensed Medium&apos;; font-size: 27px; font-weight: 500;"><tspan x="0" y="0">C</tspan></text>
    <text transform="translate(2336.21 935.28) rotate(-89.05)" style="fill: #fff; font-family: ArchivoCondensed-Medium, &apos;ArchivoCondensed Medium&apos;; font-size: 27px; font-weight: 500;"><tspan x="0" y="0">a</tspan><tspan x="14.1" y="0">c</tspan></text>
    <text transform="translate(2336.67 908.01) rotate(-89.05)" style="fill: #fff; font-family: ArchivoCondensed-Medium, &apos;ArchivoCondensed Medium&apos;; font-size: 27px; font-weight: 500;"><tspan x="0" y="0">i</tspan></text>
    <text transform="translate(2336.79 900.63) rotate(-89.05)" style="fill: #fff; font-family: ArchivoCondensed-Medium, &apos;ArchivoCondensed Medium&apos;; font-size: 27px; font-weight: 500;"><tspan x="0" y="0">c</tspan></text>
    <text transform="translate(2337.01 887.43) rotate(-89.05)" style="fill: #fff; font-family: ArchivoCondensed-Medium, &apos;ArchivoCondensed Medium&apos;; font-size: 27px; font-weight: 500;"><tspan x="0" y="0">a</tspan></text>
    <text transform="translate(2337.24 873.36) rotate(-89.05)" style="fill: #fff; font-family: ArchivoCondensed-Medium, &apos;ArchivoCondensed Medium&apos;; font-size: 27px; font-weight: 500;"><tspan x="0" y="0"> </tspan><tspan x="6.81" y="0">Q</tspan></text>
    <text transform="translate(2337.69 846.79) rotate(-89.05)" style="fill: #fff; font-family: ArchivoCondensed-Medium, &apos;ArchivoCondensed Medium&apos;; font-size: 27px; font-weight: 500;"><tspan x="0" y="0">u</tspan></text>
    <text transform="translate(2337.95 830.83) rotate(-89.05)" style="fill: #fff; font-family: ArchivoCondensed-Medium, &apos;ArchivoCondensed Medium&apos;; font-size: 27px; font-weight: 500;"><tspan x="0" y="0">i</tspan></text>
    <text transform="translate(2338.07 823.44) rotate(-89.05)" style="fill: #fff; font-family: ArchivoCondensed-Medium, &apos;ArchivoCondensed Medium&apos;; font-size: 27px; font-weight: 500;"><tspan x="0" y="0">l</tspan></text>
    <text transform="translate(2338.2 815.97) rotate(-89.05)" style="fill: #fff; font-family: ArchivoCondensed-Medium, &apos;ArchivoCondensed Medium&apos;; font-size: 27px; font-weight: 500;"><tspan x="0" y="0">a</tspan></text>
    <text transform="translate(2338.43 801.88) rotate(-89.05)" style="fill: #fff; font-family: ArchivoCondensed-Medium, &apos;ArchivoCondensed Medium&apos;; font-size: 27px; font-weight: 500;"><tspan x="0" y="0">g</tspan></text>
    <text transform="translate(2338.7 785.69) rotate(-89.05)" style="fill: #fff; font-family: ArchivoCondensed-Medium, &apos;ArchivoCondensed Medium&apos;; font-size: 27px; font-weight: 500;"><tspan x="0" y="0">o</tspan></text>
  </g>
  <g>
    <text transform="translate(425.41 882.09) rotate(-80.7)" style="fill: #fff; font-family: ArchivoCondensed-Medium, &apos;ArchivoCondensed Medium&apos;; font-size: 27px; font-weight: 500;"><tspan x="0" y="0">H</tspan></text>
    <text transform="translate(428.43 863.63) rotate(-80.7)" style="fill: #fff; font-family: ArchivoCondensed-Medium, &apos;ArchivoCondensed Medium&apos;; font-size: 27px; font-weight: 500;"><tspan x="0" y="0">.</tspan></text>
    <text transform="translate(429.5 857.06) rotate(-80.7)" style="fill: #fff; font-family: ArchivoCondensed-Medium, &apos;ArchivoCondensed Medium&apos;; font-size: 27px; font-weight: 500;"><tspan x="0" y="0"> </tspan></text>
    <text transform="translate(430.45 851.31) rotate(-80.7)" style="fill: #fff; font-family: ArchivoCondensed-Medium, &apos;ArchivoCondensed Medium&apos;; font-size: 27px; font-weight: 500;"><tspan x="0" y="0">V</tspan></text>
    <text transform="translate(432.91 836.26) rotate(-80.7)" style="fill: #fff; font-family: ArchivoCondensed-Medium, &apos;ArchivoCondensed Medium&apos;; font-size: 27px; font-weight: 500;"><tspan x="0" y="0">a</tspan></text>
    <text transform="translate(435.19 822.34) rotate(-80.7)" style="fill: #fff; font-family: ArchivoCondensed-Medium, &apos;ArchivoCondensed Medium&apos;; font-size: 27px; font-weight: 500;"><tspan x="0" y="0">n</tspan></text>
    <text transform="translate(437.79 806.49) rotate(-80.7)" style="fill: #fff; font-family: ArchivoCondensed-Medium, &apos;ArchivoCondensed Medium&apos;; font-size: 27px; font-weight: 500;"><tspan x="0" y="0"> </tspan></text>
    <text transform="translate(438.89 799.75) rotate(-80.7)" style="fill: #fff; font-family: ArchivoCondensed-Medium, &apos;ArchivoCondensed Medium&apos;; font-size: 27px; font-weight: 500;"><tspan x="0" y="0">R</tspan><tspan x="15.86" y="0">i</tspan></text>
    <text transform="translate(442.66 776.78) rotate(-80.7)" style="fill: #fff; font-family: ArchivoCondensed-Medium, &apos;ArchivoCondensed Medium&apos;; font-size: 27px; font-weight: 500;"><tspan x="0" y="0">s</tspan></text>
    <text transform="translate(444.56 765.18) rotate(-80.7)" style="fill: #fff; font-family: ArchivoCondensed-Medium, &apos;ArchivoCondensed Medium&apos;; font-size: 27px; font-weight: 500;"><tspan x="0" y="0">n</tspan></text>
  </g>
  <g>
    <text transform="translate(1775.83 212.49) rotate(35.95) scale(.72 1)" style="fill: #fff; font-family: ArchivoCondensed-Medium, &apos;ArchivoCondensed Medium&apos;; font-size: 25.48px; font-weight: 500;"><tspan x="0" y="0">A</tspan></text>
    <text transform="translate(1785.25 219.33) rotate(35.95) scale(.72 1)" style="fill: #fff; font-family: ArchivoCondensed-Medium, &apos;ArchivoCondensed Medium&apos;; font-size: 25.48px; font-weight: 500;"><tspan x="0" y="0">v</tspan></text>
    <text transform="translate(1792.44 224.54) rotate(35.95) scale(.72 1)" style="fill: #fff; font-family: ArchivoCondensed-Medium, &apos;ArchivoCondensed Medium&apos;; font-size: 25.48px; font-weight: 500;"><tspan x="0" y="0">.</tspan></text>
    <text transform="translate(1796.14 227.23) rotate(35.95) scale(.72 1)" style="fill: #fff; font-family: ArchivoCondensed-Medium, &apos;ArchivoCondensed Medium&apos;; font-size: 25.48px; font-weight: 500;"><tspan x="0" y="0"> </tspan></text>
    <text transform="translate(1799.9 229.96) rotate(35.95) scale(.72 1)" style="fill: #fff; font-family: ArchivoCondensed-Medium, &apos;ArchivoCondensed Medium&apos;; font-size: 25.48px; font-weight: 500;"><tspan x="0" y="0">D</tspan></text>
    <text transform="translate(1810.44 237.6) rotate(35.95) scale(.72 1)" style="fill: #fff; font-family: ArchivoCondensed-Medium, &apos;ArchivoCondensed Medium&apos;; font-size: 25.48px; font-weight: 500;"><tspan x="0" y="0">i</tspan></text>
    <text transform="translate(1814.55 240.58) rotate(35.95) scale(.72 1)" style="fill: #fff; font-family: ArchivoCondensed-Medium, &apos;ArchivoCondensed Medium&apos;; font-size: 25.48px; font-weight: 500;"><tspan x="0" y="0">e</tspan></text>
    <text transform="translate(1822.61 246.42) rotate(35.95) scale(.72 1)" style="fill: #fff; font-family: ArchivoCondensed-Medium, &apos;ArchivoCondensed Medium&apos;; font-size: 25.48px; font-weight: 500;"><tspan x="0" y="0">g</tspan></text>
    <text transform="translate(1831.56 252.92) rotate(35.95) scale(.72 1)" style="fill: #fff; font-family: ArchivoCondensed-Medium, &apos;ArchivoCondensed Medium&apos;; font-size: 25.48px; font-weight: 500;"><tspan x="0" y="0">o</tspan></text>
    <text transform="translate(1840.37 259.3) rotate(35.95) scale(.72 1)" style="fill: #fff; font-family: ArchivoCondensed-Medium, &apos;ArchivoCondensed Medium&apos;; font-size: 25.48px; font-weight: 500;"><tspan x="0" y="0"> </tspan></text>
    <text transform="translate(1843.6 261.64) rotate(35.95) scale(.72 1)" style="fill: #fff; font-family: ArchivoCondensed-Medium, &apos;ArchivoCondensed Medium&apos;; font-size: 25.48px; font-weight: 500;"><tspan x="0" y="0">V</tspan></text>
    <text transform="translate(1852.03 267.76) rotate(35.95) scale(.72 1)" style="fill: #fff; font-family: ArchivoCondensed-Medium, &apos;ArchivoCondensed Medium&apos;; font-size: 25.48px; font-weight: 500;"><tspan x="0" y="0">á</tspan></text>
    <text transform="translate(1859.82 273.41) rotate(35.95) scale(.72 1)" style="fill: #fff; font-family: ArchivoCondensed-Medium, &apos;ArchivoCondensed Medium&apos;; font-size: 25.48px; font-weight: 500;"><tspan x="0" y="0">s</tspan></text>
    <text transform="translate(1866.33 278.13) rotate(35.95) scale(.72 1)" style="fill: #fff; font-family: ArchivoCondensed-Medium, &apos;ArchivoCondensed Medium&apos;; font-size: 25.48px; font-weight: 500;"><tspan x="0" y="0">q</tspan></text>
    <text transform="translate(1875.35 284.67) rotate(35.95) scale(.72 1)" style="fill: #fff; font-family: ArchivoCondensed-Medium, &apos;ArchivoCondensed Medium&apos;; font-size: 25.48px; font-weight: 500;"><tspan x="0" y="0">u</tspan></text>
    <text transform="translate(1884.17 291.07) rotate(35.95) scale(.72 1)" style="fill: #fff; font-family: ArchivoCondensed-Medium, &apos;ArchivoCondensed Medium&apos;; font-size: 25.48px; font-weight: 500;"><tspan x="0" y="0">e</tspan></text>
    <text transform="translate(1892.25 296.93) rotate(35.95) scale(.72 1)" style="fill: #fff; font-family: ArchivoCondensed-Medium, &apos;ArchivoCondensed Medium&apos;; font-size: 25.48px; font-weight: 500;"><tspan x="0" y="0">z</tspan></text>
    <text transform="translate(1899.22 301.98) rotate(35.95) scale(.72 1)" style="fill: #fff; font-family: ArchivoCondensed-Medium, &apos;ArchivoCondensed Medium&apos;; font-size: 25.48px; font-weight: 500;"><tspan x="0" y="0"> </tspan></text>
    <text transform="translate(1903 304.73) rotate(35.95) scale(.72 1)" style="fill: #fff; font-family: ArchivoCondensed-Medium, &apos;ArchivoCondensed Medium&apos;; font-size: 25.48px; font-weight: 500;"><tspan x="0" y="0">d</tspan></text>
    <text transform="translate(1912.01 311.26) rotate(35.95) scale(.72 1)" style="fill: #fff; font-family: ArchivoCondensed-Medium, &apos;ArchivoCondensed Medium&apos;; font-size: 25.48px; font-weight: 500;"><tspan x="0" y="0">e</tspan></text>
    <text transform="translate(1920.11 317.13) rotate(35.95) scale(.72 1)" style="fill: #fff; font-family: ArchivoCondensed-Medium, &apos;ArchivoCondensed Medium&apos;; font-size: 25.48px; font-weight: 500;"><tspan x="0" y="0"> </tspan></text>
    <text transform="translate(1923.87 319.86) rotate(35.95) scale(.72 1)" style="fill: #fff; font-family: ArchivoCondensed-Medium, &apos;ArchivoCondensed Medium&apos;; font-size: 25.48px; font-weight: 500;"><tspan x="0" y="0">C</tspan></text>
    <text transform="translate(1932.96 326.45) rotate(35.95) scale(.72 1)" style="fill: #fff; font-family: ArchivoCondensed-Medium, &apos;ArchivoCondensed Medium&apos;; font-size: 25.48px; font-weight: 500;"><tspan x="0" y="0">e</tspan></text>
    <text transform="translate(1941.03 332.3) rotate(35.95) scale(.72 1)" style="fill: #fff; font-family: ArchivoCondensed-Medium, &apos;ArchivoCondensed Medium&apos;; font-size: 25.48px; font-weight: 500;"><tspan x="0" y="0">p</tspan></text>
    <text transform="translate(1950.12 338.9) rotate(35.95) scale(.72 1)" style="fill: #fff; font-family: ArchivoCondensed-Medium, &apos;ArchivoCondensed Medium&apos;; font-size: 25.48px; font-weight: 500;"><tspan x="0" y="0">e</tspan></text>
    <text transform="translate(1958.2 344.76) rotate(35.95) scale(.72 1)" style="fill: #fff; font-family: ArchivoCondensed-Medium, &apos;ArchivoCondensed Medium&apos;; font-size: 25.48px; font-weight: 500;"><tspan x="0" y="0">d</tspan></text>
    <text transform="translate(1967.23 351.31) rotate(35.95) scale(.72 1)" style="fill: #fff; font-family: ArchivoCondensed-Medium, &apos;ArchivoCondensed Medium&apos;; font-size: 25.48px; font-weight: 500;"><tspan x="0" y="0">a</tspan></text>
  </g>
</svg>
