<?xml version="1.0" encoding="UTF-8"?>
<svg id="Capa_1" data-name="Capa 1" xmlns="http://www.w3.org/2000/svg" viewBox="0 0 2112.38 1244.98">
  <defs>
    <style>
      .cls-1 {
        fill: #65b137;
      }

      .cls-2 {
        fill: #e1d7ce;
      }

      .cls-3 {
        fill: #89cae4;
      }

      .cls-4 {
        stroke: #e6e3d2;
        stroke-miterlimit: 10;
        stroke-width: .75px;
      }

      .cls-4, .cls-5 {
        fill: none;
      }

      .cls-6 {
        fill: #fff;
      }

      .cls-7 {
        fill: #19a852;
      }

      .cls-8 {
        fill: #e6e3d2;
      }

      .cls-9 {
        fill: #e3666b;
      }

      .cls-10 {
        fill: #ed6a6f;
      }

      .cls-11 {
        fill: #fab61b;
      }

      .cls-12 {
        fill: #f8f1e3;
      }

      .cls-13 {
        fill: #845592;
      }

      .cls-14 {
        fill: #126739;
      }

      .cls-15 {
        fill: #17355c;
      }

      .cls-16 {
        fill: #efd19d;
      }
    </style>
  </defs>
  <rect class="cls-15" width="2112.38" height="1244.98"/>
  <g>
    <g>
      <path class="cls-6" d="M960.6,1134.9c1.75-.27,4.05-.51,6.98-.51,3.59,0,6.23.78,7.9,2.19,1.55,1.25,2.47,3.16,2.47,5.51s-.75,4.26-2.17,5.62c-1.92,1.91-5.06,2.89-8.61,2.89-1.09,0-2.09-.04-2.93-.23v10.54h-3.64v-26.01ZM964.24,1147.59c.79.2,1.8.27,3.01.27,4.39,0,7.06-1.99,7.06-5.62s-2.63-5.15-6.65-5.15c-1.59,0-2.8.12-3.43.27v10.23Z"/>
      <path class="cls-6" d="M984.51,1134.59h3.64v23.47h12.04v2.85h-15.67v-26.32Z"/>
      <path class="cls-6" d="M1010.47,1152.63l-2.92,8.28h-3.76l9.57-26.32h4.39l9.61,26.32h-3.89l-3.01-8.28h-9.99ZM1019.71,1149.97l-2.76-7.58c-.63-1.72-1.04-3.28-1.46-4.8h-.08c-.42,1.56-.88,3.16-1.42,4.76l-2.76,7.61h8.48Z"/>
      <path class="cls-6" d="M1031.25,1158.91l15.63-21.36v-.12h-14.29v-2.85h19.02v2.07l-15.55,21.28v.12h15.76v2.85h-20.56v-1.99Z"/>
      <path class="cls-6" d="M1081.15,1147.47c0,9.06-5.89,13.86-13.08,13.86s-12.66-5.39-12.66-13.35c0-8.36,5.56-13.82,13.08-13.82s12.66,5.5,12.66,13.31ZM1059.29,1147.9c0,5.62,3.26,10.66,8.99,10.66s9.03-4.96,9.03-10.93c0-5.23-2.93-10.7-8.99-10.7s-9.03,5.19-9.03,10.97Z"/>
      <path class="cls-6" d="M1087.55,1134.59h3.64v23.47h12.04v2.85h-15.67v-26.32Z"/>
      <path class="cls-6" d="M1123.54,1148.56h-10.95v9.49h12.2v2.85h-15.84v-26.32h15.21v2.85h-11.58v8.32h10.95v2.81Z"/>
      <path class="cls-6" d="M1137.21,1137.47h-8.57v-2.89h20.86v2.89h-8.61v23.43h-3.68v-23.43Z"/>
      <path class="cls-6" d="M1155.73,1152.63l-2.92,8.28h-3.76l9.57-26.32h4.39l9.61,26.32h-3.89l-3.01-8.28h-9.99ZM1164.96,1149.97l-2.76-7.58c-.63-1.72-1.04-3.28-1.46-4.8h-.08c-.42,1.56-.88,3.16-1.42,4.76l-2.76,7.61h8.48Z"/>
    </g>
    <g>
      <path class="cls-14" d="M1020.44,1026.9l-16.63,16.33c-5.3-5.21-8.18-11.02-8.65-16.89-.5,6.33,1.82,12.71,6.94,18.47l1.71,1.22,17.2-16.15-.57-2.98Z"/>
      <g>
        <path class="cls-5" d="M1041.64,1059.87c-.1-.01-.2-.02-.3-.04.1.02.2.02.3.04Z"/>
        <path class="cls-5" d="M1026.83,1056.33c-.19-.06-.4-.12-.59-.18.19.07.4.12.59.18Z"/>
        <path class="cls-5" d="M1036.95,1059.01c-.26-.05-.53-.09-.79-.15.26.06.53.09.79.15Z"/>
        <path class="cls-5" d="M1031.35,1057.7c-.07-.02-.15-.03-.23-.06.07.02.15.03.23.06Z"/>
        <path class="cls-5" d="M1052.05,1060.94s-.07,0-.11,0c.04,0,.07,0,.11,0Z"/>
        <path class="cls-5" d="M1047.01,1060.55c-.13-.01-.27-.02-.4-.03.13.01.27.02.4.03Z"/>
        <path class="cls-5" d="M1085.31,1057.33c-.59.17-1.17.36-1.77.52.6-.16,1.18-.35,1.77-.52Z"/>
        <path class="cls-5" d="M1091.44,1055.31c-.99.37-1.97.76-2.99,1.09,1.02-.34,2-.72,2.99-1.09Z"/>
        <path class="cls-5" d="M1079.33,1058.84c-.29.06-.56.14-.85.2.29-.06.56-.14.85-.2Z"/>
        <path class="cls-5" d="M1062.99,1060.96c-.1,0-.2.02-.3.02.1,0,.2-.02.3-.02Z"/>
        <path class="cls-5" d="M1068.11,1060.59s-.06,0-.08.01c.03,0,.06,0,.08-.01Z"/>
        <path class="cls-5" d="M1057.4,1061.09s-.06,0-.08,0c.03,0,.06,0,.08,0Z"/>
        <path class="cls-5" d="M1021.56,1054.39c.3.13.63.23.93.35-.31-.12-.63-.22-.93-.35h0Z"/>
        <path class="cls-5" d="M1101.9,1050.44c-2.74,1.59-5.66,3.01-8.74,4.25,3.07-1.24,6-2.65,8.74-4.25,5.02-2.93,9.01-6.23,11.97-9.75-2.96,3.52-6.95,6.82-11.97,9.75Z"/>
        <path class="cls-14" d="M1021.56,1054.39h0s-.02,0-.02,0l14.54-13.48-.08-.11s-16.58,15.33-16.96,15.91l2.49-2.31s.02,0,.02,0Z"/>
        <path class="cls-14" d="M1120.15,1026.35c-.35,4.38-2.04,8.73-5.08,12.82-.38.51-.78,1.02-1.2,1.52-2.96,3.52-6.95,6.82-11.97,9.75-2.74,1.59-5.66,3.01-8.74,4.25-.56.23-1.15.41-1.72.63-.99.37-1.97.76-2.99,1.09-1.03.34-2.08.63-3.13.93-.59.17-1.17.36-1.77.52-1.38.37-2.79.68-4.21.99-.29.06-.56.14-.85.2-3.39.69-6.87,1.21-10.38,1.55-.03,0-.06,0-.08.01-1.67.16-3.35.28-5.04.36-.1,0-.2.02-.3.02-1.76.08-3.52.12-5.28.11-.03,0-.06,0-.08,0-1.76,0-3.51-.06-5.26-.15-.04,0-.07,0-.11,0-1.65-.09-3.3-.23-4.93-.39-.13-.01-.27-.02-.4-.03-1.67-.18-3.33-.4-4.97-.65-.1-.02-.2-.02-.3-.04-1.48-.23-2.93-.52-4.38-.81-.26-.05-.53-.09-.79-.15-1.63-.35-3.23-.74-4.81-1.17-.07-.02-.15-.03-.23-.06-1.46-.4-2.88-.84-4.29-1.31-.19-.06-.4-.12-.59-.18-1.28-.43-2.52-.92-3.75-1.41-.31-.12-.63-.22-.93-.35l-2.52,2.3c24.55,11.26,60.21,10.32,82.85-2.88,12.95-7.55,19.04-17.59,18.25-27.47Z"/>
        <path class="cls-14" d="M1021.54,1054.38l-2.49,2.31,2.52-2.3s-.02,0-.02,0Z"/>
        <path class="cls-7" d="M1013.42,1002.25c24.43-14.24,64.04-14.24,88.48,0,11.48,6.69,17.56,15.33,18.25,24.09h0c.78-9.89-5.3-19.92-18.25-27.47-24.43-14.24-64.05-14.24-88.48,0-12.95,7.55-19.04,17.58-18.25,27.47.69-8.76,6.78-17.4,18.25-24.09Z"/>
        <path class="cls-7" d="M1021.56,1054.39c.3.13.63.23.93.35,1.23.49,2.47.97,3.75,1.41.19.07.4.12.59.18,1.41.47,2.84.91,4.29,1.31.07.02.15.03.23.06,1.58.43,3.18.82,4.81,1.17.26.06.53.09.79.15,1.45.3,2.91.58,4.38.81.1.02.2.02.3.04,1.64.25,3.3.48,4.97.65.13.01.27.02.4.03,1.64.17,3.28.3,4.93.39.04,0,.07,0,.11,0,1.75.09,3.5.14,5.26.15.03,0,.06,0,.08,0,1.76,0,3.53-.03,5.28-.11.1,0,.2-.02.3-.02,1.68-.08,3.37-.2,5.04-.36.03,0,.06,0,.08-.01,3.51-.34,6.99-.86,10.38-1.55.29-.06.56-.14.85-.2,1.42-.3,2.83-.62,4.21-.99.6-.16,1.18-.35,1.77-.52,1.05-.3,2.11-.59,3.13-.93,1.02-.34,2-.72,2.99-1.09.57-.21,1.16-.4,1.72-.63,3.07-1.24,6-2.65,8.74-4.25,5.02-2.93,9.01-6.23,11.97-9.75.42-.5.82-1.01,1.2-1.52,3.04-4.09,4.74-8.44,5.08-12.82-.69-8.76-6.78-17.4-18.25-24.09-24.43-14.24-64.05-14.24-88.48,0-11.48,6.69-17.56,15.33-18.25,24.09.46,5.87,3.35,11.68,8.65,16.89l37.1-34.39,13.61,14.96-18.44,17.09.09.13-14.61,13.36Z"/>
        <path class="cls-7" d="M1021.56,1054.39l14.61-13.36-.09-.13-14.54,13.48s.02,0,.02,0Z"/>
        <path class="cls-7" d="M1093.16,1054.69c-.56.23-1.15.41-1.72.63.57-.21,1.16-.4,1.72-.63Z"/>
        <path class="cls-7" d="M1088.45,1056.41c-1.03.34-2.08.63-3.13.93,1.05-.3,2.11-.59,3.13-.93Z"/>
        <path class="cls-7" d="M1078.49,1059.04c-3.39.69-6.87,1.21-10.38,1.55,3.51-.34,6.99-.86,10.38-1.55Z"/>
        <path class="cls-7" d="M1083.54,1057.86c-1.38.37-2.79.68-4.21.99,1.42-.3,2.83-.62,4.21-.99Z"/>
        <path class="cls-7" d="M1068.02,1060.6c-1.67.16-3.35.28-5.04.36,1.68-.08,3.37-.2,5.04-.36Z"/>
        <path class="cls-7" d="M1046.61,1060.52c-1.67-.18-3.33-.4-4.97-.65,1.64.25,3.3.48,4.97.65Z"/>
        <path class="cls-7" d="M1062.68,1060.98c-1.76.08-3.52.12-5.28.11,1.76,0,3.53-.03,5.28-.11Z"/>
        <path class="cls-7" d="M1036.17,1058.87c-1.63-.35-3.23-.74-4.81-1.17,1.58.43,3.18.82,4.81,1.17Z"/>
        <path class="cls-7" d="M1026.24,1056.15c-1.28-.43-2.52-.92-3.75-1.41,1.23.49,2.47.97,3.75,1.41Z"/>
        <path class="cls-7" d="M1115.07,1039.17c3.04-4.09,4.74-8.44,5.08-12.82h0c-.35,4.38-2.04,8.73-5.08,12.82Z"/>
        <path class="cls-7" d="M1041.34,1059.83c-1.48-.23-2.93-.52-4.38-.81,1.45.3,2.91.58,4.38.81Z"/>
        <path class="cls-7" d="M1031.13,1057.64c-1.46-.4-2.88-.84-4.29-1.31,1.41.47,2.84.91,4.29,1.31Z"/>
        <path class="cls-7" d="M1057.31,1061.1c-1.76,0-3.51-.06-5.26-.15,1.75.09,3.5.14,5.26.15Z"/>
        <path class="cls-7" d="M1051.94,1060.94c-1.65-.09-3.3-.23-4.93-.39,1.64.17,3.28.3,4.93.39Z"/>
      </g>
      <g>
        <polygon class="cls-2" points="1016.94 1020.87 1021.01 1016.41 1016.94 1012.3 1016.94 1020.87"/>
        <g>
          <polygon class="cls-2" points="1098.38 1020.87 1098.38 1012.3 1093.83 1012.3 1098.38 1020.87"/>
          <path class="cls-2" d="M1086.45,1004.09c-15.9-9.27-41.68-9.27-57.59,0-15.9,9.27-15.9,24.3,0,33.56,15.9,9.27,41.68,9.27,57.59,0,15.9-9.27,15.9-24.29,0-33.56Z"/>
          <path class="cls-2" d="M1086.45,995.51c-15.91-9.27-41.68-9.27-57.59,0-7.95,4.64-11.92,10.71-11.92,16.79,0,4.67,2.35,9.34,7.07,13.35,1.41,1.21,3.02,2.35,4.86,3.42,15.91,9.27,41.69,9.27,57.59,0,1.82-1.06,3.42-2.19,4.82-3.38,10.88-9.24,9.27-21.97-4.82-30.19Z"/>
          <path class="cls-15" d="M1084.32,1000.19c-14.73-8.58-38.6-8.58-53.32,0-7.36,4.29-11.05,9.91-11.05,15.54,0,3.41,1.35,6.82,4.06,9.93,1.41,1.21,3.02,2.35,4.86,3.42,15.91,9.27,41.69,9.27,57.59,0,1.82-1.06,3.42-2.19,4.82-3.38,7.22-8.26,4.9-18.61-6.96-25.51Z"/>
          <path class="cls-12" d="M1069.81,1008.19c-6.71-3.91-17.59-3.91-24.3,0-3.36,1.95-5.04,4.52-5.04,7.08,0,1.55.62,3.11,1.85,4.52.64.55,1.38,1.07,2.21,1.56,7.25,4.22,19,4.22,26.24,0,.83-.48,1.56-1,2.2-1.54,3.29-3.76,2.23-8.48-3.17-11.63Z"/>
          <path class="cls-12" d="M1086.45,995.51c-7.95-4.63-18.37-6.95-28.79-6.95-10.42,0-20.84,2.32-28.79,6.95-7.95,4.64-11.92,10.71-11.92,16.79,0,4.67,2.35,9.34,7.07,13.35,1.41,1.21,3.02,2.35,4.86,3.42,7.95,4.63,18.38,6.95,28.8,6.95,10.42,0,20.84-2.32,28.79-6.95,1.82-1.06,3.42-2.19,4.82-3.38,10.88-9.24,9.27-21.97-4.82-30.19ZM1090.18,1024.39c-1.35,1.14-2.88,2.22-4.58,3.2-7.43,4.33-17.36,6.72-27.94,6.72-10.58,0-20.51-2.39-27.95-6.72-1.72-1-3.27-2.1-4.61-3.25-4.23-3.6-6.46-7.76-6.46-12.05,0-5.7,3.93-11.13,11.07-15.3,7.44-4.33,17.36-6.72,27.94-6.72,10.58,0,20.51,2.39,27.94,6.72,6.65,3.88,10.57,8.93,11.03,14.24.41,4.67-1.82,9.22-6.46,13.15Z"/>
          <g>
            <path class="cls-2" d="M1061.64,1010.66c-2.2-1.28-5.76-1.28-7.96,0-2.2,1.28-2.2,3.36,0,4.64,2.2,1.28,5.76,1.28,7.96,0,2.2-1.28,2.2-3.36,0-4.64Z"/>
            <polygon class="cls-2" points="1052.03 1012.98 1063.29 1012.98 1063.29 999.84 1052.03 999.92 1052.03 1012.98"/>
            <path class="cls-12" d="M1061.64,997.51c-2.2-1.28-5.76-1.28-7.96,0-2.2,1.28-2.2,3.36,0,4.64,2.2,1.28,5.76,1.28,7.96,0,2.2-1.28,2.2-3.36,0-4.64Z"/>
          </g>
          <g>
            <path class="cls-2" d="M1060,997.99c-1.29-.75-3.38-.75-4.67,0-1.29.75-1.29,1.97,0,2.72,1.29.75,3.38.75,4.67,0,1.29-.75,1.29-1.97,0-2.72Z"/>
            <polygon class="cls-2" points="1054.35 999.35 1060.96 999.35 1060.96 984.73 1054.35 984.82 1054.35 999.35"/>
            <path class="cls-12" d="M1060,983.36c-1.29-.75-3.38-.75-4.67,0-1.29.75-1.29,1.97,0,2.72,1.29.75,3.38.75,4.67,0,1.29-.75,1.29-1.97,0-2.72Z"/>
          </g>
        </g>
      </g>
    </g>
    <line class="cls-4" x1="1063.29" y1="1074.55" x2="1063.29" y2="1120.03"/>
  </g>
  <path class="cls-3" d="M396.94,334.75h177.82v53.23s14.41,0,14.41,0v39.92h-16.01v-11.97s-44.4,0-44.4,0v11.97h-139.66s-1.69-83.58-1.69-83.58c-.11-5.26,4.19-9.58,9.53-9.58Z"/>
  <path class="cls-3" d="M396.94,816.63h177.82s0-53.23,0-53.23h14.41s0-39.92,0-39.92h-16.01s0,11.97,0,11.97h-44.4v-11.97s-139.66,0-139.66,0l-1.69,83.58c-.11,5.26,4.19,9.58,9.53,9.58Z"/>
  <polygon class="cls-3" points="388.23 523.9 528.77 523.9 528.77 512.28 573.17 512.28 573.17 523.9 589.18 523.9 589.18 482.79 589.18 481.7 589.18 433.12 573.17 433.12 573.17 444.74 528.77 444.74 528.77 433.12 388.23 433.12 388.23 523.9"/>
  <polygon class="cls-3" points="388.23 621.08 528.77 621.08 528.77 609.47 573.17 609.47 573.17 621.08 589.18 621.08 589.18 579.97 589.18 578.88 589.18 530.3 573.17 530.3 573.17 541.92 528.77 541.92 528.77 530.3 388.23 530.3 388.23 621.08"/>
  <polygon class="cls-3" points="388.23 718.26 528.77 718.26 528.77 706.65 573.17 706.65 573.17 718.26 589.18 718.26 589.18 677.15 589.18 676.06 589.18 627.48 573.17 627.48 573.17 639.1 528.77 639.1 528.77 627.48 388.23 627.48 388.23 718.26"/>
  <path class="cls-11" d="M1715.44,334.75h-177.82s0,53.23,0,53.23h-14.41s0,39.92,0,39.92h16.01s0-11.97,0-11.97h44.4v11.97s139.66,0,139.66,0l1.69-83.58c.11-5.26-4.19-9.58-9.53-9.58Z"/>
  <path class="cls-11" d="M1715.44,816.63h-177.82v-53.23s-14.41,0-14.41,0v-39.92h16.01v11.97s44.4,0,44.4,0v-11.97h139.66s1.69,83.58,1.69,83.58c.11,5.26-4.19,9.58-9.53,9.58Z"/>
  <polygon class="cls-11" points="1724.15 523.9 1583.61 523.9 1583.61 512.28 1539.21 512.28 1539.21 523.9 1523.2 523.9 1523.2 482.79 1523.2 481.7 1523.2 433.12 1539.21 433.12 1539.21 444.74 1583.61 444.74 1583.61 433.12 1724.15 433.12 1724.15 523.9"/>
  <polygon class="cls-11" points="1724.15 621.08 1583.61 621.08 1583.61 609.47 1539.21 609.47 1539.21 621.08 1523.2 621.08 1523.2 579.97 1523.2 578.88 1523.2 530.3 1539.21 530.3 1539.21 541.92 1583.61 541.92 1583.61 530.3 1724.15 530.3 1724.15 621.08"/>
  <polygon class="cls-11" points="1724.15 718.26 1583.61 718.26 1583.61 706.65 1539.21 706.65 1539.21 718.26 1523.2 718.26 1523.2 677.15 1523.2 676.06 1523.2 627.48 1539.21 627.48 1539.21 639.1 1583.61 639.1 1583.61 627.48 1724.15 627.48 1724.15 718.26"/>
  <path class="cls-3" d="M607.35,455.68c-3.25,0-6.3-1.99-7.18-5.08-.15-.54-.24-1.06-.23-1.52-2.94-43.9.05-85.01,6.5-125.05.74-4.62,6.04-7.16,10.39-5.27.44.19.88.39,1.34.59,18.13,8.11,48.14,29.5,66.5,41l45.32,28.36c1,.63,1.84,1.47,2.44,2.47,1.04,1.76,2.75,3.93,2.75,4.61v48.42c0,6.3-5.23,11.46-11.63,11.46h-116.2Z"/>
  <path class="cls-7" d="M766.71,370.42l-11.33-.16c-2.28-.03-4.35-1.28-5.42-3.27l-66.55-123.92c-1.55-2.89-.56-6.5,2.31-8.14,3.12-1.78,7.03-3.37,8.92-4.14,17.79-7.15,49.93-11.02,69.04-9.46,2.77.23,9.34,1.15,9.34,4.12v138.83c0,3.42-2.84,6.19-6.32,6.14Z"/>
  <path class="cls-7" d="M676.91,245.28l65.97,119.08c2.74,9.27-8.86,20.94-17.74,14.71l-106.11-65.88-3.62-2.27c-1.35-.84-1.97-2.43-1.59-3.96,3.68-14.43,40.91-58.72,58.45-63.68,1.81-.51,3.73.37,4.63,2Z"/>
  <path class="cls-3" d="M607.35,695.71c-3.25,0-6.3,1.99-7.18,5.08-.15.54-.24,1.06-.23,1.52-2.94,43.9.05,85.01,6.5,125.05.74,4.62,6.04,7.16,10.39,5.27.44-.19.88-.39,1.34-.59,18.13-8.11,48.14-29.5,66.5-41l45.32-28.36c1-.63,1.84-1.47,2.44-2.47,1.04-1.76,2.75-3.93,2.75-4.61v-48.42c0-6.3-5.23-11.46-11.63-11.46h-116.2Z"/>
  <path class="cls-9" d="M766.71,780.96l-11.33.16c-2.28.03-4.35,1.28-5.42,3.27l-66.55,123.92c-1.55,2.89-.56,6.5,2.31,8.14,3.12,1.78,7.03,3.37,8.92,4.14,17.79,7.15,49.93,11.02,69.04,9.46,2.77-.23,9.34-1.15,9.34-4.12v-138.83c0-3.42-2.84-6.19-6.32-6.14Z"/>
  <path class="cls-8" d="M676.91,906.11l65.97-119.08c2.74-9.27-8.86-20.94-17.74-14.71l-106.11,65.88-3.62,2.27c-1.35.84-1.97,2.43-1.59,3.96,3.68,14.43,40.91,58.72,58.45,63.68,1.81.51,3.73-.37,4.63-2Z"/>
  <path class="cls-7" d="M1350.47,370.42l11.33-.16c2.28-.03,4.35-1.28,5.42-3.27l66.55-123.92c1.55-2.89.56-6.5-2.31-8.14-3.12-1.78-7.03-3.37-8.92-4.14-17.79-7.15-49.93-11.02-69.04-9.46-2.77.23-9.34,1.15-9.34,4.12v138.83c0,3.42,2.84,6.19,6.32,6.14Z"/>
  <path class="cls-7" d="M1437.93,249.51l-63.27,114.22c-.23.42-.26.93-.53,1.33-5.27,7.88.79,15.66,9.45,9.59l114.57-61.46h0c3.85-2.41,5.19-7.28,3.18-11.32-7.85-15.75-33.83-46.25-50.61-55.98-4.49-2.61-10.3-.89-12.79,3.62Z"/>
  <path class="cls-7" d="M1513.88,386.27c.07,3.06-2.57,5.53-5.67,5.53h-122.19c-3.73,0-6.44-3.48-5.48-7.03h0c.42-1.55,1.49-2.84,2.94-3.56,39.17-19.29,76.33-41.41,116.53-58.74,3.22-1.39,9.13-.29,10.06,5.79l3.81,58Z"/>
  <path class="cls-9" d="M1350.47,780.96l11.33.16c2.28.03,4.35,1.28,5.42,3.27l66.55,123.92c1.55,2.89.56,6.5-2.31,8.14-3.12,1.78-7.03,3.37-8.92,4.14-17.79,7.15-49.93,11.02-69.04,9.46-2.77-.23-9.34-1.15-9.34-4.12v-138.83c0-3.42,2.84-6.19,6.32-6.14Z"/>
  <path class="cls-9" d="M1437.93,901.88l-63.27-114.22c-.23-.42-.26-.93-.53-1.33-5.27-7.88.79-15.66,9.45-9.59l114.57,61.46h0c3.85,2.41,5.19,7.28,3.18,11.32-7.85,15.75-33.83,46.25-50.61,55.98-4.49,2.61-10.3.89-12.79-3.62Z"/>
  <path class="cls-9" d="M1513.88,765.11c.07-3.06-2.57-5.53-5.67-5.53h-122.19c-3.73,0-6.44,3.48-5.48,7.03h0c.42,1.55,1.49,2.84,2.94,3.56,39.17,19.29,76.33,41.41,116.53,58.74,3.22,1.39,9.13.29,10.06-5.79l3.81-58Z"/>
  <path class="cls-7" d="M822.87,285.34h-40.88c-.62,0-1.12-.5-1.12-1.12v-61.64c0-.62.5-1.12,1.12-1.12h40.88c.62,0,1.12.5,1.12,1.12v61.64c0,.62-.5,1.12-1.12,1.12ZM895.31,284.22v-61.64c0-.62-.5-1.12-1.12-1.12h-66.96c-.62,0-1.12.5-1.12,1.12v61.64c0,.62.5,1.12,1.12,1.12h66.96c.62,0,1.12-.5,1.12-1.12ZM961.78,284.22v-61.64c0-.62-.5-1.12-1.12-1.12h-61.57c-.62,0-1.12.5-1.12,1.12v61.64c0,.62.5,1.12,1.12,1.12h61.57c.62,0,1.12-.5,1.12-1.12ZM1052.34,284.22v-61.64c0-.62-.5-1.12-1.12-1.12h-82.92c-.62,0-1.12.5-1.12,1.12v61.64c0,.62.5,1.12,1.12,1.12h82.92c.62,0,1.12-.5,1.12-1.12Z"/>
  <path class="cls-7" d="M1292.3,284.22v-61.64c0-.62.5-1.12,1.12-1.12h42.57c.62,0,1.12.5,1.12,1.12v61.64c0,.62-.5,1.12-1.12,1.12h-42.57c-.62,0-1.12-.5-1.12-1.12ZM1219.3,285.34h69.67c.62,0,1.12-.5,1.12-1.12v-61.64c0-.62-.5-1.12-1.12-1.12h-69.67c-.62,0-1.12.5-1.12,1.12v61.64c0,.62.5,1.12,1.12,1.12ZM1150.22,285.34h64.07c.62,0,1.12-.5,1.12-1.12v-61.64c0-.62-.5-1.12-1.12-1.12h-64.07c-.62,0-1.12.5-1.12,1.12v61.64c0,.62.5,1.12,1.12,1.12ZM1056.12,285.34h86.26c.62,0,1.12-.5,1.12-1.12v-61.64c0-.62-.5-1.12-1.12-1.12h-86.26c-.62,0-1.12.5-1.12,1.12v61.64c0,.62.5,1.12,1.12,1.12Z"/>
  <rect class="cls-7" x="780.87" y="290.66" width="114.44" height="79.85" rx="2.88" ry="2.88"/>
  <rect class="cls-7" x="897.97" y="290.66" width="154.19" height="79.85" rx="2.88" ry="2.88"/>
  <rect class="cls-7" x="1219.22" y="290.66" width="117.88" height="79.85" rx="2.88" ry="2.88" transform="translate(2556.33 661.17) rotate(-180)"/>
  <rect class="cls-7" x="1057.66" y="290.66" width="158.82" height="79.85" rx="2.88" ry="2.88" transform="translate(2274.14 661.17) rotate(-180)"/>
  <rect class="cls-3" x="599.12" y="461" width="136.05" height="72.53" rx="3.2" ry="3.2"/>
  <rect class="cls-11" x="1378.18" y="398.01" width="136.05" height="65.75" rx="3.2" ry="3.2"/>
  <rect class="cls-11" x="1378.18" y="469.38" width="136.05" height="65.75" rx="3.2" ry="3.2"/>
  <rect class="cls-11" x="1378.18" y="540.76" width="136.05" height="65.75" rx="3.2" ry="3.2"/>
  <rect class="cls-11" x="1378.18" y="612.13" width="136.05" height="65.75" rx="3.2" ry="3.2"/>
  <rect class="cls-11" x="1378.18" y="683.5" width="136.05" height="65.75" rx="3.2" ry="3.2"/>
  <rect class="cls-3" x="599.12" y="539.18" width="136.05" height="72.53" rx="3.2" ry="3.2"/>
  <rect class="cls-3" x="599.12" y="617.36" width="136.05" height="72.53" rx="3.2" ry="3.2"/>
  <rect class="cls-9" x="778.43" y="783.05" width="113.55" height="75.89" rx="3.25" ry="3.25"/>
  <path class="cls-10" d="M1040.68,783.05h-134.49c-4.86,0-8.8,3.88-8.8,8.67v58.55c0,4.79,3.94,8.67,8.8,8.67h148.02s0-20,0-20h-13.53v-55.88Z"/>
  <path class="cls-9" d="M816.33,929.43h-34.74c-1.75,0-3.16-1.42-3.16-3.16v-60.21c0-1.75,1.42-3.16,3.16-3.16h34.74c1.75,0,3.16,1.42,3.16,3.16v60.21c0,1.75-1.42,3.16-3.16,3.16ZM941.17,926.27v-60.21c0-1.75-1.42-3.16-3.16-3.16h-37.46c-1.75,0-3.16,1.42-3.16,3.16v60.21c0,1.75,1.42,3.16,3.16,3.16h37.46c1.75,0,3.16-1.42,3.16-3.16ZM998.14,892.96v-27.84c0-1.23-1-2.23-2.23-2.23h-48.11c-1.23,0-2.23,1-2.23,2.23v27.84c0,1.23,1,2.23,2.23,2.23h48.11c1.23,0,2.23-1,2.23-2.23ZM1055.11,892.96v-27.84c0-1.23-1-2.23-2.23-2.23h-48.11c-1.23,0-2.23,1-2.23,2.23v27.84c0,1.23,1,2.23,2.23,2.23h48.11c1.23,0,2.23-1,2.23-2.23ZM892.21,926.27v-60.21c0-1.75-1.42-3.16-3.16-3.16h-61.19c-1.75,0-3.16,1.42-3.16,3.16v60.21c0,1.75,1.42,3.16,3.16,3.16h61.19c1.75,0,3.16-1.42,3.16-3.16Z"/>
  <rect class="cls-9" x="1224.42" y="783.05" width="113.55" height="75.89" rx="3.25" ry="3.25" transform="translate(2562.4 1641.98) rotate(-180)"/>
  <path class="cls-13" d="M1075.72,783.05h134.49c4.86,0,8.8,3.88,8.8,8.67v58.55c0,4.79-3.94,8.67-8.8,8.67h-148.02v-20h13.53s0-55.88,0-55.88Z"/>
  <rect class="cls-9" x="1175.23" y="862.9" width="43.78" height="66.54" rx="3.16" ry="3.16" transform="translate(2394.25 1792.33) rotate(-180)"/>
  <path class="cls-9" d="M1296.91,926.27v-60.21c0-1.75,1.42-3.16,3.16-3.16h34.74c1.75,0,3.16,1.42,3.16,3.16v60.21c0,1.75-1.42,3.16-3.16,3.16h-34.74c-1.75,0-3.16-1.42-3.16-3.16ZM1120.49,895.19h48.11c1.23,0,2.23-1,2.23-2.23v-27.84c0-1.23-1-2.23-2.23-2.23h-48.11c-1.23,0-2.23,1-2.23,2.23v27.84c0,1.23,1,2.23,2.23,2.23ZM1063.52,895.19h48.11c1.23,0,2.23-1,2.23-2.23v-27.84c0-1.23-1-2.23-2.23-2.23h-48.11c-1.23,0-2.23,1-2.23,2.23v27.84c0,1.23,1,2.23,2.23,2.23ZM1227.36,929.43h61.19c1.75,0,3.16-1.42,3.16-3.16v-60.21c0-1.75-1.42-3.16-3.16-3.16h-61.19c-1.75,0-3.16,1.42-3.16,3.16v60.21c0,1.75,1.42,3.16,3.16,3.16Z"/>
  <path class="cls-15" d="M461.11,796.47l-14.31-5.43v-3.78l14.31-5.43v3.31l-2.82,1.01v6.15l2.82,1.01v3.17ZM455.79,791.41v-4.38l-3.52,1.25c-.15.06-.34.12-.55.2-.22.08-.46.15-.72.24-.26.08-.52.16-.78.24-.26.08-.49.15-.7.22v.12c.26.07.57.16.93.27.35.11.7.22,1.02.33.33.11.6.2.8.27l3.52,1.25Z"/>
  <path class="cls-15" d="M461.11,779.33h-14.31v-3.06h11.66v-7.11h2.65v10.17Z"/>
  <path class="cls-15" d="M461.11,764.82h-11.7v4.52h-2.61v-12.15h2.61v4.54h11.7v3.08Z"/>
  <path class="cls-15" d="M461.11,757.46l-14.31-5.43v-3.78l14.31-5.43v3.31l-2.82,1.01v6.15l2.82,1.01v3.17ZM455.79,752.4v-4.38l-3.52,1.25c-.15.06-.34.12-.55.2-.22.08-.46.15-.72.24-.26.08-.52.16-.78.24-.26.08-.49.15-.7.22v.12c.26.07.57.16.93.27.35.11.7.22,1.02.33.33.11.6.2.8.27l3.52,1.25Z"/>
  <path class="cls-15" d="M497.12,784.8l-29.64-11.24v-7.83l29.64-11.24v6.86l-5.83,2.09v12.73l5.83,2.09v6.56ZM486.1,774.33v-9.07l-7.3,2.6c-.32.11-.7.25-1.14.4-.45.16-.94.32-1.49.49s-1.09.33-1.62.49c-.53.16-1.02.31-1.45.45v.26c.55.14,1.19.33,1.92.55.73.23,1.44.45,2.12.68.68.23,1.23.41,1.66.55l7.3,2.6Z"/>
  <path class="cls-15" d="M461.11,699.7l-14.31-5.43v-3.78l14.31-5.43v3.31l-2.82,1.01v6.15l2.82,1.01v3.17ZM455.79,694.64v-4.38l-3.52,1.25c-.15.06-.34.12-.55.2-.22.08-.46.15-.72.24-.26.08-.52.16-.78.24-.26.08-.49.15-.7.22v.12c.26.07.57.16.93.27.35.11.7.22,1.02.33.33.11.6.2.8.27l3.52,1.25Z"/>
  <path class="cls-15" d="M461.11,682.56h-14.31v-3.06h11.66v-7.11h2.65v10.17Z"/>
  <path class="cls-15" d="M461.11,668.05h-11.7v4.52h-2.61v-12.15h2.61v4.54h11.7v3.08Z"/>
  <path class="cls-15" d="M461.11,660.69l-14.31-5.43v-3.78l14.31-5.43v3.31l-2.82,1.01v6.15l2.82,1.01v3.17ZM455.79,655.64v-4.38l-3.52,1.25c-.15.06-.34.12-.55.2-.22.08-.46.15-.72.24-.26.08-.52.16-.78.24-.26.08-.49.15-.7.22v.12c.26.07.57.16.93.27.35.11.7.22,1.02.33.33.11.6.2.8.27l3.52,1.25Z"/>
  <path class="cls-15" d="M497.12,685.01h-29.64v-16.69c0-1.53.3-2.92.91-4.15.6-1.23,1.45-2.21,2.55-2.92,1.09-.71,2.38-1.06,3.85-1.06,1.18,0,2.23.21,3.15.64.92.43,1.68,1,2.29,1.72.61.72,1.05,1.54,1.34,2.45h.17c.23-1.08.66-2.04,1.3-2.87.63-.84,1.45-1.5,2.44-2,.99-.5,2.17-.75,3.52-.75,1.79,0,3.28.4,4.49,1.21,1.21.81,2.12,1.88,2.72,3.21.61,1.33.91,2.82.91,4.47v16.73ZM479.45,678.67v-8.43c0-.77-.15-1.41-.45-1.94-.3-.52-.71-.92-1.21-1.19-.5-.27-1.09-.4-1.75-.4-1.12,0-1.97.31-2.55.92-.58.61-.86,1.41-.86,2.41v8.64h6.83ZM491.85,678.67v-9.15c0-1.05-.3-1.91-.91-2.58-.61-.67-1.54-1-2.81-1-.75,0-1.4.14-1.94.43-.55.28-.97.71-1.27,1.28-.3.57-.45,1.29-.45,2.17v8.86h7.39Z"/>
  <path class="cls-15" d="M461.11,602.27l-14.31-5.43v-3.78l14.31-5.43v3.31l-2.82,1.01v6.15l2.82,1.01v3.17ZM455.79,597.21v-4.38l-3.52,1.25c-.15.06-.34.12-.55.2-.22.08-.46.15-.72.24-.26.08-.52.16-.78.24-.26.08-.49.15-.7.22v.12c.26.07.57.16.93.27.35.11.7.22,1.02.33.33.11.6.2.8.27l3.52,1.25Z"/>
  <path class="cls-15" d="M461.11,585.13h-14.31v-3.06h11.66v-7.11h2.65v10.17Z"/>
  <path class="cls-15" d="M461.11,570.62h-11.7v4.52h-2.61v-12.15h2.61v4.54h11.7v3.08Z"/>
  <path class="cls-15" d="M461.11,563.26l-14.31-5.43v-3.78l14.31-5.43v3.31l-2.82,1.01v6.15l2.82,1.01v3.17ZM455.79,558.21v-4.38l-3.52,1.25c-.15.06-.34.12-.55.2-.22.08-.46.15-.72.24-.26.08-.52.16-.78.24-.26.08-.49.15-.7.22v.12c.26.07.57.16.93.27.35.11.7.22,1.02.33.33.11.6.2.8.27l3.52,1.25Z"/>
  <path class="cls-15" d="M497.64,574.75c0,3.04-.54,5.63-1.62,7.79-1.08,2.16-2.76,3.8-5.03,4.92-2.28,1.12-5.17,1.68-8.69,1.68-5.18,0-9.04-1.26-11.56-3.77-2.52-2.51-3.78-6.05-3.78-10.62,0-2.5.43-4.74,1.3-6.73.86-1.99,2.16-3.56,3.89-4.7,1.73-1.15,3.9-1.72,6.52-1.72v6.39c-1.38,0-2.55.28-3.5.83-.95.55-1.68,1.33-2.18,2.34-.5,1.01-.76,2.18-.76,3.51,0,1.82.36,3.31,1.08,4.49.72,1.18,1.78,2.04,3.18,2.6,1.4.55,3.1.83,5.12.83h1.34c2.07,0,3.81-.28,5.21-.85,1.4-.57,2.45-1.43,3.15-2.58s1.06-2.63,1.06-4.45c0-1.42-.25-2.65-.73-3.7-.49-1.05-1.21-1.86-2.16-2.43-.95-.57-2.12-.85-3.5-.85v-6.13c2.62,0,4.79.56,6.52,1.68,1.73,1.12,3.02,2.68,3.87,4.66.85,1.99,1.28,4.26,1.28,6.81Z"/>
  <path class="cls-15" d="M461.11,507.24l-14.31-5.43v-3.78l14.31-5.43v3.31l-2.82,1.01v6.15l2.82,1.01v3.17ZM455.79,502.19v-4.38l-3.52,1.25c-.15.06-.34.12-.55.2-.22.08-.46.15-.72.24-.26.08-.52.16-.78.24-.26.08-.49.15-.7.22v.12c.26.07.57.16.93.27.35.11.7.22,1.02.33.33.11.6.2.8.27l3.52,1.25Z"/>
  <path class="cls-15" d="M461.11,490.1h-14.31v-3.06h11.66v-7.11h2.65v10.17Z"/>
  <path class="cls-15" d="M461.11,475.59h-11.7v4.52h-2.61v-12.15h2.61v4.54h11.7v3.08Z"/>
  <path class="cls-15" d="M461.11,468.24l-14.31-5.43v-3.78l14.31-5.43v3.31l-2.82,1.01v6.15l2.82,1.01v3.17ZM455.79,463.18v-4.38l-3.52,1.25c-.15.06-.34.12-.55.2-.22.08-.46.15-.72.24-.26.08-.52.16-.78.24-.26.08-.49.15-.7.22v.12c.26.07.57.16.93.27.35.11.7.22,1.02.33.33.11.6.2.8.27l3.52,1.25Z"/>
  <path class="cls-15" d="M497.12,492.92h-29.64v-11.92c0-3.04.53-5.62,1.6-7.75,1.06-2.13,2.68-3.77,4.86-4.92,2.18-1.15,4.96-1.72,8.36-1.72s6.15.57,8.34,1.72c2.19,1.15,3.82,2.79,4.88,4.92,1.06,2.13,1.6,4.71,1.6,7.75v11.92ZM491.8,486.58v-5.54c0-1.28-.19-2.41-.56-3.41-.37-.99-.93-1.82-1.66-2.47-.73-.65-1.66-1.15-2.77-1.49-1.11-.34-2.4-.51-3.87-.51h-1.3c-1.47,0-2.76.17-3.87.51-1.11.34-2.03.84-2.76,1.49-.73.65-1.3,1.48-1.69,2.47-.39.99-.58,2.13-.58,3.41v5.54h19.05Z"/>
  <path class="cls-15" d="M461.11,411.63l-14.31-5.43v-3.78l14.31-5.43v3.31l-2.82,1.01v6.15l2.82,1.01v3.17ZM455.79,406.57v-4.38l-3.52,1.25c-.15.05-.34.12-.55.19-.22.08-.46.15-.72.24-.26.08-.52.16-.78.24-.26.08-.49.15-.7.22v.12c.26.07.57.16.93.27.35.11.7.22,1.02.33.33.11.6.2.8.27l3.52,1.25Z"/>
  <path class="cls-15" d="M461.11,394.49h-14.31v-3.06h11.66v-7.11h2.65v10.17Z"/>
  <path class="cls-15" d="M461.11,379.98h-11.7v4.52h-2.61v-12.15h2.61v4.54h11.7v3.08Z"/>
  <path class="cls-15" d="M461.11,372.62l-14.31-5.43v-3.78l14.31-5.43v3.31l-2.82,1.01v6.15l2.82,1.01v3.17ZM455.79,367.56v-4.38l-3.52,1.25c-.15.05-.34.12-.55.2-.22.08-.46.15-.72.24-.26.08-.52.16-.78.24-.26.08-.49.15-.7.22v.12c.26.07.57.16.93.27.35.11.7.22,1.02.33.33.11.6.2.8.27l3.52,1.25Z"/>
  <path class="cls-15" d="M497.12,396.11h-29.64v-23.33h5.27v16.95h6.61v-14.99h5.23v14.99h7.22v-17.2h5.31v23.59Z"/>
  <path class="cls-15" d="M1619.71,409.14l-14.31-5.43v-3.78l14.31-5.43v3.31l-2.82,1.01v6.15l2.82,1.01v3.17ZM1614.39,404.09v-4.38l-3.52,1.25c-.15.05-.34.12-.55.19-.22.08-.46.15-.72.24-.26.08-.52.16-.78.24-.26.08-.49.15-.7.22v.12c.26.07.57.16.93.27.35.11.7.22,1.02.33.33.11.6.2.8.27l3.52,1.25Z"/>
  <path class="cls-15" d="M1619.71,392h-14.31v-3.06h11.66v-7.11h2.65v10.17Z"/>
  <path class="cls-15" d="M1619.71,377.49h-11.7v4.52h-2.61v-12.15h2.61v4.54h11.7v3.08Z"/>
  <path class="cls-15" d="M1619.71,370.13l-14.31-5.43v-3.78l14.31-5.43v3.31l-2.82,1.01v6.15l2.82,1.01v3.17ZM1614.39,365.08v-4.38l-3.52,1.25c-.15.05-.34.12-.55.2-.22.08-.46.15-.72.24-.26.08-.52.16-.78.24-.26.08-.49.15-.7.22v.12c.26.07.57.16.93.27.35.11.7.22,1.02.33.33.11.6.2.8.27l3.52,1.25Z"/>
  <path class="cls-15" d="M1655.72,397.48l-29.64-11.24v-7.83l29.64-11.24v6.85l-5.83,2.09v12.73l5.83,2.09v6.56ZM1644.7,387.01v-9.07l-7.3,2.6c-.32.11-.7.25-1.14.4-.45.16-.94.32-1.49.49-.55.17-1.09.33-1.62.49-.53.16-1.02.31-1.45.45v.26c.55.14,1.19.33,1.92.55.73.23,1.44.45,2.12.68.68.23,1.23.41,1.66.55l7.3,2.6Z"/>
  <path class="cls-6" d="M667.21,328.46l9.93-25.42h6.92l9.93,25.42h-6.05l-1.84-5h-11.24l-1.84,5h-5.79ZM676.46,319.02h8.01l-2.29-6.26c-.1-.27-.22-.6-.36-.98-.14-.38-.28-.81-.43-1.28s-.29-.93-.43-1.39c-.14-.46-.27-.87-.4-1.24h-.23c-.13.47-.29,1.02-.49,1.65-.2.63-.4,1.24-.6,1.82-.2.58-.36,1.06-.49,1.43l-2.29,6.26Z"/>
  <path class="cls-6" d="M1444.46,794.52l9.93-25.42h6.92l9.93,25.42h-6.05l-1.84-5h-11.24l-1.84,5h-5.79ZM1453.71,785.07h8.01l-2.29-6.26c-.1-.27-.22-.6-.36-.98-.14-.38-.28-.81-.43-1.28-.15-.47-.29-.93-.43-1.39-.14-.46-.27-.87-.4-1.24h-.23c-.13.47-.29,1.02-.49,1.65-.2.63-.4,1.24-.6,1.82-.2.58-.36,1.06-.49,1.43l-2.29,6.26Z"/>
  <path class="cls-6" d="M1423.78,850.83v-25.42h14.74c1.35,0,2.58.26,3.67.78,1.09.52,1.95,1.25,2.58,2.19.63.94.94,2.04.94,3.3,0,1.01-.19,1.91-.56,2.71-.38.79-.88,1.45-1.52,1.96s-1.36.9-2.16,1.15v.15c.95.2,1.8.57,2.54,1.11.74.54,1.33,1.24,1.77,2.09.44.85.66,1.86.66,3.02,0,1.53-.36,2.82-1.07,3.85-.71,1.04-1.66,1.82-2.84,2.33-1.18.52-2.49.78-3.95.78h-14.78ZM1429.39,835.68h7.45c.68,0,1.25-.13,1.71-.39.46-.26.81-.6,1.05-1.04.24-.43.36-.93.36-1.5,0-.96-.27-1.69-.81-2.19-.54-.49-1.25-.74-2.13-.74h-7.63v5.85ZM1429.39,846.31h8.08c.93,0,1.69-.26,2.28-.78.59-.52.88-1.32.88-2.41,0-.64-.13-1.2-.38-1.67-.25-.47-.63-.83-1.13-1.09-.5-.26-1.14-.39-1.92-.39h-7.82v6.34Z"/>
  <path class="cls-6" d="M1376.56,890c-2.68,0-4.98-.46-6.88-1.39-1.9-.93-3.35-2.37-4.34-4.32-.99-1.95-1.49-4.43-1.49-7.45,0-4.45,1.11-7.75,3.33-9.91,2.22-2.16,5.34-3.24,9.38-3.24,2.21,0,4.19.37,5.94,1.11s3.14,1.85,4.15,3.33c1.02,1.48,1.52,3.35,1.52,5.6h-5.64c0-1.19-.24-2.19-.73-3-.49-.82-1.18-1.44-2.07-1.87-.89-.43-1.92-.65-3.1-.65-1.6,0-2.93.31-3.97.93-1.04.62-1.81,1.53-2.29,2.72-.49,1.2-.73,2.66-.73,4.39v1.15c0,1.78.25,3.27.75,4.46.5,1.2,1.26,2.1,2.28,2.71,1.01.61,2.32.91,3.93.91,1.25,0,2.34-.21,3.27-.63s1.64-1.04,2.14-1.85c.5-.82.75-1.82.75-3h5.41c0,2.25-.5,4.11-1.49,5.59-.99,1.48-2.36,2.59-4.12,3.32-1.75.73-3.76,1.09-6.02,1.09Z"/>
  <path class="cls-6" d="M1270.16,832.07v-25.42h10.53c2.68,0,4.96.46,6.84,1.37,1.88.91,3.33,2.3,4.34,4.17,1.02,1.87,1.52,4.26,1.52,7.17s-.51,5.27-1.52,7.15c-1.01,1.88-2.46,3.27-4.34,4.19s-4.16,1.37-6.84,1.37h-10.53ZM1275.76,827.51h4.89c1.13,0,2.13-.16,3.01-.48.88-.32,1.6-.8,2.18-1.43.58-.63,1.01-1.42,1.32-2.37.3-.95.45-2.06.45-3.32v-1.11c0-1.26-.15-2.37-.45-3.32-.3-.95-.74-1.74-1.32-2.37-.58-.63-1.3-1.11-2.18-1.45-.88-.33-1.88-.5-3.01-.5h-4.89v16.34Z"/>
  <path class="cls-6" d="M1137.72,832.07v-25.42h20.61v4.52h-14.97v5.67h13.24v4.48h-13.24v6.19h15.19v4.56h-20.83Z"/>
  <path class="cls-6" d="M957.72,832.07v-25.42h19.03v4.52h-13.42v6.3h11.99v4.48h-11.99v10.12h-5.6Z"/>
  <path class="cls-6" d="M834.71,832.51c-4.06,0-7.19-1.07-9.38-3.21-2.19-2.14-3.29-5.45-3.29-9.95,0-2.99.53-5.45,1.58-7.39,1.05-1.94,2.58-3.38,4.59-4.33,2-.95,4.41-1.43,7.22-1.43,1.68,0,3.26.19,4.74.56,1.48.37,2.79.94,3.93,1.71,1.14.77,2.03,1.72,2.67,2.87.64,1.15.96,2.51.96,4.09h-5.68c0-.77-.17-1.45-.51-2.04-.34-.59-.81-1.09-1.41-1.48-.6-.39-1.29-.69-2.07-.89-.78-.2-1.59-.3-2.44-.3-1.3,0-2.44.17-3.42.5-.98.33-1.79.84-2.42,1.52-.64.68-1.12,1.53-1.45,2.54-.33,1.01-.49,2.19-.49,3.52v1.11c0,1.85.28,3.37.83,4.56.55,1.19,1.38,2.07,2.48,2.65,1.1.58,2.47.87,4.1.87,1.35,0,2.55-.2,3.59-.61s1.86-.99,2.44-1.76c.59-.77.88-1.7.88-2.82v-.26h-7.71v-4.22h13.27v13.75h-3.68l-.49-2.74c-.75.72-1.56,1.31-2.43,1.78-.86.47-1.82.82-2.88,1.06-1.05.23-2.23.35-3.54.35Z"/>
  <path class="cls-6" d="M728.8,890.58v-25.42h5.6v10.08h11.43v-10.08h5.6v25.42h-5.6v-10.67h-11.43v10.67h-5.6Z"/>
  <path class="cls-15" d="M671.98,862.9v-25.42h5.6v25.42h-5.6Z"/>
  <path class="cls-6" d="M1425.89,328.46v-25.42h5.6v10.08h11.43v-10.08h5.6v25.42h-5.6v-10.67h-11.43v10.67h-5.6Z"/>
  <path class="cls-6" d="M1458.71,383.07v-25.42h5.6v25.42h-5.6Z"/>
  <path class="cls-6" d="M734.4,302.97v-25.42h14.74c1.35,0,2.58.26,3.67.78,1.09.52,1.95,1.25,2.58,2.19.63.94.94,2.04.94,3.3,0,1.01-.19,1.91-.56,2.7-.38.79-.88,1.45-1.52,1.96-.64.52-1.36.9-2.16,1.15v.15c.95.2,1.8.57,2.54,1.11.74.54,1.33,1.24,1.77,2.09.44.85.66,1.86.66,3.02,0,1.53-.36,2.82-1.07,3.85-.71,1.04-1.66,1.82-2.84,2.33-1.18.52-2.49.78-3.95.78h-14.78ZM740,287.82h7.45c.68,0,1.25-.13,1.71-.39.46-.26.81-.6,1.05-1.04.24-.43.36-.93.36-1.5,0-.96-.27-1.69-.81-2.19-.54-.49-1.25-.74-2.13-.74h-7.63v5.85ZM740,298.45h8.08c.93,0,1.69-.26,2.28-.78.59-.52.88-1.32.88-2.41,0-.64-.13-1.2-.38-1.67-.25-.47-.63-.83-1.13-1.09-.5-.26-1.14-.39-1.92-.39h-7.82v6.34Z"/>
  <path class="cls-6" d="M1375.07,303.42c-4.06,0-7.19-1.07-9.38-3.2-2.19-2.14-3.29-5.45-3.29-9.95,0-2.99.53-5.45,1.58-7.39,1.05-1.94,2.58-3.38,4.59-4.34,2-.95,4.41-1.43,7.22-1.43,1.68,0,3.26.19,4.74.56s2.79.94,3.93,1.7c1.14.77,2.03,1.72,2.67,2.87.64,1.15.96,2.51.96,4.09h-5.68c0-.77-.17-1.45-.51-2.04-.34-.59-.81-1.09-1.41-1.48-.6-.39-1.29-.69-2.07-.89-.78-.2-1.59-.3-2.44-.3-1.3,0-2.44.17-3.42.5-.98.33-1.79.84-2.42,1.52-.64.68-1.12,1.53-1.45,2.54-.33,1.01-.49,2.19-.49,3.52v1.11c0,1.85.28,3.37.83,4.56s1.38,2.07,2.48,2.65c1.1.58,2.47.87,4.1.87,1.35,0,2.55-.2,3.59-.61s1.86-.99,2.44-1.76c.59-.77.88-1.7.88-2.82v-.26h-7.71v-4.22h13.27v13.75h-3.68l-.49-2.74c-.75.72-1.56,1.31-2.43,1.78-.86.47-1.82.82-2.88,1.06-1.05.23-2.23.35-3.54.35Z"/>
  <path class="cls-6" d="M838.71,343.46c-2.68,0-4.98-.46-6.88-1.39-1.9-.93-3.35-2.37-4.34-4.32-.99-1.95-1.49-4.43-1.49-7.45,0-4.45,1.11-7.75,3.33-9.91,2.22-2.16,5.34-3.24,9.38-3.24,2.21,0,4.19.37,5.94,1.11,1.75.74,3.14,1.85,4.15,3.33,1.02,1.48,1.52,3.35,1.52,5.59h-5.64c0-1.19-.24-2.19-.73-3-.49-.81-1.18-1.44-2.07-1.87-.89-.43-1.92-.65-3.1-.65-1.6,0-2.93.31-3.97.93-1.04.62-1.81,1.53-2.29,2.72-.49,1.2-.73,2.66-.73,4.39v1.15c0,1.78.25,3.27.75,4.46.5,1.2,1.26,2.1,2.28,2.7,1.01.61,2.32.91,3.93.91,1.25,0,2.34-.21,3.27-.63.93-.42,1.64-1.04,2.14-1.85.5-.82.75-1.82.75-3h5.41c0,2.25-.5,4.11-1.49,5.59-.99,1.48-2.36,2.59-4.12,3.32-1.75.73-3.76,1.09-6.02,1.09Z"/>
  <path class="cls-6" d="M967.64,343.02v-25.42h10.53c2.68,0,4.96.46,6.84,1.37,1.88.91,3.33,2.3,4.34,4.17,1.02,1.87,1.52,4.26,1.52,7.17s-.51,5.27-1.52,7.15c-1.01,1.88-2.46,3.27-4.34,4.19-1.88.91-4.16,1.37-6.84,1.37h-10.53ZM973.25,338.46h4.89c1.13,0,2.13-.16,3.01-.48.88-.32,1.6-.8,2.18-1.43.58-.63,1.01-1.42,1.32-2.37.3-.95.45-2.06.45-3.32v-1.11c0-1.26-.15-2.37-.45-3.32-.3-.95-.74-1.74-1.32-2.37-.58-.63-1.3-1.11-2.18-1.45-.88-.33-1.88-.5-3.01-.5h-4.89v16.34Z"/>
  <path class="cls-6" d="M1127.08,343.02v-25.42h20.61v4.52h-14.97v5.67h13.24v4.48h-13.24v6.19h15.19v4.56h-20.83Z"/>
  <path class="cls-6" d="M1269.33,343.02v-25.42h19.03v4.52h-13.42v6.3h11.99v4.48h-11.99v10.12h-5.6Z"/>
  <path class="cls-15" d="M1619.71,504.21l-14.31-5.43v-3.78l14.31-5.43v3.31l-2.82,1.01v6.15l2.82,1.01v3.17ZM1614.39,499.16v-4.38l-3.52,1.25c-.15.06-.34.12-.55.2-.22.08-.46.15-.72.24-.26.08-.52.16-.78.24-.26.08-.49.15-.7.22v.12c.26.07.57.16.93.27.35.11.7.22,1.02.33.33.11.6.2.8.27l3.52,1.25Z"/>
  <path class="cls-15" d="M1619.71,487.07h-14.31v-3.06h11.66v-7.11h2.65v10.17Z"/>
  <path class="cls-15" d="M1619.71,472.56h-11.7v4.52h-2.61v-12.15h2.61v4.54h11.7v3.08Z"/>
  <path class="cls-15" d="M1619.71,465.2l-14.31-5.43v-3.78l14.31-5.43v3.31l-2.82,1.01v6.15l2.82,1.01v3.17ZM1614.39,460.15v-4.38l-3.52,1.25c-.15.06-.34.12-.55.2-.22.08-.46.15-.72.24-.26.08-.52.16-.78.24-.26.08-.49.15-.7.22v.12c.26.07.57.16.93.27.35.11.7.22,1.02.33.33.11.6.2.8.27l3.52,1.25Z"/>
  <path class="cls-15" d="M1655.72,489.53h-29.64v-16.69c0-1.53.3-2.92.91-4.15.6-1.23,1.45-2.21,2.55-2.92,1.09-.71,2.38-1.06,3.85-1.06,1.18,0,2.23.21,3.15.64.92.43,1.68,1,2.29,1.72.61.72,1.05,1.54,1.34,2.45h.17c.23-1.08.66-2.04,1.3-2.87.63-.84,1.45-1.5,2.44-2,.99-.5,2.17-.75,3.52-.75,1.79,0,3.28.4,4.49,1.21,1.21.81,2.12,1.88,2.72,3.21.61,1.33.91,2.82.91,4.47v16.73ZM1638.05,483.18v-8.43c0-.77-.15-1.41-.45-1.94-.3-.52-.71-.92-1.21-1.19-.5-.27-1.09-.4-1.75-.4-1.12,0-1.97.31-2.55.92-.58.61-.86,1.41-.86,2.41v8.64h6.83ZM1650.44,483.18v-9.15c0-1.05-.3-1.91-.91-2.58-.61-.67-1.54-1-2.81-1-.75,0-1.4.14-1.94.43-.55.28-.97.71-1.27,1.28-.3.57-.45,1.29-.45,2.17v8.86h7.39Z"/>
  <path class="cls-15" d="M1619.71,601.64l-14.31-5.43v-3.78l14.31-5.43v3.31l-2.82,1.01v6.15l2.82,1.01v3.17ZM1614.39,596.58v-4.38l-3.52,1.25c-.15.06-.34.12-.55.2-.22.08-.46.15-.72.24-.26.08-.52.16-.78.24-.26.08-.49.15-.7.22v.12c.26.07.57.16.93.27.35.11.7.22,1.02.33.33.11.6.2.8.27l3.52,1.25Z"/>
  <path class="cls-15" d="M1619.71,584.5h-14.31v-3.06h11.66v-7.11h2.65v10.17Z"/>
  <path class="cls-15" d="M1619.71,569.99h-11.7v4.52h-2.61v-12.15h2.61v4.54h11.7v3.08Z"/>
  <path class="cls-15" d="M1619.71,562.63l-14.31-5.43v-3.78l14.31-5.43v3.31l-2.82,1.01v6.15l2.82,1.01v3.17ZM1614.39,557.57v-4.38l-3.52,1.25c-.15.06-.34.12-.55.2-.22.08-.46.15-.72.24-.26.08-.52.16-.78.24-.26.08-.49.15-.7.22v.12c.26.07.57.16.93.27.35.11.7.22,1.02.33.33.11.6.2.8.27l3.52,1.25Z"/>
  <path class="cls-15" d="M1656.23,574.11c0,3.04-.54,5.63-1.62,7.79-1.08,2.16-2.76,3.8-5.03,4.92-2.28,1.12-5.17,1.68-8.69,1.68-5.18,0-9.04-1.26-11.56-3.77-2.52-2.51-3.78-6.05-3.78-10.62,0-2.5.43-4.74,1.3-6.73.86-1.99,2.16-3.56,3.89-4.7,1.73-1.15,3.9-1.72,6.52-1.72v6.39c-1.38,0-2.55.28-3.5.83-.95.55-1.68,1.33-2.18,2.34-.5,1.01-.76,2.18-.76,3.51,0,1.82.36,3.31,1.08,4.49.72,1.18,1.78,2.04,3.18,2.6,1.4.55,3.1.83,5.12.83h1.34c2.07,0,3.81-.28,5.21-.85,1.4-.57,2.45-1.43,3.15-2.58.71-1.15,1.06-2.63,1.06-4.45,0-1.42-.25-2.65-.73-3.7-.49-1.05-1.21-1.86-2.16-2.43-.95-.57-2.12-.85-3.5-.85v-6.13c2.62,0,4.79.56,6.52,1.68,1.73,1.12,3.02,2.68,3.87,4.66.85,1.99,1.28,4.26,1.28,6.81Z"/>
  <path class="cls-15" d="M1619.71,696.66l-14.31-5.43v-3.78l14.31-5.43v3.31l-2.82,1.01v6.15l2.82,1.01v3.17ZM1614.39,691.61v-4.38l-3.52,1.25c-.15.06-.34.12-.55.2-.22.08-.46.15-.72.24-.26.08-.52.16-.78.24-.26.08-.49.15-.7.22v.12c.26.07.57.16.93.27.35.11.7.22,1.02.33.33.11.6.2.8.27l3.52,1.25Z"/>
  <path class="cls-15" d="M1619.71,679.52h-14.31v-3.06h11.66v-7.11h2.65v10.17Z"/>
  <path class="cls-15" d="M1619.71,665.01h-11.7v4.52h-2.61v-12.15h2.61v4.54h11.7v3.08Z"/>
  <path class="cls-15" d="M1619.71,657.65l-14.31-5.43v-3.78l14.31-5.43v3.31l-2.82,1.01v6.15l2.82,1.01v3.17ZM1614.39,652.6v-4.38l-3.52,1.25c-.15.06-.34.12-.55.2-.22.08-.46.15-.72.24-.26.08-.52.16-.78.24-.26.08-.49.15-.7.22v.12c.26.07.57.16.93.27.35.11.7.22,1.02.33.33.11.6.2.8.27l3.52,1.25Z"/>
  <path class="cls-15" d="M1655.72,682.34h-29.64v-11.92c0-3.04.53-5.62,1.6-7.75,1.06-2.13,2.68-3.77,4.86-4.92,2.18-1.15,4.96-1.72,8.36-1.72s6.15.57,8.34,1.72c2.19,1.15,3.82,2.79,4.88,4.92,1.06,2.13,1.6,4.71,1.6,7.75v11.92ZM1650.4,675.99v-5.54c0-1.28-.19-2.41-.56-3.41-.37-.99-.93-1.82-1.66-2.47-.73-.65-1.66-1.15-2.77-1.49-1.11-.34-2.4-.51-3.87-.51h-1.3c-1.47,0-2.76.17-3.87.51-1.11.34-2.03.84-2.76,1.49-.73.65-1.3,1.48-1.69,2.47-.39.99-.58,2.13-.58,3.41v5.54h19.05Z"/>
  <path class="cls-15" d="M1619.71,792.28l-14.31-5.43v-3.78l14.31-5.43v3.31l-2.82,1.01v6.15l2.82,1.01v3.17ZM1614.4,787.22v-4.38l-3.52,1.25c-.15.06-.34.12-.55.2-.22.08-.46.15-.72.24-.26.08-.52.16-.78.24-.26.08-.49.15-.7.22v.12c.26.07.57.16.93.27.35.11.7.22,1.02.33.33.11.6.2.8.27l3.52,1.25Z"/>
  <path class="cls-15" d="M1619.71,775.14h-14.31v-3.06h11.66v-7.11h2.65v10.17Z"/>
  <path class="cls-15" d="M1619.71,760.63h-11.7v4.52h-2.61v-12.15h2.61v4.54h11.7v3.08Z"/>
  <path class="cls-15" d="M1619.71,753.27l-14.31-5.43v-3.78l14.31-5.43v3.31l-2.82,1.01v6.15l2.82,1.01v3.17ZM1614.4,748.22v-4.38l-3.52,1.25c-.15.06-.34.12-.55.2-.22.08-.46.15-.72.24-.26.08-.52.16-.78.24-.26.08-.49.15-.7.22v.12c.26.07.57.16.93.27.35.11.7.22,1.02.33.33.11.6.2.8.27l3.52,1.25Z"/>
  <path class="cls-15" d="M1655.72,776.76h-29.64v-23.33h5.27v16.95h6.61v-14.99h5.23v14.99h7.22v-17.2h5.31v23.59Z"/>
  <path class="cls-15" d="M1438.19,451.64h-10.65v-6c0-.55.11-1.05.33-1.49.22-.44.52-.79.92-1.05.39-.25.85-.38,1.38-.38.43,0,.8.08,1.13.23.33.15.61.36.82.62.22.26.38.55.48.88h.06c.08-.39.24-.73.47-1.03.23-.3.52-.54.88-.72.36-.18.78-.27,1.27-.27.64,0,1.18.14,1.62.44.43.29.76.68.98,1.15s.33,1.02.33,1.61v6.01ZM1431.84,449.36v-3.03c0-.28-.05-.51-.16-.7-.11-.19-.25-.33-.44-.43-.18-.1-.39-.15-.63-.15-.4,0-.71.11-.92.33-.21.22-.31.51-.31.86v3.11h2.45ZM1436.29,449.36v-3.29c0-.38-.11-.69-.33-.93s-.55-.36-1.01-.36c-.27,0-.5.05-.7.15-.2.1-.35.26-.46.46-.11.2-.16.46-.16.78v3.18h2.66Z"/>
  <path class="cls-15" d="M1438.19,441.06l-10.65-4.04v-2.82l10.65-4.04v2.46l-2.1.75v4.58l2.1.75v2.36ZM1434.23,437.29v-3.26l-2.62.93c-.11.04-.25.09-.41.14-.16.06-.34.11-.54.18-.2.06-.39.12-.58.18-.19.06-.37.11-.52.16v.09c.2.05.43.12.69.2s.52.16.76.25c.24.08.44.15.6.2l2.62.93Z"/>
  <path class="cls-15" d="M1438.37,425.14c0,.81-.12,1.49-.36,2.06-.24.57-.61,1-1.09,1.3-.49.3-1.1.45-1.85.45h-.48v-2.23h.48c.48,0,.83-.13,1.06-.39s.35-.65.35-1.17-.17-.88-.51-1.13-.82-.38-1.45-.38h-6.99v-2.3h6.99c.86,0,1.57.15,2.15.44.57.3,1,.73,1.28,1.29s.42,1.25.42,2.06Z"/>
  <path class="cls-15" d="M1438.19,419.53l-10.65-4.04v-2.82l10.65-4.04v2.46l-2.1.75v4.58l2.1.75v2.36ZM1434.23,415.76v-3.26l-2.62.93c-.11.04-.25.09-.41.14-.16.06-.34.11-.54.18-.2.06-.39.12-.58.18-.19.06-.37.11-.52.16v.09c.2.05.43.12.69.2s.52.16.76.25c.24.08.44.15.6.2l2.62.93Z"/>
  <path class="cls-15" d="M1464.99,441.96l-22.07-8.37v-5.83l22.07-8.37v5.1l-4.34,1.55v9.48l4.34,1.55v4.88ZM1456.79,434.16v-6.75l-5.44,1.93c-.23.08-.52.19-.85.3-.33.12-.7.24-1.11.36-.41.13-.81.25-1.21.36-.4.12-.76.23-1.08.33v.19c.41.11.89.24,1.43.41.55.17,1.07.34,1.58.51.51.17.92.31,1.24.41l5.44,1.93Z"/>
  <path class="cls-15" d="M1438.19,522.42h-10.65v-6c0-.55.11-1.05.33-1.49.22-.44.52-.79.92-1.05.39-.26.85-.38,1.38-.38.43,0,.8.08,1.13.23.33.15.61.36.82.62.22.26.38.55.48.88h.06c.08-.39.24-.73.47-1.03.23-.3.52-.54.88-.72s.78-.27,1.27-.27c.64,0,1.18.15,1.62.44.43.29.76.68.98,1.16s.33,1.01.33,1.61v6.01ZM1431.84,520.14v-3.03c0-.28-.05-.51-.16-.7-.11-.19-.25-.33-.44-.43-.18-.1-.39-.15-.63-.15-.4,0-.71.11-.92.33-.21.22-.31.51-.31.86v3.11h2.45ZM1436.29,520.14v-3.29c0-.38-.11-.69-.33-.93-.22-.24-.55-.36-1.01-.36-.27,0-.5.05-.7.15-.2.1-.35.26-.46.46-.11.2-.16.46-.16.78v3.18h2.66Z"/>
  <path class="cls-15" d="M1438.19,511.83l-10.65-4.04v-2.82l10.65-4.04v2.46l-2.1.75v4.58l2.1.75v2.36ZM1434.23,508.07v-3.26l-2.62.93c-.11.04-.25.09-.41.15-.16.06-.34.11-.54.18-.2.06-.39.12-.58.18-.19.06-.37.11-.52.16v.09c.2.05.43.12.69.2s.52.16.76.25c.24.08.44.15.6.2l2.62.93Z"/>
  <path class="cls-15" d="M1438.37,495.92c0,.81-.12,1.49-.36,2.06-.24.57-.61,1-1.09,1.3-.49.3-1.1.45-1.85.45h-.48v-2.23h.48c.48,0,.83-.13,1.06-.39.23-.26.35-.65.35-1.17s-.17-.88-.51-1.13-.82-.38-1.45-.38h-6.99v-2.29h6.99c.86,0,1.57.15,2.15.44.57.3,1,.73,1.28,1.29.28.57.42,1.25.42,2.06Z"/>
  <path class="cls-15" d="M1438.19,490.3l-10.65-4.04v-2.82l10.65-4.04v2.46l-2.1.75v4.58l2.1.75v2.36ZM1434.23,486.54v-3.26l-2.62.93c-.11.04-.25.09-.41.15-.16.06-.34.11-.54.18-.2.06-.39.12-.58.18-.19.06-.37.11-.52.16v.09c.2.05.43.12.69.2.26.08.52.16.76.25.24.08.44.15.6.2l2.62.93Z"/>
  <path class="cls-15" d="M1464.99,510.48h-22.07v-12.42c0-1.14.23-2.17.68-3.09.45-.92,1.08-1.64,1.9-2.17.81-.53,1.77-.79,2.86-.79.88,0,1.66.16,2.35.48s1.25.75,1.7,1.28c.45.54.78,1.15,1,1.82h.13c.17-.8.49-1.52.96-2.14.47-.62,1.08-1.12,1.82-1.49.74-.37,1.61-.55,2.62-.55,1.33,0,2.44.3,3.34.9.9.6,1.58,1.4,2.03,2.39.45.99.68,2.1.68,3.33v12.46ZM1451.84,505.76v-6.28c0-.57-.11-1.05-.34-1.44-.23-.39-.53-.69-.9-.89-.38-.2-.81-.3-1.3-.3-.84,0-1.47.23-1.9.68-.43.45-.64,1.05-.64,1.79v6.44h5.08ZM1461.07,505.76v-6.82c0-.78-.23-1.42-.67-1.92-.45-.5-1.15-.75-2.09-.75-.56,0-1.04.11-1.45.32-.41.21-.72.53-.95.95-.23.42-.34.96-.34,1.62v6.59h5.5Z"/>
  <path class="cls-15" d="M1438.19,594.95h-10.65v-6c0-.55.11-1.05.33-1.49.22-.44.52-.79.92-1.05.39-.26.85-.38,1.38-.38.43,0,.8.08,1.13.23.33.15.61.36.82.62.22.26.38.55.48.88h.06c.08-.39.24-.73.47-1.03.23-.3.52-.54.88-.72.36-.18.78-.27,1.27-.27.64,0,1.18.15,1.62.44.43.29.76.68.98,1.16.22.48.33,1.01.33,1.61v6.01ZM1431.84,592.67v-3.03c0-.28-.05-.51-.16-.7-.11-.19-.25-.33-.44-.43-.18-.1-.39-.15-.63-.15-.4,0-.71.11-.92.33-.21.22-.31.51-.31.86v3.11h2.45ZM1436.29,592.67v-3.29c0-.38-.11-.69-.33-.93-.22-.24-.55-.36-1.01-.36-.27,0-.5.05-.7.15-.2.1-.35.26-.46.46-.11.2-.16.46-.16.78v3.18h2.66Z"/>
  <path class="cls-15" d="M1438.19,584.36l-10.65-4.04v-2.82l10.65-4.04v2.46l-2.1.75v4.58l2.1.75v2.36ZM1434.23,580.6v-3.26l-2.62.93c-.11.04-.25.09-.41.15-.16.06-.34.11-.54.18-.2.06-.39.12-.58.18-.19.06-.37.11-.52.16v.09c.2.05.43.12.69.2s.52.16.76.25c.24.08.44.15.6.2l2.62.93Z"/>
  <path class="cls-15" d="M1438.37,568.45c0,.81-.12,1.49-.36,2.06-.24.57-.61,1-1.09,1.3-.49.3-1.1.45-1.85.45h-.48v-2.23h.48c.48,0,.83-.13,1.06-.39.23-.26.35-.65.35-1.17s-.17-.88-.51-1.13-.82-.38-1.45-.38h-6.99v-2.29h6.99c.86,0,1.57.15,2.15.44.57.3,1,.73,1.28,1.29.28.57.42,1.25.42,2.06Z"/>
  <path class="cls-15" d="M1438.19,562.83l-10.65-4.04v-2.82l10.65-4.04v2.46l-2.1.75v4.58l2.1.75v2.36ZM1434.23,559.07v-3.26l-2.62.93c-.11.04-.25.09-.41.15-.16.06-.34.11-.54.18-.2.06-.39.12-.58.18-.19.06-.37.11-.52.16v.09c.2.05.43.12.69.2s.52.16.76.25c.24.08.44.15.6.2l2.62.93Z"/>
  <path class="cls-15" d="M1465.38,573.46c0,2.26-.4,4.2-1.21,5.8-.8,1.61-2.05,2.83-3.75,3.66-1.69.83-3.85,1.25-6.46,1.25-3.86,0-6.73-.94-8.61-2.81-1.88-1.87-2.81-4.51-2.81-7.91,0-1.86.32-3.53.96-5.01.64-1.48,1.61-2.65,2.9-3.5,1.29-.86,2.91-1.28,4.86-1.28v4.75c-1.03,0-1.9.21-2.61.62-.71.41-1.25.99-1.62,1.74-.38.75-.56,1.62-.56,2.62,0,1.35.27,2.47.8,3.34.54.88,1.32,1.52,2.36,1.93s2.31.62,3.81.62h1c1.54,0,2.84-.21,3.88-.63,1.04-.42,1.82-1.06,2.35-1.92.53-.86.79-1.96.79-3.31,0-1.06-.18-1.98-.55-2.76-.36-.78-.9-1.38-1.61-1.81-.71-.42-1.58-.63-2.61-.63v-4.56c1.95,0,3.57.42,4.86,1.25,1.29.84,2.25,1.99,2.88,3.47.63,1.48.95,3.17.95,5.07Z"/>
  <path class="cls-15" d="M1438.18,665.7h-10.65v-6c0-.55.11-1.05.33-1.49s.52-.79.92-1.05c.39-.26.85-.38,1.38-.38.43,0,.8.08,1.13.23.33.15.61.36.82.62.22.26.38.55.48.88h.06c.08-.39.24-.73.47-1.03.23-.3.52-.54.88-.72s.78-.27,1.27-.27c.64,0,1.18.15,1.62.44.43.29.76.68.98,1.16s.33,1.01.33,1.61v6.01ZM1431.83,663.42v-3.03c0-.28-.05-.51-.16-.7-.11-.19-.25-.33-.44-.43-.18-.1-.39-.15-.63-.15-.4,0-.71.11-.92.33-.21.22-.31.51-.31.86v3.11h2.45ZM1436.29,663.42v-3.29c0-.38-.11-.69-.33-.93-.22-.24-.55-.36-1.01-.36-.27,0-.5.05-.7.15-.2.1-.35.26-.46.46-.11.2-.16.46-.16.78v3.18h2.66Z"/>
  <path class="cls-15" d="M1438.18,655.11l-10.65-4.04v-2.82l10.65-4.04v2.46l-2.1.75v4.58l2.1.75v2.36ZM1434.22,651.35v-3.26l-2.62.93c-.11.04-.25.09-.41.15-.16.06-.34.11-.54.18-.2.06-.39.12-.58.18-.19.06-.37.11-.52.16v.09c.2.05.43.12.69.2s.52.16.76.25c.24.08.44.15.6.2l2.62.93Z"/>
  <path class="cls-15" d="M1438.37,639.2c0,.81-.12,1.49-.36,2.06-.24.57-.61,1-1.09,1.3-.49.3-1.1.45-1.85.45h-.48v-2.23h.48c.48,0,.83-.13,1.06-.39.23-.26.35-.65.35-1.17s-.17-.88-.51-1.13-.82-.38-1.45-.38h-6.99v-2.29h6.99c.86,0,1.57.15,2.15.44.57.3,1,.73,1.28,1.29.28.57.42,1.25.42,2.06Z"/>
  <path class="cls-15" d="M1438.18,633.58l-10.65-4.04v-2.82l10.65-4.04v2.46l-2.1.75v4.58l2.1.75v2.36ZM1434.22,629.82v-3.26l-2.62.93c-.11.04-.25.09-.41.15-.16.06-.34.11-.54.18-.2.06-.39.12-.58.18-.19.06-.37.11-.52.16v.09c.2.05.43.12.69.2s.52.16.76.25c.24.08.44.15.6.2l2.62.93Z"/>
  <path class="cls-15" d="M1464.99,654.03h-22.07v-8.88c0-2.26.4-4.18,1.19-5.77.79-1.58,2-2.81,3.62-3.66,1.62-.86,3.7-1.28,6.23-1.28s4.58.43,6.21,1.28c1.63.86,2.84,2.08,3.63,3.66.79,1.58,1.19,3.51,1.19,5.77v8.88ZM1461.03,649.31v-4.12c0-.95-.14-1.8-.42-2.54-.28-.74-.69-1.35-1.24-1.84-.55-.49-1.23-.86-2.06-1.11-.83-.25-1.79-.38-2.88-.38h-.96c-1.09,0-2.05.13-2.88.38-.83.25-1.51.62-2.06,1.11-.55.49-.96,1.1-1.25,1.84-.29.74-.43,1.58-.43,2.54v4.12h14.18Z"/>
  <path class="cls-15" d="M1438.19,736.89h-10.65v-6c0-.55.11-1.05.33-1.49.22-.44.52-.79.92-1.05.39-.26.85-.38,1.38-.38.43,0,.8.08,1.13.23.33.15.61.36.82.62.22.26.38.55.48.88h.06c.08-.39.24-.73.47-1.03.23-.3.52-.54.88-.72s.78-.27,1.27-.27c.64,0,1.18.15,1.62.44.43.29.76.68.98,1.16s.33,1.01.33,1.61v6.01ZM1431.84,734.61v-3.03c0-.28-.05-.51-.16-.7-.11-.19-.25-.33-.44-.43-.18-.1-.39-.15-.63-.15-.4,0-.71.11-.92.33-.21.22-.31.51-.31.86v3.11h2.45ZM1436.29,734.61v-3.29c0-.38-.11-.69-.33-.93-.22-.24-.55-.36-1.01-.36-.27,0-.5.05-.7.15-.2.1-.35.26-.46.46-.11.2-.16.46-.16.78v3.18h2.66Z"/>
  <path class="cls-15" d="M1438.19,726.31l-10.65-4.04v-2.82l10.65-4.04v2.46l-2.1.75v4.58l2.1.75v2.36ZM1434.23,722.54v-3.26l-2.62.93c-.11.04-.25.09-.41.15-.16.06-.34.11-.54.18-.2.06-.39.12-.58.18-.19.06-.37.11-.52.16v.09c.2.05.43.12.69.2s.52.16.76.25c.24.08.44.15.6.2l2.62.93Z"/>
  <path class="cls-15" d="M1438.37,710.39c0,.81-.12,1.49-.36,2.06-.24.57-.61,1-1.09,1.3-.49.3-1.1.45-1.85.45h-.48v-2.23h.48c.48,0,.83-.13,1.06-.39.23-.26.35-.65.35-1.17s-.17-.88-.51-1.13-.82-.38-1.45-.38h-6.99v-2.29h6.99c.86,0,1.57.15,2.15.44.57.3,1,.73,1.28,1.29.28.57.42,1.25.42,2.06Z"/>
  <path class="cls-15" d="M1438.19,704.78l-10.65-4.04v-2.82l10.65-4.04v2.46l-2.1.75v4.58l2.1.75v2.36ZM1434.23,701.01v-3.26l-2.62.93c-.11.04-.25.09-.41.15-.16.06-.34.11-.54.18-.2.06-.39.12-.58.18-.19.06-.37.11-.52.16v.09c.2.05.43.12.69.2s.52.16.76.25c.24.08.44.15.6.2l2.62.93Z"/>
  <path class="cls-15" d="M1464.99,724.34h-22.07v-17.37h3.93v12.62h4.92v-11.16h3.89v11.16h5.37v-12.81h3.96v17.56Z"/>
  <path class="cls-15" d="M650.9,766.12h-10.65v-6c0-.55.11-1.05.33-1.49.22-.44.52-.79.92-1.05.39-.26.85-.38,1.38-.38.43,0,.8.08,1.13.23.33.15.61.36.82.62.22.26.38.55.48.88h.06c.08-.39.24-.73.47-1.03.23-.3.52-.54.88-.72s.78-.27,1.27-.27c.64,0,1.18.15,1.62.44.43.29.76.68.98,1.16.22.48.33,1.01.33,1.61v6.01ZM644.55,763.84v-3.03c0-.28-.05-.51-.16-.7-.11-.19-.25-.33-.44-.43-.18-.1-.39-.15-.63-.15-.4,0-.71.11-.92.33-.21.22-.31.51-.31.86v3.11h2.45ZM649.01,763.84v-3.29c0-.38-.11-.69-.33-.93-.22-.24-.55-.36-1.01-.36-.27,0-.5.05-.7.15-.2.1-.35.26-.46.46-.11.2-.16.46-.16.78v3.18h2.66Z"/>
  <path class="cls-15" d="M650.9,755.53l-10.65-4.04v-2.82l10.65-4.04v2.46l-2.1.75v4.58l2.1.75v2.36ZM646.94,751.77v-3.26l-2.62.93c-.11.04-.25.09-.41.15-.16.06-.34.11-.54.18-.2.06-.39.12-.58.18-.19.06-.37.11-.52.16v.09c.2.05.43.12.69.2s.52.16.76.25c.24.08.44.15.6.2l2.62.93Z"/>
  <path class="cls-15" d="M651.09,739.62c0,.81-.12,1.49-.36,2.06-.24.57-.61,1-1.09,1.3-.49.3-1.1.45-1.85.45h-.48v-2.23h.48c.48,0,.83-.13,1.06-.39.23-.26.35-.65.35-1.17s-.17-.88-.51-1.13c-.34-.26-.82-.38-1.45-.38h-6.99v-2.29h6.99c.86,0,1.57.15,2.15.44.57.3,1,.73,1.28,1.29.28.57.42,1.25.42,2.06Z"/>
  <path class="cls-15" d="M650.9,734l-10.65-4.04v-2.82l10.65-4.04v2.46l-2.1.75v4.58l2.1.75v2.36ZM646.94,730.24v-3.26l-2.62.93c-.11.04-.25.09-.41.15-.16.06-.34.11-.54.18-.2.06-.39.12-.58.18-.19.06-.37.11-.52.16v.09c.2.05.43.12.69.2s.52.16.76.25c.24.08.44.15.6.2l2.62.93Z"/>
  <path class="cls-15" d="M677.71,756.44l-22.07-8.37v-5.83l22.07-8.37v5.1l-4.34,1.55v9.48l4.34,1.55v4.88ZM669.51,748.64v-6.75l-5.44,1.93c-.23.08-.52.18-.85.3-.33.12-.7.24-1.11.36-.41.13-.81.25-1.21.37-.4.12-.76.23-1.08.33v.19c.41.11.89.24,1.43.41.55.17,1.07.34,1.58.51.51.17.92.31,1.24.41l5.44,1.93Z"/>
  <path class="cls-15" d="M650.9,674.14h-10.65v-6c0-.55.11-1.05.33-1.49.22-.44.52-.79.92-1.05.39-.26.85-.38,1.38-.38.43,0,.8.08,1.13.23.33.15.61.36.82.62.22.26.38.55.48.88h.06c.08-.39.24-.73.47-1.03.23-.3.52-.54.88-.72s.78-.27,1.27-.27c.64,0,1.18.15,1.62.44.43.29.76.68.98,1.16s.33,1.01.33,1.61v6.01ZM644.55,671.86v-3.03c0-.28-.05-.51-.16-.7-.11-.19-.25-.33-.44-.43-.18-.1-.39-.15-.63-.15-.4,0-.71.11-.92.33-.21.22-.31.51-.31.86v3.11h2.45ZM649.01,671.86v-3.29c0-.38-.11-.69-.33-.93-.22-.24-.55-.36-1.01-.36-.27,0-.5.05-.7.15-.2.1-.35.26-.46.46-.11.2-.16.46-.16.78v3.18h2.66Z"/>
  <path class="cls-15" d="M650.9,663.55l-10.65-4.04v-2.82l10.65-4.04v2.46l-2.1.75v4.58l2.1.75v2.36ZM646.94,659.78v-3.26l-2.62.93c-.11.04-.25.09-.41.15-.16.06-.34.11-.54.18-.2.06-.39.12-.58.18-.19.06-.37.11-.52.16v.09c.2.05.43.12.69.2s.52.16.76.25c.24.08.44.15.6.2l2.62.93Z"/>
  <path class="cls-15" d="M651.09,647.63c0,.81-.12,1.49-.36,2.06-.24.57-.61,1-1.09,1.3-.49.3-1.1.45-1.85.45h-.48v-2.23h.48c.48,0,.83-.13,1.06-.39.23-.26.35-.65.35-1.17s-.17-.88-.51-1.13-.82-.38-1.45-.38h-6.99v-2.29h6.99c.86,0,1.57.15,2.15.44.57.3,1,.73,1.28,1.29.28.57.42,1.25.42,2.06Z"/>
  <path class="cls-15" d="M650.9,642.02l-10.65-4.04v-2.82l10.65-4.04v2.46l-2.1.75v4.58l2.1.75v2.36ZM646.94,638.25v-3.26l-2.62.93c-.11.04-.25.09-.41.15-.16.06-.34.11-.54.18-.2.06-.39.12-.58.18-.19.06-.37.11-.52.16v.09c.2.05.43.12.69.2s.52.16.76.25c.24.08.44.15.6.2l2.62.93Z"/>
  <path class="cls-15" d="M677.71,662.2h-22.07v-12.42c0-1.14.23-2.17.68-3.09.45-.92,1.08-1.64,1.9-2.17.81-.53,1.77-.79,2.86-.79.88,0,1.66.16,2.35.48s1.25.75,1.7,1.28c.45.54.78,1.15,1,1.82h.13c.17-.8.49-1.52.96-2.14.47-.62,1.08-1.12,1.82-1.49.74-.37,1.61-.55,2.62-.55,1.33,0,2.44.3,3.34.9.9.6,1.58,1.4,2.03,2.39s.68,2.1.68,3.33v12.46ZM664.55,657.48v-6.28c0-.57-.11-1.05-.34-1.44-.23-.39-.53-.69-.9-.89-.38-.2-.81-.3-1.3-.3-.84,0-1.47.23-1.9.68-.43.45-.64,1.05-.64,1.79v6.44h5.08ZM673.78,657.48v-6.82c0-.78-.23-1.42-.67-1.92-.45-.5-1.15-.75-2.09-.75-.56,0-1.04.11-1.45.32-.41.21-.72.53-.95.95-.23.42-.34.96-.34,1.62v6.59h5.5Z"/>
  <path class="cls-15" d="M650.9,596.27h-10.65v-6c0-.55.11-1.05.33-1.49.22-.44.52-.79.92-1.05.39-.26.85-.38,1.38-.38.43,0,.8.08,1.13.23.33.15.61.36.82.62.22.26.38.55.48.88h.06c.08-.39.24-.73.47-1.03.23-.3.52-.54.88-.72s.78-.27,1.27-.27c.64,0,1.18.15,1.62.44.43.29.76.68.98,1.16.22.48.33,1.01.33,1.61v6.01ZM644.55,593.99v-3.03c0-.28-.05-.51-.16-.7-.11-.19-.25-.33-.44-.43-.18-.1-.39-.15-.63-.15-.4,0-.71.11-.92.33-.21.22-.31.51-.31.86v3.11h2.45ZM649.01,593.99v-3.29c0-.38-.11-.69-.33-.93-.22-.24-.55-.36-1.01-.36-.27,0-.5.05-.7.15-.2.1-.35.26-.46.46-.11.2-.16.46-.16.78v3.18h2.66Z"/>
  <path class="cls-15" d="M650.9,585.68l-10.65-4.04v-2.82l10.65-4.04v2.46l-2.1.75v4.58l2.1.75v2.36ZM646.94,581.92v-3.26l-2.62.93c-.11.04-.25.09-.41.15-.16.06-.34.11-.54.18-.2.06-.39.12-.58.18-.19.06-.37.11-.52.16v.09c.2.05.43.12.69.2s.52.16.76.25c.24.08.44.15.6.2l2.62.93Z"/>
  <path class="cls-15" d="M651.09,569.77c0,.81-.12,1.49-.36,2.06-.24.57-.61,1-1.09,1.3-.49.3-1.1.45-1.85.45h-.48v-2.23h.48c.48,0,.83-.13,1.06-.39.23-.26.35-.65.35-1.17s-.17-.88-.51-1.13-.82-.38-1.45-.38h-6.99v-2.29h6.99c.86,0,1.57.15,2.15.44.57.3,1,.73,1.28,1.29.28.57.42,1.25.42,2.06Z"/>
  <path class="cls-15" d="M650.9,564.15l-10.65-4.04v-2.82l10.65-4.04v2.46l-2.1.75v4.58l2.1.75v2.36ZM646.94,560.39v-3.26l-2.62.93c-.11.04-.25.09-.41.15-.16.06-.34.11-.54.18-.2.06-.39.12-.58.18-.19.06-.37.11-.52.16v.09c.2.05.43.12.69.2s.52.16.76.25c.24.08.44.15.6.2l2.62.93Z"/>
  <path class="cls-15" d="M678.09,574.78c0,2.26-.4,4.2-1.21,5.8-.8,1.61-2.05,2.83-3.75,3.66-1.69.83-3.85,1.25-6.46,1.25-3.86,0-6.73-.94-8.61-2.81-1.88-1.87-2.81-4.51-2.81-7.91,0-1.86.32-3.53.96-5.01.64-1.48,1.61-2.65,2.9-3.5,1.29-.86,2.91-1.28,4.86-1.28v4.75c-1.03,0-1.9.21-2.61.62-.71.41-1.25.99-1.62,1.74-.38.75-.56,1.62-.56,2.62,0,1.35.27,2.47.8,3.34.54.88,1.32,1.52,2.36,1.93,1.04.41,2.31.62,3.81.62h1c1.54,0,2.84-.21,3.88-.63,1.04-.42,1.82-1.06,2.35-1.92.53-.86.79-1.96.79-3.31,0-1.06-.18-1.98-.55-2.76-.36-.78-.9-1.38-1.61-1.81-.71-.42-1.58-.63-2.61-.63v-4.56c1.95,0,3.57.42,4.86,1.25,1.29.84,2.25,1.99,2.88,3.47.63,1.48.95,3.17.95,5.07Z"/>
  <path class="cls-15" d="M650.9,520.19h-10.65v-6c0-.55.11-1.05.33-1.49s.52-.79.92-1.05c.39-.26.85-.38,1.38-.38.43,0,.8.08,1.13.23.33.15.61.36.82.62.22.26.38.55.48.88h.06c.08-.39.24-.73.47-1.03.23-.3.52-.54.88-.72s.78-.27,1.27-.27c.64,0,1.18.15,1.62.44.43.29.76.68.98,1.16s.33,1.01.33,1.61v6.01ZM644.55,517.91v-3.03c0-.28-.05-.51-.16-.7-.11-.19-.25-.33-.44-.43-.18-.1-.39-.15-.63-.15-.4,0-.71.11-.92.33-.21.22-.31.51-.31.86v3.11h2.45ZM649.01,517.91v-3.29c0-.38-.11-.69-.33-.93-.22-.24-.55-.36-1.01-.36-.27,0-.5.05-.7.15-.2.1-.35.26-.46.46-.11.2-.16.46-.16.78v3.18h2.66Z"/>
  <path class="cls-15" d="M650.9,509.6l-10.65-4.04v-2.82l10.65-4.04v2.46l-2.1.75v4.58l2.1.75v2.36ZM646.94,505.83v-3.26l-2.62.93c-.11.04-.25.09-.41.15-.16.06-.34.11-.54.18-.2.06-.39.12-.58.18-.19.06-.37.11-.52.16v.09c.2.05.43.12.69.2s.52.16.76.25c.24.08.44.15.6.2l2.62.93Z"/>
  <path class="cls-15" d="M651.09,493.69c0,.81-.12,1.49-.36,2.06-.24.57-.61,1-1.09,1.3-.49.3-1.1.45-1.85.45h-.48v-2.23h.48c.48,0,.83-.13,1.06-.39.23-.26.35-.65.35-1.17s-.17-.88-.51-1.13-.82-.38-1.45-.38h-6.99v-2.29h6.99c.86,0,1.57.15,2.15.44.57.3,1,.73,1.28,1.29.28.57.42,1.25.42,2.06Z"/>
  <path class="cls-15" d="M650.9,488.07l-10.65-4.04v-2.82l10.65-4.04v2.46l-2.1.75v4.58l2.1.75v2.36ZM646.94,484.31v-3.26l-2.62.93c-.11.04-.25.09-.41.15-.16.06-.34.11-.54.18-.2.06-.39.12-.58.18-.19.06-.37.11-.52.16v.09c.2.05.43.12.69.2s.52.16.76.25c.24.08.44.15.6.2l2.62.93Z"/>
  <path class="cls-15" d="M677.71,508.52h-22.07v-8.88c0-2.26.4-4.18,1.19-5.77.79-1.58,2-2.81,3.62-3.66,1.62-.86,3.7-1.28,6.23-1.28s4.58.43,6.21,1.28,2.84,2.08,3.63,3.66c.79,1.58,1.19,3.51,1.19,5.77v8.88ZM673.75,503.8v-4.12c0-.95-.14-1.8-.42-2.54-.28-.74-.69-1.35-1.24-1.84-.55-.49-1.23-.86-2.06-1.11s-1.79-.38-2.88-.38h-.96c-1.09,0-2.05.13-2.88.38s-1.51.62-2.06,1.11c-.55.49-.96,1.1-1.25,1.84-.29.74-.43,1.58-.43,2.54v4.12h14.18Z"/>
  <path class="cls-15" d="M650.9,435.44h-10.65v-6c0-.55.11-1.05.33-1.49s.52-.79.92-1.05c.39-.26.85-.38,1.38-.38.43,0,.8.08,1.13.23.33.15.61.36.82.62.22.26.38.55.48.88h.06c.08-.39.24-.73.47-1.03.23-.3.52-.54.88-.72s.78-.27,1.27-.27c.64,0,1.18.15,1.62.44s.76.68.98,1.16c.22.48.33,1.01.33,1.61v6.01ZM644.55,433.16v-3.03c0-.28-.05-.51-.16-.7-.11-.19-.25-.33-.44-.43-.18-.1-.39-.15-.63-.15-.4,0-.71.11-.92.33-.21.22-.31.51-.31.86v3.11h2.45ZM649.01,433.16v-3.29c0-.38-.11-.69-.33-.93s-.55-.36-1.01-.36c-.27,0-.5.05-.7.15-.2.1-.35.26-.46.46-.11.2-.16.46-.16.78v3.18h2.66Z"/>
  <path class="cls-15" d="M650.9,424.85l-10.65-4.04v-2.82l10.65-4.04v2.46l-2.1.75v4.58l2.1.75v2.36ZM646.94,421.09v-3.26l-2.62.93c-.11.04-.25.09-.41.15-.16.06-.34.11-.54.18-.2.06-.39.12-.58.18-.19.06-.37.11-.52.16v.09c.2.05.43.12.69.2.26.08.52.16.76.25.24.08.44.15.6.2l2.62.93Z"/>
  <path class="cls-15" d="M651.09,408.94c0,.81-.12,1.49-.36,2.06-.24.57-.61,1-1.09,1.3-.49.3-1.1.45-1.85.45h-.48v-2.23h.48c.48,0,.83-.13,1.06-.39.23-.26.35-.65.35-1.17s-.17-.88-.51-1.13-.82-.38-1.45-.38h-6.99v-2.3h6.99c.86,0,1.57.15,2.15.44.57.3,1,.73,1.28,1.29.28.57.42,1.25.42,2.06Z"/>
  <path class="cls-15" d="M650.9,403.33l-10.65-4.04v-2.82l10.65-4.04v2.46l-2.1.75v4.58l2.1.75v2.36ZM646.94,399.56v-3.26l-2.62.93c-.11.04-.25.09-.41.15-.16.06-.34.11-.54.18-.2.06-.39.12-.58.18-.19.06-.37.11-.52.16v.09c.2.05.43.12.69.2.26.08.52.16.76.25.24.08.44.15.6.2l2.62.93Z"/>
  <path class="cls-15" d="M677.71,422.89h-22.07v-17.37h3.93v12.62h4.92v-11.16h3.89v11.16h5.37v-12.81h3.96v17.56Z"/>
  <path class="cls-1" d="M779.32,621.28h-23.11s0-87.88,0-87.88h23.11c7.35,0,13.32,5.95,13.32,13.26v61.36c0,7.31-5.98,13.26-13.32,13.26ZM1006.29,577.34c0-26.66,20.45-48.66,46.55-51.27v-129.87s-251.17,0-251.17,0c-25.11,0-45.46,20.26-45.46,45.25v81.57s23.11,0,23.11,0c13.09,0,23.75,10.6,23.75,23.64v61.36c0,13.03-10.65,23.64-23.75,23.64h-23.11s0,81.57,0,81.57c0,24.99,20.35,45.25,45.46,45.25h251.17s0-129.87,0-129.87c-26.11-2.61-46.55-24.61-46.55-51.27ZM1016.71,577.34c0,20.94,15.79,38.26,36.13,40.82v-81.64c-20.34,2.56-36.13,19.88-36.13,40.82ZM1099.4,577.34c0-20.94-15.79-38.26-36.13-40.82v81.64c20.34-2.56,36.13-19.88,36.13-40.82ZM1336.79,533.4c-7.35,0-13.32,5.95-13.32,13.26v61.36c0,7.31,5.98,13.26,13.32,13.26h23.11s0-87.88,0-87.88h-23.11ZM1313.05,608.02v-61.36c0-13.03,10.65-23.64,23.75-23.64h23.11s0-81.57,0-81.57c0-24.99-20.35-45.25-45.46-45.25h-251.17s0,129.87,0,129.87c26.11,2.61,46.56,24.61,46.56,51.27,0,26.67-20.45,48.66-46.56,51.27v129.87s251.17,0,251.17,0c25.11,0,45.46-20.26,45.46-45.25v-81.57s-23.11,0-23.11,0c-13.09,0-23.75-10.6-23.75-23.64ZM1063.27,396.2h-10.42s0,0,0,0h10.42s0,0,0,0ZM1052.85,758.48h10.42s0,0,0,0h-10.42s0,0,0,0ZM1359.9,631.66v-10.38s0,0,0,0v10.38s0,0,0,0ZM1359.9,533.4v-10.38s0,0,0,0v10.38s0,0,0,0ZM756.22,523.02v10.38s0,0,0,0v-10.38s0,0,0,0ZM756.22,621.28v10.38s0,0,0,0v-10.38s0,0,0,0Z"/>
  <rect class="cls-16" x="1225.81" y="536.51" width="161.65" height="78.45" rx="2.88" ry="2.88" transform="translate(1882.37 -730.9) rotate(90)"/>
</svg>
